SplineFontDB: 3.0
FontName: FdSymbolB-Bold
FullName: FdSymbolB-Bold
FamilyName: FdSymbolB
Weight: Bold
Copyright: Copyright (c) 2012, Michael Ummels. This Font Software is licensed under the SIL Open Font License, Version 1.1.
Version: 1.008
ItalicAngle: 0
UnderlinePosition: -100
UnderlineWidth: 50
Ascent: 800
Descent: 200
InvalidEm: 0
LayerCount: 2
Layer: 0 0 "Back" 1
Layer: 1 0 "Fore" 0
UniqueID: 4541732
OS2Version: 0
OS2_WeightWidthSlopeOnly: 0
OS2_UseTypoMetrics: 0
CreationTime: 1431873742
ModificationTime: 1431873742
OS2TypoAscent: 0
OS2TypoAOffset: 1
OS2TypoDescent: 0
OS2TypoDOffset: 1
OS2TypoLinegap: 0
OS2WinAscent: 0
OS2WinAOffset: 1
OS2WinDescent: 0
OS2WinDOffset: 1
HheadAscent: 0
HheadAOffset: 1
HheadDescent: 0
HheadDOffset: 1
OS2Vendor: 'PfEd'
DEI: 91125
Encoding: Custom
UnicodeInterp: none
NameList: AGL For New Fonts
DisplaySize: -48
AntiAlias: 1
FitToEm: 0
BeginPrivate: 2
BlueValues 31 [-10 0 546 556 707 717 754 764]
OtherBlues 11 [-230 -220]
EndPrivate
BeginChars: 256 236

StartChar: equal
Encoding: 0 61 0
Width: 660
Flags: W
HStem: 129 100<90 570> 321 100<90 570>
LayerCount: 2
Back
Fore
SplineSet
90 321 m 1
 90 421 l 1
 570 421 l 1
 570 321 l 1
 90 321 l 1
90 129 m 1
 90 229 l 1
 570 229 l 1
 570 129 l 1
 90 129 l 1
EndSplineSet
EndChar

StartChar: uni2261
Encoding: 1 8801 1
Width: 660
Flags: W
HStem: 33 100<90 570> 225 100<90 570> 417 100<90 570>
CounterMasks: 1 e0
LayerCount: 2
Back
Fore
SplineSet
90 417 m 1
 90 517 l 1
 570 517 l 1
 570 417 l 1
 90 417 l 1
90 225 m 1
 90 325 l 1
 570 325 l 1
 570 225 l 1
 90 225 l 1
90 33 m 1
 90 133 l 1
 570 133 l 1
 570 33 l 1
 90 33 l 1
EndSplineSet
EndChar

StartChar: similar
Encoding: 2 8764 2
Width: 660
Flags: W
HStem: 177 100<380.289 477.077> 273 100<181.999 279.711>
LayerCount: 2
Back
Fore
SplineSet
149 216 m 1x40
 90 275 l 1
 132 317 168 373 227 373 c 0x40
 278 373 323 346 362 313 c 0
 383 296 406 277 433 277 c 0
 467 277 487 310 511 334 c 1
 570 275 l 1
 528 233 493 177 433 177 c 0x80
 382 177 337 204 298 237 c 0
 277 254 254 273 227 273 c 0
 193 273 173 240 149 216 c 1x40
EndSplineSet
EndChar

StartChar: uni223D
Encoding: 3 8765 3
Width: 660
Flags: W
HStem: 177 100<181.999 279.711> 273 100<380.289 477.077>
LayerCount: 2
Back
Fore
SplineSet
511 216 m 1x40
 487 240 467 273 433 273 c 0x40
 406 273 383 254 362 237 c 0
 323 204 278 177 227 177 c 0
 168 177 132 233 90 275 c 1
 149 334 l 1
 173 310 193 277 227 277 c 0x80
 254 277 277 296 298 313 c 0
 337 346 382 373 433 373 c 0
 493 373 528 317 570 275 c 1
 511 216 l 1x40
EndSplineSet
EndChar

StartChar: approxequal
Encoding: 4 8776 4
Width: 660
Flags: W
HStem: 81 100<379.768 477.077> 177 100<181.999 279.188> 273 100<380.812 477.077> 369 100<181.999 280.232>
LayerCount: 2
Back
Fore
SplineSet
149 312 m 1x10
 90 371 l 1
 132 413 168 469 227 469 c 0x10
 278 469 323 442 362 410 c 0
 383 392 406 373 433 373 c 0
 467 373 487 406 511 430 c 1
 570 371 l 1
 528 330 493 273 433 273 c 0x20
 382 273 337 300 298 333 c 0
 277 351 254 369 227 369 c 0
 193 369 173 336 149 312 c 1x10
149 120 m 1
 90 179 l 1
 132 220 168 277 227 277 c 0x40
 278 277 323 250 362 217 c 0
 383 199 406 181 433 181 c 0
 467 181 487 214 511 238 c 1
 570 179 l 1
 528 137 493 81 433 81 c 0x80
 382 81 337 108 298 140 c 0
 277 158 254 177 227 177 c 0x40
 193 177 173 144 149 120 c 1
EndSplineSet
EndChar

StartChar: uni224B
Encoding: 5 8779 5
Width: 660
Flags: W
HStem: -16 100<380.812 477.077> 81 100<181.999 279.188> 177 100<380.289 477.077> 273 100<181.999 279.711> 369 100<380.812 477.077> 466 100<181.999 279.188>
LayerCount: 2
Back
Fore
SplineSet
149 409 m 1x04
 90 467 l 1
 132 509 168 566 227 566 c 0x04
 278 566 323 539 362 506 c 0
 383 488 406 469 433 469 c 0
 467 469 487 502 511 526 c 1
 570 467 l 1
 528 426 493 369 433 369 c 0x08
 382 369 337 396 298 429 c 0
 277 447 254 466 227 466 c 0
 193 466 173 433 149 409 c 1x04
149 216 m 1
 90 275 l 1
 132 317 168 373 227 373 c 0x10
 278 373 323 346 362 313 c 0
 383 296 406 277 433 277 c 0
 467 277 487 310 511 334 c 1
 570 275 l 1
 528 233 493 177 433 177 c 0x20
 382 177 337 204 298 237 c 0
 277 254 254 273 227 273 c 0x10
 193 273 173 240 149 216 c 1
149 24 m 1
 90 83 l 1
 132 124 168 181 227 181 c 0x40
 278 181 323 154 362 121 c 0
 383 103 406 84 433 84 c 0
 467 84 487 117 511 141 c 1
 570 83 l 1
 528 41 493 -16 433 -16 c 0x80
 382 -16 337 11 298 44 c 0
 277 62 254 81 227 81 c 0x40
 193 81 173 48 149 24 c 1
EndSplineSet
EndChar

StartChar: uni2243
Encoding: 6 8771 6
Width: 660
Flags: W
HStem: 129 100<90 570> 273 100<380.812 477.077> 369 100<181.999 280.232>
LayerCount: 2
Back
Fore
SplineSet
149 312 m 1xa0
 90 371 l 1
 132 413 168 469 227 469 c 0xa0
 278 469 323 442 362 410 c 0
 383 392 406 373 433 373 c 0
 467 373 487 406 511 430 c 1
 570 371 l 1
 528 330 493 273 433 273 c 0xc0
 382 273 337 300 298 333 c 0
 277 351 254 369 227 369 c 0
 193 369 173 336 149 312 c 1xa0
90 129 m 1
 90 229 l 1
 570 229 l 1
 570 129 l 1
 90 129 l 1
EndSplineSet
EndChar

StartChar: uni22CD
Encoding: 7 8909 7
Width: 660
Flags: W
HStem: 129 100<90 570> 273 100<181.999 279.188> 369 100<379.768 477.077>
LayerCount: 2
Back
Fore
SplineSet
511 312 m 1xa0
 487 336 467 369 433 369 c 0xa0
 406 369 383 351 362 333 c 0
 323 300 278 273 227 273 c 0
 168 273 132 330 90 371 c 1
 149 430 l 1
 173 406 193 373 227 373 c 0xc0
 254 373 277 392 298 410 c 0
 337 442 382 469 433 469 c 0
 493 469 528 413 570 371 c 1
 511 312 l 1xa0
570 229 m 1
 570 129 l 1
 90 129 l 1
 90 229 l 1
 570 229 l 1
EndSplineSet
EndChar

StartChar: uni2242
Encoding: 8 8770 8
Width: 660
Flags: W
HStem: 81 100<379.768 477.077> 177 100<181.999 279.188> 321 100<90 570>
LayerCount: 2
Back
Fore
SplineSet
90 321 m 1x20
 90 421 l 1
 570 421 l 1
 570 321 l 1
 90 321 l 1x20
149 120 m 1
 90 179 l 1
 132 220 168 277 227 277 c 0x60
 278 277 323 250 362 217 c 0
 383 199 406 181 433 181 c 0
 467 181 487 214 511 238 c 1
 570 179 l 1
 528 137 493 81 433 81 c 0xa0
 382 81 337 108 298 140 c 0
 277 158 254 177 227 177 c 0x60
 193 177 173 144 149 120 c 1
EndSplineSet
EndChar

StartChar: congruent
Encoding: 9 8773 9
Width: 660
Flags: W
HStem: 33 100<90 570> 225 100<90 570> 369 100<380.812 477.077> 466 100<181.999 279.188>
LayerCount: 2
Back
Fore
SplineSet
149 409 m 1xd0
 90 467 l 1
 132 509 168 566 227 566 c 0xd0
 278 566 323 539 362 506 c 0
 383 488 406 469 433 469 c 0
 467 469 487 502 511 526 c 1
 570 467 l 1
 528 426 493 369 433 369 c 0xe0
 382 369 337 396 298 429 c 0
 277 447 254 466 227 466 c 0
 193 466 173 433 149 409 c 1xd0
90 225 m 1
 90 325 l 1
 570 325 l 1
 570 225 l 1
 90 225 l 1
90 33 m 1
 90 133 l 1
 570 133 l 1
 570 33 l 1
 90 33 l 1
EndSplineSet
EndChar

StartChar: uni224C
Encoding: 10 8780 10
Width: 660
Flags: W
HStem: 33 100<90 570> 225 100<90 570> 369 100<181.999 279.188> 466 100<380.812 477.077>
LayerCount: 2
Back
Fore
SplineSet
511 409 m 1xd0
 487 433 467 466 433 466 c 0xd0
 406 466 383 447 362 429 c 0
 323 396 278 369 227 369 c 0
 168 369 132 426 90 467 c 1
 149 526 l 1
 173 502 193 469 227 469 c 0xe0
 254 469 277 488 298 506 c 0
 337 539 382 566 433 566 c 0
 493 566 528 509 570 467 c 1
 511 409 l 1xd0
570 325 m 1
 570 225 l 1
 90 225 l 1
 90 325 l 1
 570 325 l 1
570 133 m 1
 570 33 l 1
 90 33 l 1
 90 133 l 1
 570 133 l 1
EndSplineSet
EndChar

StartChar: uni224A
Encoding: 11 8778 11
Width: 660
Flags: W
HStem: 33 100<90 570> 177 100<380.289 477.077> 273 100<181.999 279.711> 369 100<380.812 477.077> 466 100<181.999 279.188>
LayerCount: 2
Back
Fore
SplineSet
149 409 m 1x88
 90 467 l 1
 132 509 168 566 227 566 c 0x88
 278 566 323 539 362 506 c 0
 383 488 406 469 433 469 c 0
 467 469 487 502 511 526 c 1
 570 467 l 1
 528 426 493 369 433 369 c 0x90
 382 369 337 396 298 429 c 0
 277 447 254 466 227 466 c 0
 193 466 173 433 149 409 c 1x88
149 216 m 1
 90 275 l 1
 132 317 168 373 227 373 c 0xa0
 278 373 323 346 362 313 c 0
 383 296 406 277 433 277 c 0
 467 277 487 310 511 334 c 1
 570 275 l 1
 528 233 493 177 433 177 c 0xc0
 382 177 337 204 298 237 c 0
 277 254 254 273 227 273 c 0xa0
 193 273 173 240 149 216 c 1
90 33 m 1
 90 133 l 1
 570 133 l 1
 570 33 l 1
 90 33 l 1
EndSplineSet
EndChar

StartChar: uni224F
Encoding: 12 8783 12
Width: 660
Flags: W
HStem: 129 100<90 570> 321 100<90 202.045 457.955 570> 417 100<291.843 368.157>
LayerCount: 2
Back
Fore
SplineSet
90 421 m 1xc0
 193 421 l 1xc0
 213 477 267 517 330 517 c 0xa0
 393 517 447 477 467 421 c 1
 570 421 l 1
 570 321 l 1
 376 321 l 1xc0
 376 371 l 2
 376 397 355 417 330 417 c 0xa0
 305 417 284 397 284 371 c 2
 284 321 l 1
 90 321 l 1
 90 421 l 1xc0
90 129 m 1
 90 229 l 1
 570 229 l 1
 570 129 l 1
 90 129 l 1
EndSplineSet
EndChar

StartChar: uni2AAE
Encoding: 13 10926 13
Width: 660
Flags: W
HStem: 33 100<90 570> 225 100<90 570> 417 100<90 202.045 457.955 570> 514 100<292.14 367.86>
LayerCount: 2
Back
Fore
SplineSet
90 517 m 1xe0
 193 517 l 1xe0
 213 574 267 614 330 614 c 0xd0
 393 614 447 574 467 517 c 1
 570 517 l 1
 570 417 l 1
 376 417 l 1xe0
 376 467 l 2
 376 493 355 514 330 514 c 0xd0
 305 514 284 493 284 467 c 2
 284 417 l 1
 90 417 l 1
 90 517 l 1xe0
90 225 m 1
 90 325 l 1
 570 325 l 1
 570 225 l 1
 90 225 l 1
90 33 m 1
 90 133 l 1
 570 133 l 1
 570 33 l 1
 90 33 l 1
EndSplineSet
EndChar

StartChar: uni224E
Encoding: 14 8782 14
Width: 660
Flags: W
HStem: 33 100<291.843 368.157> 129 100<90 202.045 457.955 570> 321 100<90 202.045 457.955 570> 417 100<291.843 368.157>
VStem: 90 194<140.099 229 321 409.901> 376 194<140.099 229 321 409.901>
LayerCount: 2
Back
Fore
SplineSet
90 421 m 1x2c
 193 421 l 1x2c
 213 477 267 517 330 517 c 0x1c
 393 517 447 477 467 421 c 1
 570 421 l 1
 570 321 l 1
 376 321 l 1x2c
 376 371 l 2
 376 397 355 417 330 417 c 0x1c
 305 417 284 397 284 371 c 2
 284 321 l 1
 90 321 l 1
 90 421 l 1x2c
90 129 m 1x4c
 90 229 l 1
 284 229 l 1x4c
 284 179 l 2
 284 153 305 133 330 133 c 0x8c
 355 133 376 153 376 179 c 2
 376 229 l 1
 570 229 l 1
 570 129 l 1
 467 129 l 1x4c
 447 73 393 33 330 33 c 0x8c
 267 33 213 73 193 129 c 1
 90 129 l 1x4c
EndSplineSet
EndChar

StartChar: uni2250
Encoding: 15 8784 15
Width: 660
Flags: W
HStem: 129 100<90 570> 321 100<90 570> 484 159<292.426 367.574>
VStem: 251 159<526.426 600.713>
LayerCount: 2
Back
Fore
SplineSet
90 321 m 1
 90 421 l 1
 570 421 l 1
 570 321 l 1
 90 321 l 1
90 129 m 1
 90 229 l 1
 570 229 l 1
 570 129 l 1
 90 129 l 1
410 564 m 0
 410 548 392 530 378 516 c 0
 364 502 346 484 330 484 c 0
 314 484 296 502 282 516 c 0
 268 530 251 548 251 564 c 0
 251 580 268 597 282 611 c 0
 296 626 314 643 330 643 c 0
 346 643 364 626 378 611 c 0
 392 597 410 580 410 564 c 0
EndSplineSet
EndChar

StartChar: uni2A66
Encoding: 16 10854 16
Width: 660
Flags: W
HStem: -93 159<292.426 367.574> 129 100<90 570> 321 100<90 570>
VStem: 251 159<-50.7134 23.5743>
LayerCount: 2
Back
Fore
SplineSet
90 321 m 1
 90 421 l 1
 570 421 l 1
 570 321 l 1
 90 321 l 1
90 129 m 1
 90 229 l 1
 570 229 l 1
 570 129 l 1
 90 129 l 1
410 -14 m 0
 410 -30 392 -47 378 -61 c 0
 364 -76 346 -93 330 -93 c 0
 314 -93 296 -76 282 -61 c 0
 268 -47 251 -30 251 -14 c 0
 251 2 268 20 282 34 c 0
 296 48 314 66 330 66 c 0
 346 66 364 48 378 34 c 0
 392 20 410 2 410 -14 c 0
EndSplineSet
EndChar

StartChar: uni2251
Encoding: 17 8785 17
Width: 660
Flags: W
HStem: -93 159<292.426 367.574> 129 100<90 570> 321 100<90 570> 484 159<292.426 367.574>
VStem: 251 159<-50.7134 23.5743 526.426 600.713>
LayerCount: 2
Back
Fore
SplineSet
90 321 m 1
 90 421 l 1
 570 421 l 1
 570 321 l 1
 90 321 l 1
90 129 m 1
 90 229 l 1
 570 229 l 1
 570 129 l 1
 90 129 l 1
410 564 m 0
 410 548 392 530 378 516 c 0
 364 502 346 484 330 484 c 0
 314 484 296 502 282 516 c 0
 268 530 251 548 251 564 c 0
 251 580 268 597 282 611 c 0
 296 626 314 643 330 643 c 0
 346 643 364 626 378 611 c 0
 392 597 410 580 410 564 c 0
410 -14 m 0
 410 -30 392 -47 378 -61 c 0
 364 -76 346 -93 330 -93 c 0
 314 -93 296 -76 282 -61 c 0
 268 -47 251 -30 251 -14 c 0
 251 2 268 20 282 34 c 0
 296 48 314 66 330 66 c 0
 346 66 364 48 378 34 c 0
 392 20 410 2 410 -14 c 0
EndSplineSet
EndChar

StartChar: uni2252
Encoding: 18 8786 18
Width: 660
Flags: W
HStem: -93 159<453.426 527.587> 129 100<90 570> 321 100<90 570> 484 159<132.426 206.587>
VStem: 90 159<526.426 600.713> 411 159<-50.7134 23.5743>
LayerCount: 2
Back
Fore
SplineSet
90 321 m 1
 90 421 l 1
 570 421 l 1
 570 321 l 1
 90 321 l 1
90 129 m 1
 90 229 l 1
 570 229 l 1
 570 129 l 1
 90 129 l 1
249 564 m 0
 249 548 231 530 217 516 c 0
 203 502 185 484 170 484 c 0
 154 484 136 502 122 516 c 0
 108 530 90 548 90 564 c 0
 90 580 108 597 122 611 c 0
 136 626 154 643 170 643 c 0
 185 643 203 626 217 611 c 0
 231 597 249 580 249 564 c 0
570 -14 m 0
 570 -30 552 -47 538 -61 c 0
 524 -76 506 -93 491 -93 c 0
 475 -93 457 -76 443 -61 c 0
 429 -47 411 -30 411 -14 c 0
 411 2 429 20 443 34 c 0
 457 48 475 66 491 66 c 0
 506 66 524 48 538 34 c 0
 552 20 570 2 570 -14 c 0
EndSplineSet
EndChar

StartChar: uni2253
Encoding: 19 8787 19
Width: 660
Flags: W
HStem: -93 159<132.426 206.587> 129 100<90 570> 321 100<90 570> 484 159<453.426 527.587>
VStem: 90 159<-50.7134 23.5743> 411 159<526.426 600.713>
LayerCount: 2
Back
Fore
SplineSet
570 421 m 1
 570 321 l 1
 90 321 l 1
 90 421 l 1
 570 421 l 1
570 229 m 1
 570 129 l 1
 90 129 l 1
 90 229 l 1
 570 229 l 1
570 564 m 0
 570 548 552 530 538 516 c 0
 524 502 506 484 491 484 c 0
 475 484 457 502 443 516 c 0
 429 530 411 548 411 564 c 0
 411 580 429 597 443 611 c 0
 457 626 475 643 491 643 c 0
 506 643 524 626 538 611 c 0
 552 597 570 580 570 564 c 0
249 -14 m 0
 249 -30 231 -47 217 -61 c 0
 203 -76 185 -93 170 -93 c 0
 154 -93 136 -76 122 -61 c 0
 108 -47 90 -30 90 -14 c 0
 90 2 108 20 122 34 c 0
 136 48 154 66 170 66 c 0
 185 66 203 48 217 34 c 0
 231 20 249 2 249 -14 c 0
EndSplineSet
EndChar

StartChar: uni2254
Encoding: 20 8788 20
Width: 900
Flags: W
HStem: 99 159<132.426 206.587> 129 100<330 810> 292 159<132.426 206.587> 321 100<330 810>
VStem: 90 159<141.426 215.713 334.287 408.574>
LayerCount: 2
Back
Fore
SplineSet
249 371 m 0x28
 249 355 231 338 217 324 c 0
 203 309 185 292 170 292 c 0
 154 292 136 309 122 324 c 0
 108 338 90 355 90 371 c 0
 90 387 108 405 122 419 c 0
 136 433 154 451 170 451 c 0
 185 451 203 433 217 419 c 0
 231 405 249 387 249 371 c 0x28
249 179 m 0
 249 163 231 145 217 131 c 0
 203 117 185 99 170 99 c 0
 154 99 136 117 122 131 c 0
 108 145 90 163 90 179 c 0
 90 195 108 212 122 226 c 0
 136 241 154 258 170 258 c 0x88
 185 258 203 241 217 226 c 0
 231 212 249 195 249 179 c 0
330 321 m 1x18
 330 421 l 1
 810 421 l 1
 810 321 l 1
 330 321 l 1x18
330 129 m 1x48
 330 229 l 1
 810 229 l 1
 810 129 l 1
 330 129 l 1x48
EndSplineSet
EndChar

StartChar: uni2255
Encoding: 21 8789 21
Width: 900
Flags: W
HStem: 99 159<692.426 767.574> 129 100<90 570> 292 159<692.426 767.574> 321 100<90 570>
VStem: 651 159<141.426 215.713 334.287 408.574>
LayerCount: 2
Back
Fore
SplineSet
810 371 m 0x28
 810 355 792 338 778 324 c 0
 764 309 746 292 730 292 c 0
 714 292 696 309 682 324 c 0
 668 338 651 355 651 371 c 0
 651 387 668 405 682 419 c 0
 696 433 714 451 730 451 c 0
 746 451 764 433 778 419 c 0
 792 405 810 387 810 371 c 0x28
810 179 m 0
 810 163 792 145 778 131 c 0
 764 117 746 99 730 99 c 0
 714 99 696 117 682 131 c 0
 668 145 651 163 651 179 c 0
 651 195 668 212 682 226 c 0
 696 241 714 258 730 258 c 0x88
 746 258 764 241 778 226 c 0
 792 212 810 195 810 179 c 0
570 421 m 1x18
 570 321 l 1
 90 321 l 1
 90 421 l 1
 570 421 l 1x18
570 229 m 1x48
 570 129 l 1
 90 129 l 1
 90 229 l 1
 570 229 l 1x48
EndSplineSet
EndChar

StartChar: uni2323
Encoding: 22 8995 22
Width: 660
Flags: W
HStem: 177 100<241.852 418.148>
LayerCount: 2
Back
Fore
SplineSet
161 358 m 1
 207 312 265 277 330 277 c 0
 395 277 453 312 499 358 c 1
 570 288 l 1
 505 223 422 177 330 177 c 0
 238 177 155 223 90 288 c 1
 161 358 l 1
EndSplineSet
EndChar

StartChar: uni2322
Encoding: 23 8994 23
Width: 660
Flags: W
HStem: 273 100<241.852 418.148>
LayerCount: 2
Back
Fore
SplineSet
161 192 m 1
 90 262 l 1
 155 327 238 373 330 373 c 0
 422 373 505 327 570 262 c 1
 499 192 l 1
 453 238 395 273 330 273 c 0
 265 273 207 238 161 192 c 1
EndSplineSet
EndChar

StartChar: uni224D
Encoding: 24 8781 24
Width: 660
Flags: W
HStem: 145 100<243.193 416.807> 305 100<243.193 416.807>
LayerCount: 2
Back
Fore
SplineSet
161 487 m 1
 207 441 265 405 330 405 c 0
 395 405 453 441 499 487 c 1
 570 416 l 1
 505 351 422 305 330 305 c 0
 238 305 155 351 90 416 c 1
 161 487 l 1
161 63 m 1
 90 134 l 1
 155 199 238 245 330 245 c 0
 422 245 505 199 570 134 c 1
 499 63 l 1
 453 109 395 145 330 145 c 0
 265 145 207 109 161 63 c 1
EndSplineSet
EndChar

StartChar: uni2050
Encoding: 25 8272 25
Width: 660
Flags: W
HStem: 49 100<241.852 418.148> 401 100<241.852 418.148>
LayerCount: 2
Back
Fore
SplineSet
161 320 m 1
 90 391 l 1
 155 455 238 501 330 501 c 0
 422 501 505 455 570 391 c 1
 499 320 l 1
 453 366 395 401 330 401 c 0
 265 401 207 366 161 320 c 1
161 230 m 1
 207 184 265 149 330 149 c 0
 395 149 453 184 499 230 c 1
 570 159 l 1
 505 95 422 49 330 49 c 0
 238 49 155 95 90 159 c 1
 161 230 l 1
EndSplineSet
EndChar

StartChar: sym020
Encoding: 26 -1 26
Width: 660
Flags: W
HStem: 33 100<90 570> 225 100<90 570> 369 100<243.193 416.807> 531 20G<141 184 476 519>
LayerCount: 2
Back
Fore
SplineSet
161 551 m 1
 207 505 265 469 330 469 c 0
 395 469 453 505 499 551 c 1
 570 480 l 1
 505 415 422 369 330 369 c 0
 238 369 155 415 90 480 c 1
 161 551 l 1
90 225 m 1
 90 325 l 1
 570 325 l 1
 570 225 l 1
 90 225 l 1
90 33 m 1
 90 133 l 1
 570 133 l 1
 570 33 l 1
 90 33 l 1
EndSplineSet
EndChar

StartChar: uni2258
Encoding: 27 8792 27
Width: 660
Flags: W
HStem: 33 100<90 570> 225 100<90 570> 466 100<243.193 416.807>
LayerCount: 2
Back
Fore
SplineSet
161 384 m 1
 90 455 l 1
 155 520 238 566 330 566 c 0
 422 566 505 520 570 455 c 1
 499 384 l 1
 453 430 395 466 330 466 c 0
 265 466 207 430 161 384 c 1
90 225 m 1
 90 325 l 1
 570 325 l 1
 570 225 l 1
 90 225 l 1
90 33 m 1
 90 133 l 1
 570 133 l 1
 570 33 l 1
 90 33 l 1
EndSplineSet
EndChar

StartChar: uni2256
Encoding: 28 8790 28
Width: 660
Flags: W
HStem: 129 100<90 222 295.421 364.579 438 570> 321 100<90 222 295.421 364.579 438 570>
VStem: 212 75<238.543 311.457> 373 75<238.543 311.457>
LayerCount: 2
Back
Fore
SplineSet
90 129 m 1
 90 229 l 1
 222 229 l 1
 216 243 212 259 212 275 c 0
 212 291 216 307 222 321 c 1
 90 321 l 1
 90 421 l 1
 570 421 l 1
 570 321 l 1
 438 321 l 1
 444 307 448 291 448 275 c 0
 448 259 444 243 438 229 c 1
 570 229 l 1
 570 129 l 1
 90 129 l 1
330 232 m 0
 352 232 373 253 373 275 c 0
 373 297 352 318 330 318 c 0
 308 318 287 297 287 275 c 0
 287 253 308 232 330 232 c 0
EndSplineSet
EndChar

StartChar: uni2257
Encoding: 29 8791 29
Width: 660
Flags: W
HStem: 129 100<90 570> 321 100<90 570> 494 75<294.674 365.326> 655 75<294.674 365.326>
VStem: 212 75<576.674 647.326> 373 75<576.674 647.326>
LayerCount: 2
Back
Fore
SplineSet
90 321 m 1
 90 421 l 1
 570 421 l 1
 570 321 l 1
 90 321 l 1
90 129 m 1
 90 229 l 1
 570 229 l 1
 570 129 l 1
 90 129 l 1
330 730 m 0
 393 730 448 675 448 612 c 0
 448 549 393 494 330 494 c 0
 267 494 212 549 212 612 c 0
 212 675 267 730 330 730 c 0
330 569 m 0
 352 569 373 590 373 612 c 0
 373 634 352 655 330 655 c 0
 308 655 287 634 287 612 c 0
 287 590 308 569 330 569 c 0
EndSplineSet
EndChar

StartChar: uni2259
Encoding: 30 8793 30
Width: 660
Flags: W
HStem: 129 100<90 570> 321 100<90 570> 736 20G<289.894 370.106>
LayerCount: 2
Back
Fore
SplineSet
90 321 m 1
 90 421 l 1
 570 421 l 1
 570 321 l 1
 90 321 l 1
90 129 m 1
 90 229 l 1
 570 229 l 1
 570 129 l 1
 90 129 l 1
536 530 m 1
 458 467 l 1
 330 627 l 1
 202 467 l 1
 124 530 l 1
 306 756 l 1
 354 756 l 1
 536 530 l 1
EndSplineSet
EndChar

StartChar: uni225A
Encoding: 31 8794 31
Width: 660
Flags: W
HStem: 129 100<90 570> 321 100<90 570> 736 20G<177.238 218.101 441.899 482.762>
LayerCount: 2
Back
Fore
SplineSet
90 321 m 1
 90 421 l 1
 570 421 l 1
 570 321 l 1
 90 321 l 1
90 129 m 1
 90 229 l 1
 570 229 l 1
 570 129 l 1
 90 129 l 1
124 693 m 1
 202 756 l 1
 330 597 l 1
 458 756 l 1
 536 693 l 1
 354 467 l 1
 306 467 l 1
 124 693 l 1
EndSplineSet
EndChar

StartChar: uni225B
Encoding: 32 8795 32
Width: 660
Flags: W
HStem: 129 100<90 570> 321 100<90 570>
LayerCount: 2
Back
Fore
SplineSet
90 321 m 1
 90 421 l 1
 570 421 l 1
 570 321 l 1
 90 321 l 1
90 129 m 1
 90 229 l 1
 570 229 l 1
 570 129 l 1
 90 129 l 1
330 807 m 1
 376 675 l 1
 516 672 l 1
 404 588 l 1
 445 454 l 1
 330 534 l 1
 215 454 l 1
 256 588 l 1
 144 672 l 1
 284 675 l 1
 330 807 l 1
EndSplineSet
EndChar

StartChar: uni225C
Encoding: 33 8796 33
Width: 660
Flags: W
HStem: 129 100<90 570> 321 100<90 570> 502 75<270 390>
LayerCount: 2
Back
Fore
SplineSet
90 321 m 1
 90 421 l 1
 570 421 l 1
 570 321 l 1
 90 321 l 1
90 129 m 1
 90 229 l 1
 570 229 l 1
 570 129 l 1
 90 129 l 1
330 831 m 1
 520 502 l 1
 140 502 l 1
 330 831 l 1
330 681 m 1
 270 577 l 1
 390 577 l 1
 330 681 l 1
EndSplineSet
EndChar

StartChar: element
Encoding: 34 8712 34
Width: 660
Flags: W
HStem: -16 100<268.068 570> 225 100<195 570> 466 100<268.068 570>
CounterMasks: 1 e0
LayerCount: 2
Back
Fore
SplineSet
570 466 m 1
 332 466 l 2
 259 466 210 402 195 325 c 1
 570 325 l 1
 570 225 l 1
 195 225 l 1
 210 148 259 84 332 84 c 2
 570 84 l 1
 570 -16 l 1
 332 -16 l 2
 188 -16 90 123 90 275 c 0
 90 427 188 566 332 566 c 2
 570 566 l 1
 570 466 l 1
EndSplineSet
EndChar

StartChar: uni220B
Encoding: 35 8715 35
Width: 660
Flags: W
HStem: -16 100<90 391.932> 225 100<90 465> 466 100<90 391.932>
CounterMasks: 1 e0
LayerCount: 2
Back
Fore
SplineSet
90 84 m 1
 328 84 l 2
 401 84 450 148 465 225 c 1
 90 225 l 1
 90 325 l 1
 465 325 l 1
 450 402 401 466 328 466 c 2
 90 466 l 1
 90 566 l 1
 328 566 l 2
 472 566 570 427 570 275 c 0
 570 123 472 -16 328 -16 c 2
 90 -16 l 1
 90 84 l 1
EndSplineSet
EndChar

StartChar: less
Encoding: 36 60 36
Width: 660
Flags: W
HStem: 526 20G<485.38 532.136>
LayerCount: 2
Back
Fore
SplineSet
521 546 m 1
 570 458 l 1
 242 275 l 1
 570 92 l 1
 521 4 l 1
 90 246 l 1
 90 304 l 1
 521 546 l 1
EndSplineSet
EndChar

StartChar: greater
Encoding: 37 62 37
Width: 660
Flags: W
HStem: 526 20G<127.864 174.62>
LayerCount: 2
Back
Fore
SplineSet
139 4 m 1
 90 92 l 1
 418 275 l 1
 90 458 l 1
 139 546 l 1
 570 304 l 1
 570 246 l 1
 139 4 l 1
EndSplineSet
EndChar

StartChar: lessequal
Encoding: 38 8804 38
Width: 660
Flags: W
HStem: -20 100<90 570>
LayerCount: 2
Back
Fore
SplineSet
531 558 m 1
 570 465 l 1
 269 339 l 1
 570 213 l 1
 531 121 l 1
 90 306 l 1
 90 372 l 1
 531 558 l 1
90 -20 m 1
 90 80 l 1
 570 80 l 1
 570 -20 l 1
 90 -20 l 1
EndSplineSet
EndChar

StartChar: greaterequal
Encoding: 39 8805 39
Width: 660
Flags: W
HStem: -20 100<90 570>
LayerCount: 2
Back
Fore
SplineSet
129 121 m 1
 90 213 l 1
 391 339 l 1
 90 465 l 1
 129 558 l 1
 570 372 l 1
 570 306 l 1
 129 121 l 1
570 80 m 1
 570 -20 l 1
 90 -20 l 1
 90 80 l 1
 570 80 l 1
EndSplineSet
EndChar

StartChar: uni2A7D
Encoding: 40 10877 40
Width: 660
Flags: W
LayerCount: 2
Back
Fore
SplineSet
531 590 m 1
 570 497 l 1
 269 371 l 1
 570 245 l 1
 531 153 l 1
 90 338 l 1
 90 404 l 1
 531 590 l 1
570 53 m 1
 531 -40 l 1
 90 146 l 1
 129 238 l 1
 570 53 l 1
EndSplineSet
EndChar

StartChar: uni2A7E
Encoding: 41 10878 41
Width: 660
Flags: W
LayerCount: 2
Back
Fore
SplineSet
129 153 m 1
 90 245 l 1
 391 371 l 1
 90 497 l 1
 129 590 l 1
 570 404 l 1
 570 338 l 1
 129 153 l 1
129 -40 m 1
 90 53 l 1
 531 238 l 1
 570 146 l 1
 129 -40 l 1
EndSplineSet
EndChar

StartChar: uni2266
Encoding: 42 8806 42
Width: 660
Flags: W
HStem: -116 100<90 570> 77 100<90 570>
LayerCount: 2
Back
Fore
SplineSet
531 654 m 1
 570 562 l 1
 269 435 l 1
 570 309 l 1
 531 217 l 1
 90 402 l 1
 90 469 l 1
 531 654 l 1
90 77 m 1
 90 177 l 1
 570 177 l 1
 570 77 l 1
 90 77 l 1
90 -116 m 1
 90 -16 l 1
 570 -16 l 1
 570 -116 l 1
 90 -116 l 1
EndSplineSet
EndChar

StartChar: uni2267
Encoding: 43 8807 43
Width: 660
Flags: W
HStem: -116 100<90 570> 77 100<90 570>
LayerCount: 2
Back
Fore
SplineSet
129 217 m 1
 90 309 l 1
 391 435 l 1
 90 562 l 1
 129 654 l 1
 570 469 l 1
 570 402 l 1
 129 217 l 1
570 177 m 1
 570 77 l 1
 90 77 l 1
 90 177 l 1
 570 177 l 1
570 -16 m 1
 570 -116 l 1
 90 -116 l 1
 90 -16 l 1
 570 -16 l 1
EndSplineSet
EndChar

StartChar: uni2272
Encoding: 44 8818 44
Width: 660
Flags: W
HStem: -52 100<380.812 477.077> 45 100<182.568 279.188>
LayerCount: 2
Back
Fore
SplineSet
531 590 m 1x00
 570 497 l 1
 269 371 l 1
 570 245 l 1
 531 153 l 1
 90 338 l 1
 90 404 l 1
 531 590 l 1x00
149 -12 m 1
 90 46 l 1
 132 88 168 145 227 145 c 0x40
 278 145 323 118 362 85 c 0
 383 67 406 48 433 48 c 0
 467 48 487 81 511 105 c 1
 570 46 l 1
 528 5 493 -52 433 -52 c 0x80
 382 -52 337 -25 298 8 c 0
 277 26 254 45 227 45 c 0x40
 193 45 173 11 149 -12 c 1
EndSplineSet
EndChar

StartChar: uni2273
Encoding: 45 8819 45
Width: 660
Flags: W
HStem: -52 100<380.812 477.077> 45 100<182.568 279.188>
LayerCount: 2
Back
Fore
SplineSet
129 153 m 1x00
 90 245 l 1
 391 371 l 1
 90 497 l 1
 129 590 l 1
 570 404 l 1
 570 338 l 1
 129 153 l 1x00
149 -12 m 1
 90 46 l 1
 132 88 168 145 227 145 c 0x40
 278 145 323 118 362 85 c 0
 383 67 406 48 433 48 c 0
 467 48 487 81 511 105 c 1
 570 46 l 1
 528 5 493 -52 433 -52 c 0x80
 382 -52 337 -25 298 8 c 0
 277 26 254 45 227 45 c 0x40
 193 45 173 11 149 -12 c 1
EndSplineSet
EndChar

StartChar: uni2A85
Encoding: 46 10885 46
Width: 660
Flags: W
HStem: -148 100<380.289 477.077> -52 100<181.999 280.232> 45 100<379.768 477.077> 141 100<181.999 279.188>
LayerCount: 2
Back
Fore
SplineSet
531 686 m 1x00
 570 594 l 1
 269 467 l 1
 570 341 l 1
 531 249 l 1
 90 434 l 1
 90 501 l 1
 531 686 l 1x00
149 84 m 1
 90 143 l 1
 132 184 168 241 227 241 c 0x10
 278 241 323 214 362 181 c 0
 383 163 406 145 433 145 c 0
 467 145 487 178 511 202 c 1
 570 143 l 1
 528 101 493 45 433 45 c 0x20
 382 45 337 72 298 104 c 0
 277 122 254 141 227 141 c 0x10
 193 141 173 108 149 84 c 1
149 -109 m 1
 90 -50 l 1
 132 -8 168 48 227 48 c 0x40
 278 48 323 21 362 -12 c 0
 383 -29 406 -48 433 -48 c 0
 467 -48 487 -15 511 9 c 1
 570 -50 l 1
 528 -92 493 -148 433 -148 c 0x80
 382 -148 337 -121 298 -88 c 0
 277 -70 254 -52 227 -52 c 0x40
 193 -52 173 -85 149 -109 c 1
EndSplineSet
EndChar

StartChar: uni2A86
Encoding: 47 10886 47
Width: 660
Flags: W
HStem: -148 100<380.289 477.077> -52 100<181.999 280.232> 45 100<379.768 477.077> 141 100<181.999 279.188>
LayerCount: 2
Back
Fore
SplineSet
129 249 m 1x00
 90 341 l 1
 391 467 l 1
 90 594 l 1
 129 686 l 1
 570 501 l 1
 570 434 l 1
 129 249 l 1x00
149 84 m 1
 90 143 l 1
 132 184 168 241 227 241 c 0x10
 278 241 323 214 362 181 c 0
 383 163 406 145 433 145 c 0
 467 145 487 178 511 202 c 1
 570 143 l 1
 528 101 493 45 433 45 c 0x20
 382 45 337 72 298 104 c 0
 277 122 254 141 227 141 c 0x10
 193 141 173 108 149 84 c 1
149 -109 m 1
 90 -50 l 1
 132 -8 168 48 227 48 c 0x40
 278 48 323 21 362 -12 c 0
 383 -29 406 -48 433 -48 c 0
 467 -48 487 -15 511 9 c 1
 570 -50 l 1
 528 -92 493 -148 433 -148 c 0x80
 382 -148 337 -121 298 -88 c 0
 277 -70 254 -52 227 -52 c 0x40
 193 -52 173 -85 149 -109 c 1
EndSplineSet
EndChar

StartChar: uni2276
Encoding: 48 8822 48
Width: 660
Flags: W
LayerCount: 2
Back
Fore
SplineSet
531 680 m 1
 570 588 l 1
 269 461 l 1
 570 335 l 1
 531 243 l 1
 90 428 l 1
 90 495 l 1
 531 680 l 1
129 -130 m 1
 90 -38 l 1
 391 89 l 1
 90 215 l 1
 129 307 l 1
 570 122 l 1
 570 55 l 1
 129 -130 l 1
EndSplineSet
EndChar

StartChar: uni2277
Encoding: 49 8823 49
Width: 660
Flags: W
LayerCount: 2
Back
Fore
SplineSet
129 243 m 1
 90 335 l 1
 391 461 l 1
 90 588 l 1
 129 680 l 1
 570 495 l 1
 570 428 l 1
 129 243 l 1
531 307 m 1
 570 215 l 1
 269 89 l 1
 570 -38 l 1
 531 -130 l 1
 90 55 l 1
 90 122 l 1
 531 307 l 1
EndSplineSet
EndChar

StartChar: uni22DA
Encoding: 50 8922 50
Width: 660
Flags: W
HStem: 225 100<90 570>
LayerCount: 2
Back
Fore
SplineSet
531 802 m 1
 570 710 l 1
 269 584 l 1
 570 458 l 1
 531 365 l 1
 90 551 l 1
 90 617 l 1
 531 802 l 1
129 -252 m 1
 90 -160 l 1
 391 -34 l 1
 90 92 l 1
 129 185 l 1
 570 -1 l 1
 570 -67 l 1
 129 -252 l 1
90 225 m 1
 90 325 l 1
 570 325 l 1
 570 225 l 1
 90 225 l 1
EndSplineSet
EndChar

StartChar: uni22DB
Encoding: 51 8923 51
Width: 660
Flags: W
HStem: 225 100<90 570>
LayerCount: 2
Back
Fore
SplineSet
129 365 m 1
 90 458 l 1
 391 584 l 1
 90 710 l 1
 129 802 l 1
 570 617 l 1
 570 551 l 1
 129 365 l 1
531 185 m 1
 570 92 l 1
 269 -34 l 1
 570 -160 l 1
 531 -252 l 1
 90 -67 l 1
 90 -1 l 1
 531 185 l 1
570 325 m 1
 570 225 l 1
 90 225 l 1
 90 325 l 1
 570 325 l 1
EndSplineSet
EndChar

StartChar: uni2A8B
Encoding: 52 10891 52
Width: 660
Flags: W
HStem: 129 100<90 570> 321 100<90 570>
LayerCount: 2
Back
Fore
SplineSet
531 899 m 1
 570 806 l 1
 269 680 l 1
 570 554 l 1
 531 462 l 1
 90 647 l 1
 90 713 l 1
 531 899 l 1
129 -349 m 1
 90 -256 l 1
 391 -130 l 1
 90 -4 l 1
 129 88 l 1
 570 -97 l 1
 570 -163 l 1
 129 -349 l 1
90 321 m 1
 90 421 l 1
 570 421 l 1
 570 321 l 1
 90 321 l 1
90 129 m 1
 90 229 l 1
 570 229 l 1
 570 129 l 1
 90 129 l 1
EndSplineSet
EndChar

StartChar: uni2A8C
Encoding: 53 10892 53
Width: 660
Flags: W
HStem: 129 100<90 570> 321 100<90 570>
LayerCount: 2
Back
Fore
SplineSet
129 462 m 1
 90 554 l 1
 391 680 l 1
 90 806 l 1
 129 899 l 1
 570 713 l 1
 570 647 l 1
 129 462 l 1
531 88 m 1
 570 -4 l 1
 269 -130 l 1
 570 -256 l 1
 531 -349 l 1
 90 -163 l 1
 90 -97 l 1
 531 88 l 1
570 421 m 1
 570 321 l 1
 90 321 l 1
 90 421 l 1
 570 421 l 1
570 229 m 1
 570 129 l 1
 90 129 l 1
 90 229 l 1
 570 229 l 1
EndSplineSet
EndChar

StartChar: uni22DA.alt
Encoding: 54 -1 54
Width: 660
Flags: W
HStem: -226 21G<120.522 176.676>
LayerCount: 2
Back
Fore
SplineSet
531 776 m 1
 570 684 l 1
 269 558 l 1
 570 431 l 1
 531 339 l 1
 90 524 l 1
 90 591 l 1
 531 776 l 1
129 -226 m 1
 90 -134 l 1
 391 -8 l 1
 90 119 l 1
 129 211 l 1
 570 26 l 1
 570 -41 l 1
 129 -226 l 1
570 228 m 1
 531 136 l 1
 90 322 l 1
 129 414 l 1
 570 228 l 1
EndSplineSet
EndChar

StartChar: uni22DB.alt
Encoding: 55 -1 55
Width: 660
Flags: W
HStem: -226 21G<483.324 539.478>
LayerCount: 2
Back
Fore
SplineSet
129 339 m 1
 90 431 l 1
 391 558 l 1
 90 684 l 1
 129 776 l 1
 570 591 l 1
 570 524 l 1
 129 339 l 1
531 211 m 1
 570 119 l 1
 269 -8 l 1
 570 -134 l 1
 531 -226 l 1
 90 -41 l 1
 90 26 l 1
 531 211 l 1
129 136 m 1
 90 228 l 1
 531 414 l 1
 570 322 l 1
 129 136 l 1
EndSplineSet
EndChar

StartChar: uni226A
Encoding: 56 8810 56
Width: 1145
Flags: W
HStem: -2 21G<585 638.011 970 1023.01> 532 20G<585 638.011 970 1023.01>
LayerCount: 2
Back
Fore
SplineSet
629 552 m 1
 670 461 l 1
 261 275 l 1
 670 89 l 1
 629 -2 l 1
 90 243 l 1
 90 307 l 1
 629 552 l 1
1014 552 m 1
 1055 461 l 1
 646 275 l 1
 1055 89 l 1
 1014 -2 l 1
 475 243 l 1
 475 307 l 1
 1014 552 l 1
EndSplineSet
EndChar

StartChar: uni226B
Encoding: 57 8811 57
Width: 1145
Flags: W
HStem: -2 21G<121.989 175 506.989 560> 532 20G<121.989 175 506.989 560>
LayerCount: 2
Back
Fore
SplineSet
516 -2 m 1
 475 89 l 1
 884 275 l 1
 475 461 l 1
 516 552 l 1
 1055 307 l 1
 1055 243 l 1
 516 -2 l 1
131 -2 m 1
 90 89 l 1
 499 275 l 1
 90 461 l 1
 131 552 l 1
 670 307 l 1
 670 243 l 1
 131 -2 l 1
EndSplineSet
EndChar

StartChar: uni22D8
Encoding: 58 8920 58
Width: 1530
Flags: W
HStem: -2 21G<585 638.011 970 1023.01 1355 1408.01> 532 20G<585 638.011 970 1023.01 1355 1408.01>
LayerCount: 2
Back
Fore
SplineSet
629 552 m 1
 670 461 l 1
 261 275 l 1
 670 89 l 1
 629 -2 l 1
 90 243 l 1
 90 307 l 1
 629 552 l 1
1014 552 m 1
 1055 461 l 1
 646 275 l 1
 1055 89 l 1
 1014 -2 l 1
 475 243 l 1
 475 307 l 1
 1014 552 l 1
1399 552 m 1
 1440 461 l 1
 1031 275 l 1
 1440 89 l 1
 1399 -2 l 1
 860 243 l 1
 860 307 l 1
 1399 552 l 1
EndSplineSet
EndChar

StartChar: uni22D9
Encoding: 59 8921 59
Width: 1530
Flags: W
HStem: -2 21G<121.989 175 506.989 560 891.989 945> 532 20G<121.989 175 506.989 560 891.989 945>
LayerCount: 2
Back
Fore
SplineSet
901 -2 m 1
 860 89 l 1
 1269 275 l 1
 860 461 l 1
 901 552 l 1
 1440 307 l 1
 1440 243 l 1
 901 -2 l 1
516 -2 m 1
 475 89 l 1
 884 275 l 1
 475 461 l 1
 516 552 l 1
 1055 307 l 1
 1055 243 l 1
 516 -2 l 1
131 -2 m 1
 90 89 l 1
 499 275 l 1
 90 461 l 1
 131 552 l 1
 670 307 l 1
 670 243 l 1
 131 -2 l 1
EndSplineSet
EndChar

StartChar: uni22B2
Encoding: 60 8882 60
Width: 660
Flags: W
HStem: 526 20G<485.38 554.793>
VStem: 470 100<148 402>
LayerCount: 2
Back
Fore
SplineSet
470 148 m 1
 470 402 l 1
 242 275 l 1
 470 148 l 1
521 4 m 1
 90 246 l 1
 90 304 l 1
 521 546 l 1
 570 517 l 1
 570 33 l 1
 521 4 l 1
EndSplineSet
EndChar

StartChar: uni22B3
Encoding: 61 8883 61
Width: 660
Flags: W
HStem: 526 20G<105.207 174.62>
VStem: 90 100<148 402>
LayerCount: 2
Back
Fore
SplineSet
190 402 m 1
 190 148 l 1
 418 275 l 1
 190 402 l 1
139 546 m 1
 570 304 l 1
 570 246 l 1
 139 4 l 1
 90 33 l 1
 90 517 l 1
 139 546 l 1
EndSplineSet
EndChar

StartChar: uni22B4
Encoding: 62 8884 62
Width: 660
Flags: W
HStem: -20 100<90 570>
VStem: 470 100<146 147 255 423>
LayerCount: 2
Back
Fore
SplineSet
470 255 m 1
 470 423 l 1
 269 339 l 1
 470 255 l 1
470 147 m 1
 90 306 l 1
 90 372 l 1
 531 558 l 1
 570 532 l 1
 570 146 l 1
 531 121 l 1
 470 146 l 1
 470 147 l 1
90 -20 m 1
 90 80 l 1
 570 80 l 1
 570 -20 l 1
 90 -20 l 1
EndSplineSet
EndChar

StartChar: uni22B5
Encoding: 63 8885 63
Width: 660
Flags: W
HStem: -20 100<90 570>
VStem: 90 100<146 147 255 423>
LayerCount: 2
Back
Fore
SplineSet
190 423 m 1
 190 255 l 1
 391 339 l 1
 190 423 l 1
190 147 m 1
 190 146 l 1
 129 121 l 1
 90 146 l 1
 90 532 l 1
 129 558 l 1
 570 372 l 1
 570 306 l 1
 190 147 l 1
570 80 m 1
 570 -20 l 1
 90 -20 l 1
 90 80 l 1
 570 80 l 1
EndSplineSet
EndChar

StartChar: uni2AA6
Encoding: 64 10918 64
Width: 717
Flags: W
HStem: 526 20G<485.38 532.364>
VStem: 518 100<168.405 381.595>
LayerCount: 2
Back
Fore
SplineSet
483 141 m 1
 507 183 518 229 518 275 c 0
 518 321 507 367 483 409 c 1
 242 275 l 1
 483 141 l 1
546 48 m 1
 521 4 l 1
 90 246 l 1
 90 304 l 1
 521 546 l 1
 546 502 l 1
 570 458 l 2
 602 401 618 338 618 275 c 0
 618 212 602 149 570 92 c 2
 546 48 l 1
EndSplineSet
EndChar

StartChar: uni2AA7
Encoding: 65 10919 65
Width: 717
Flags: W
HStem: 526 20G<187 230.702>
VStem: 99 100<169.369 380.631>
LayerCount: 2
Back
Fore
SplineSet
234 409 m 1
 211 367 199 322 199 275 c 0
 199 228 211 183 234 141 c 1
 474 275 l 1
 234 409 l 1
147 458 m 0
 163 487 179 517 195 546 c 1
 627 304 l 1
 627 246 l 1
 195 4 l 1
 179 33 163 63 147 92 c 0
 115 149 99 212 99 275 c 0
 99 338 115 401 147 458 c 0
EndSplineSet
EndChar

StartChar: uni2AA8
Encoding: 66 10920 66
Width: 698
Flags: W
VStem: 485 101<286.48 455.52>
LayerCount: 2
Back
Fore
SplineSet
474 285 m 1
 481 313 485 342 485 371 c 0
 485 400 481 429 474 457 c 1
 269 371 l 1
 474 285 l 1
558 216 m 2
 556 210 553 205 551 199 c 1
 531 153 l 1
 90 338 l 1
 90 404 l 1
 531 590 l 1
 550 544 l 1
 551 544 l 1
 554 537 556 530 559 523 c 2
 570 497 l 1
 568 496 l 1
 580 455 586 413 586 371 c 0
 586 329 580 287 568 246 c 1
 570 245 l 1
 558 216 l 2
570 53 m 1
 531 -40 l 1
 90 146 l 1
 129 238 l 1
 570 53 l 1
EndSplineSet
EndChar

StartChar: uni2AA9
Encoding: 67 10921 67
Width: 698
Flags: W
VStem: 114 99<286.48 455.52>
LayerCount: 2
Back
Fore
SplineSet
224 457 m 1
 217 429 213 400 213 371 c 0
 213 342 217 313 224 285 c 1
 429 371 l 1
 224 457 l 1
167 153 m 1
 128 245 l 1
 131 246 l 1
 119 287 114 329 114 371 c 0
 114 413 119 455 131 496 c 1
 128 497 l 1
 167 590 l 1
 608 404 l 1
 608 338 l 1
 167 153 l 1
167 -40 m 1
 128 53 l 1
 570 238 l 1
 608 146 l 1
 167 -40 l 1
EndSplineSet
EndChar

StartChar: uni228F
Encoding: 68 8847 68
Width: 660
Flags: W
HStem: -16 100<190 570> 466 100<190 570>
VStem: 90 100<84 466>
LayerCount: 2
Back
Fore
SplineSet
190 84 m 1
 570 84 l 1
 570 -16 l 1
 90 -16 l 1
 90 566 l 1
 570 566 l 1
 570 466 l 1
 190 466 l 1
 190 84 l 1
EndSplineSet
EndChar

StartChar: uni2290
Encoding: 69 8848 69
Width: 660
Flags: W
HStem: -16 100<90 470> 466 100<90 470>
VStem: 470 100<84 466>
LayerCount: 2
Back
Fore
SplineSet
470 84 m 1
 470 466 l 1
 90 466 l 1
 90 566 l 1
 570 566 l 1
 570 -16 l 1
 90 -16 l 1
 90 84 l 1
 470 84 l 1
EndSplineSet
EndChar

StartChar: uni2291
Encoding: 70 8849 70
Width: 660
Flags: W
HStem: -52 100<90 570> 141 100<190 570> 502 100<190 570>
VStem: 90 100<241 502>
LayerCount: 2
Back
Fore
SplineSet
190 241 m 1
 570 241 l 1
 570 141 l 1
 90 141 l 1
 90 602 l 1
 570 602 l 1
 570 502 l 1
 190 502 l 1
 190 241 l 1
90 -52 m 1
 90 48 l 1
 570 48 l 1
 570 -52 l 1
 90 -52 l 1
EndSplineSet
EndChar

StartChar: uni2292
Encoding: 71 8850 71
Width: 660
Flags: W
HStem: -52 100<90 570> 141 100<90 470> 502 100<90 470>
VStem: 470 100<241 502>
LayerCount: 2
Back
Fore
SplineSet
470 241 m 1
 470 502 l 1
 90 502 l 1
 90 602 l 1
 570 602 l 1
 570 141 l 1
 90 141 l 1
 90 241 l 1
 470 241 l 1
570 48 m 1
 570 -52 l 1
 90 -52 l 1
 90 48 l 1
 570 48 l 1
EndSplineSet
EndChar

StartChar: sym021
Encoding: 72 -1 72
Width: 660
Flags: W
HStem: -148 100<90 570> 45 100<90 570> 237 100<190 570> 598 100<190 570>
VStem: 90 480<-148 -48 45 145 237 337 598 698> 90 100<337 598>
LayerCount: 2
Back
Fore
SplineSet
190 337 m 1xf4
 570 337 l 1
 570 237 l 1
 90 237 l 1
 90 698 l 1
 570 698 l 1
 570 598 l 1xf8
 190 598 l 1
 190 337 l 1xf4
90 45 m 1
 90 145 l 1
 570 145 l 1
 570 45 l 1
 90 45 l 1
90 -148 m 1
 90 -48 l 1
 570 -48 l 1
 570 -148 l 1
 90 -148 l 1
EndSplineSet
EndChar

StartChar: sym022
Encoding: 73 -1 73
Width: 660
Flags: W
HStem: -148 100<90 570> 45 100<90 570> 237 100<90 470> 598 100<90 470>
VStem: 90 480<-148 -48 45 145 237 337 598 698> 470 100<337 598>
LayerCount: 2
Back
Fore
SplineSet
470 337 m 1xf4
 470 598 l 1xf4
 90 598 l 1
 90 698 l 1
 570 698 l 1
 570 237 l 1
 90 237 l 1
 90 337 l 1xf8
 470 337 l 1xf4
570 145 m 1xf8
 570 45 l 1
 90 45 l 1
 90 145 l 1
 570 145 l 1xf8
570 -48 m 1
 570 -148 l 1
 90 -148 l 1
 90 -48 l 1
 570 -48 l 1
EndSplineSet
EndChar

StartChar: sym023
Encoding: 74 -1 74
Width: 660
Flags: W
HStem: -16 100<190 570> 129 100<334 570> 321 100<334 570> 466 100<190 570>
VStem: 90 100<84 466> 234 100<229 321>
LayerCount: 2
Back
Fore
SplineSet
190 84 m 1
 570 84 l 1
 570 -16 l 1
 90 -16 l 1
 90 566 l 1
 570 566 l 1
 570 466 l 1
 190 466 l 1
 190 84 l 1
334 229 m 1
 570 229 l 1
 570 129 l 1
 234 129 l 1
 234 421 l 1
 570 421 l 1
 570 321 l 1
 334 321 l 1
 334 229 l 1
EndSplineSet
EndChar

StartChar: sym024
Encoding: 75 -1 75
Width: 660
Flags: W
HStem: -16 100<90 470> 129 100<90 326> 321 100<90 326> 466 100<90 470>
VStem: 326 100<229 321> 470 100<84 466>
LayerCount: 2
Back
Fore
SplineSet
470 84 m 1
 470 466 l 1
 90 466 l 1
 90 566 l 1
 570 566 l 1
 570 -16 l 1
 90 -16 l 1
 90 84 l 1
 470 84 l 1
326 229 m 1
 326 321 l 1
 90 321 l 1
 90 421 l 1
 426 421 l 1
 426 129 l 1
 90 129 l 1
 90 229 l 1
 326 229 l 1
EndSplineSet
EndChar

StartChar: propersubset
Encoding: 76 8834 76
Width: 660
Flags: W
HStem: -16 100<268.068 570> 466 100<268.068 570>
VStem: 90 100<171.914 378.086>
LayerCount: 2
Back
Fore
SplineSet
570 466 m 1
 332 466 l 2
 243 466 190 372 190 275 c 0
 190 178 243 84 332 84 c 2
 570 84 l 1
 570 -16 l 1
 332 -16 l 2
 188 -16 90 123 90 275 c 0
 90 427 188 566 332 566 c 2
 570 566 l 1
 570 466 l 1
EndSplineSet
EndChar

StartChar: propersuperset
Encoding: 77 8835 77
Width: 660
Flags: W
HStem: -16 100<90 391.932> 466 100<90 391.932>
VStem: 470 100<171.914 378.086>
LayerCount: 2
Back
Fore
SplineSet
90 84 m 1
 328 84 l 2
 417 84 470 178 470 275 c 0
 470 372 417 466 328 466 c 2
 90 466 l 1
 90 566 l 1
 328 566 l 2
 472 566 570 427 570 275 c 0
 570 123 472 -16 328 -16 c 2
 90 -16 l 1
 90 84 l 1
EndSplineSet
EndChar

StartChar: reflexsubset
Encoding: 78 8838 78
Width: 660
Flags: W
HStem: -52 100<90 570> 141 100<232.895 570> 502 100<232.895 570>
VStem: 90 100<287.52 454.776>
LayerCount: 2
Back
Fore
SplineSet
570 502 m 1
 284 502 l 2
 224 502 190 437 190 371 c 0
 190 305 224 241 284 241 c 2
 570 241 l 1
 570 141 l 1
 284 141 l 2
 169 141 90 250 90 371 c 0
 90 492 169 602 284 602 c 2
 570 602 l 1
 570 502 l 1
90 -52 m 1
 90 48 l 1
 570 48 l 1
 570 -52 l 1
 90 -52 l 1
EndSplineSet
EndChar

StartChar: reflexsuperset
Encoding: 79 8839 79
Width: 660
Flags: W
HStem: -52 100<90 570> 141 100<90 427.105> 502 100<90 427.105>
VStem: 470 100<287.52 454.776>
LayerCount: 2
Back
Fore
SplineSet
90 241 m 1
 376 241 l 2
 436 241 470 305 470 371 c 0
 470 437 436 502 376 502 c 2
 90 502 l 1
 90 602 l 1
 376 602 l 2
 491 602 570 492 570 371 c 0
 570 250 491 141 376 141 c 2
 90 141 l 1
 90 241 l 1
570 48 m 1
 570 -52 l 1
 90 -52 l 1
 90 48 l 1
 570 48 l 1
EndSplineSet
EndChar

StartChar: uni2AC5
Encoding: 80 10949 80
Width: 660
Flags: W
HStem: -148 100<90 570> 45 100<90 570> 237 100<232.895 570> 598 100<232.895 570>
VStem: 90 100<383.52 551.181>
LayerCount: 2
Back
Fore
SplineSet
570 598 m 1
 284 598 l 2
 224 598 190 534 190 467 c 0
 190 401 224 337 284 337 c 2
 570 337 l 1
 570 237 l 1
 284 237 l 2
 169 237 90 346 90 467 c 0
 90 589 169 698 284 698 c 2
 570 698 l 1
 570 598 l 1
90 45 m 1
 90 145 l 1
 570 145 l 1
 570 45 l 1
 90 45 l 1
90 -148 m 1
 90 -48 l 1
 570 -48 l 1
 570 -148 l 1
 90 -148 l 1
EndSplineSet
EndChar

StartChar: uni2AC6
Encoding: 81 10950 81
Width: 660
Flags: W
HStem: -148 100<90 570> 45 100<90 570> 237 100<90 427.105> 598 100<90 427.105>
VStem: 470 100<383.52 551.181>
LayerCount: 2
Back
Fore
SplineSet
90 337 m 1
 376 337 l 2
 436 337 470 401 470 467 c 0
 470 534 436 598 376 598 c 2
 90 598 l 1
 90 698 l 1
 376 698 l 2
 491 698 570 589 570 467 c 0
 570 346 491 237 376 237 c 2
 90 237 l 1
 90 337 l 1
570 145 m 1
 570 45 l 1
 90 45 l 1
 90 145 l 1
 570 145 l 1
570 -48 m 1
 570 -148 l 1
 90 -148 l 1
 90 -48 l 1
 570 -48 l 1
EndSplineSet
EndChar

StartChar: uni22D0
Encoding: 82 8912 82
Width: 660
Flags: W
HStem: -16 100<268.068 570> 129 100<337.328 570> 321 100<337.328 570> 466 100<268.068 570>
VStem: 90 100<171.914 378.086> 234 100<229.325 320.675>
LayerCount: 2
Back
Fore
SplineSet
570 466 m 1
 332 466 l 2
 243 466 190 372 190 275 c 0
 190 178 243 84 332 84 c 2
 570 84 l 1
 570 -16 l 1
 332 -16 l 2
 188 -16 90 123 90 275 c 0
 90 427 188 566 332 566 c 2
 570 566 l 1
 570 466 l 1
570 321 m 1
 357 321 l 2
 338 321 334 297 334 275 c 0
 334 253 338 229 357 229 c 2
 570 229 l 1
 570 129 l 1
 357 129 l 2
 285 129 234 198 234 275 c 0
 234 352 285 421 357 421 c 2
 570 421 l 1
 570 321 l 1
EndSplineSet
EndChar

StartChar: uni22D1
Encoding: 83 8913 83
Width: 660
Flags: W
HStem: -16 100<90 391.932> 129 100<90 322.672> 321 100<90 322.672> 466 100<90 391.932>
VStem: 326 100<229.325 320.675> 470 100<171.914 378.086>
LayerCount: 2
Back
Fore
SplineSet
90 84 m 1
 328 84 l 2
 417 84 470 178 470 275 c 0
 470 372 417 466 328 466 c 2
 90 466 l 1
 90 566 l 1
 328 566 l 2
 472 566 570 427 570 275 c 0
 570 123 472 -16 328 -16 c 2
 90 -16 l 1
 90 84 l 1
90 229 m 1
 303 229 l 2
 322 229 326 253 326 275 c 0
 326 297 322 321 303 321 c 2
 90 321 l 1
 90 421 l 1
 303 421 l 2
 375 421 426 352 426 275 c 0
 426 198 375 129 303 129 c 2
 90 129 l 1
 90 229 l 1
EndSplineSet
EndChar

StartChar: uni227A
Encoding: 84 8826 84
Width: 660
Flags: W
HStem: 0 21G<446.5 518.471> 225 100<90 243.594> 530 20G<446.5 518.471>
LayerCount: 2
Back
Fore
SplineSet
326 275 m 1
 417 226 496 147 570 68 c 1
 497 0 l 1
 396 108 287 225 140 225 c 2
 90 225 l 1
 90 325 l 1
 140 325 l 2
 287 325 396 442 497 550 c 1
 570 482 l 1
 496 403 417 324 326 275 c 1
EndSplineSet
EndChar

StartChar: uni227B
Encoding: 85 8827 85
Width: 660
Flags: W
HStem: 0 21G<141.529 213.5> 225 100<416.406 570> 530 20G<141.529 213.5>
LayerCount: 2
Back
Fore
SplineSet
334 275 m 1
 243 324 164 403 90 482 c 1
 163 550 l 1
 264 442 373 325 520 325 c 2
 570 325 l 1
 570 225 l 1
 520 225 l 2
 373 225 264 108 163 0 c 1
 90 68 l 1
 164 147 243 226 334 275 c 1
EndSplineSet
EndChar

StartChar: uni2AAF
Encoding: 86 10927 86
Width: 660
Flags: W
HStem: -20 100<90 570> 289 100<90 276.761> 534 20G<450.5 518.471>
LayerCount: 2
Back
Fore
SplineSet
368 339 m 1
 444 305 512 255 570 193 c 1
 497 125 l 1
 404 225 277 289 140 289 c 2
 90 289 l 1
 90 389 l 1
 140 389 l 2
 277 389 404 454 497 554 c 1
 570 486 l 1
 512 424 444 373 368 339 c 1
90 -20 m 1
 90 80 l 1
 570 80 l 1
 570 -20 l 1
 90 -20 l 1
EndSplineSet
EndChar

StartChar: uni2AB0
Encoding: 87 10928 87
Width: 660
Flags: W
HStem: -20 100<90 570> 289 100<383.239 570> 534 20G<141.529 209.5>
LayerCount: 2
Back
Fore
SplineSet
292 339 m 1
 216 373 148 424 90 486 c 1
 163 554 l 1
 256 454 383 389 520 389 c 2
 570 389 l 1
 570 289 l 1
 520 289 l 2
 383 289 256 225 163 125 c 1
 90 193 l 1
 148 255 216 305 292 339 c 1
570 80 m 1
 570 -20 l 1
 90 -20 l 1
 90 80 l 1
 570 80 l 1
EndSplineSet
EndChar

StartChar: uni227C
Encoding: 88 8828 88
Width: 660
Flags: W
HStem: 129 100<90 287.649> 321 100<90 276.761>
LayerCount: 2
Back
Fore
SplineSet
368 371 m 1
 444 337 512 287 570 225 c 1
 497 157 l 1
 404 257 277 321 140 321 c 2
 90 321 l 1
 90 421 l 1
 140 421 l 2
 277 421 404 486 497 586 c 1
 570 518 l 1
 512 456 444 405 368 371 c 1
90 129 m 1
 90 229 l 1
 190 229 l 2
 329 229 436 136 534 33 c 1
 462 -34 l 1
 385 51 303 129 190 129 c 2
 90 129 l 1
EndSplineSet
EndChar

StartChar: uni227D
Encoding: 89 8829 89
Width: 660
Flags: W
HStem: 129 100<372.351 570> 321 100<383.239 570>
LayerCount: 2
Back
Fore
SplineSet
292 371 m 1
 216 405 148 456 90 518 c 1
 163 586 l 1
 256 486 383 421 520 421 c 2
 570 421 l 1
 570 321 l 1
 520 321 l 2
 383 321 256 257 163 157 c 1
 90 225 l 1
 148 287 216 337 292 371 c 1
570 129 m 1
 470 129 l 2
 357 129 275 51 198 -34 c 1
 126 33 l 1
 224 136 331 229 470 229 c 2
 570 229 l 1
 570 129 l 1
EndSplineSet
EndChar

StartChar: uni2AB3
Encoding: 90 10931 90
Width: 660
Flags: W
HStem: -116 100<90 570> 77 100<90 570> 385 100<90 276.761>
LayerCount: 2
Back
Fore
SplineSet
368 435 m 1
 444 401 512 351 570 289 c 1
 497 221 l 1
 404 321 277 385 140 385 c 2
 90 385 l 1
 90 485 l 1
 140 485 l 2
 277 485 404 550 497 650 c 1
 570 582 l 1
 512 520 444 469 368 435 c 1
90 77 m 1
 90 177 l 1
 570 177 l 1
 570 77 l 1
 90 77 l 1
90 -116 m 1
 90 -16 l 1
 570 -16 l 1
 570 -116 l 1
 90 -116 l 1
EndSplineSet
EndChar

StartChar: uni2AB4
Encoding: 91 10932 91
Width: 660
Flags: W
HStem: -116 100<90 570> 77 100<90 570> 385 100<383.239 570>
LayerCount: 2
Back
Fore
SplineSet
292 435 m 1
 216 469 148 520 90 582 c 1
 163 650 l 1
 256 550 383 485 520 485 c 2
 570 485 l 1
 570 385 l 1
 520 385 l 2
 383 385 256 321 163 221 c 1
 90 289 l 1
 148 351 216 401 292 435 c 1
570 177 m 1
 570 77 l 1
 90 77 l 1
 90 177 l 1
 570 177 l 1
570 -16 m 1
 570 -116 l 1
 90 -116 l 1
 90 -16 l 1
 570 -16 l 1
EndSplineSet
EndChar

StartChar: uni227E
Encoding: 92 8830 92
Width: 660
Flags: W
HStem: -52 100<380.812 477.077> 45 100<182.568 279.188> 321 100<90 276.761>
LayerCount: 2
Back
Fore
SplineSet
368 371 m 1x20
 444 337 512 287 570 225 c 1
 497 157 l 1
 404 257 277 321 140 321 c 2
 90 321 l 1
 90 421 l 1
 140 421 l 2
 277 421 404 486 497 586 c 1
 570 518 l 1
 512 456 444 405 368 371 c 1x20
149 -12 m 1
 90 46 l 1
 132 88 168 145 227 145 c 0x60
 278 145 323 118 362 85 c 0
 383 67 406 48 433 48 c 0
 467 48 487 81 511 105 c 1
 570 46 l 1
 528 5 493 -52 433 -52 c 0xa0
 382 -52 337 -25 298 8 c 0
 277 26 254 45 227 45 c 0x60
 193 45 173 11 149 -12 c 1
EndSplineSet
EndChar

StartChar: uni227F
Encoding: 93 8831 93
Width: 660
Flags: W
HStem: -52 100<380.812 477.077> 45 100<182.568 279.188> 321 100<383.239 570>
LayerCount: 2
Back
Fore
SplineSet
292 371 m 1x20
 216 405 148 456 90 518 c 1
 163 586 l 1
 256 486 383 421 520 421 c 2
 570 421 l 1
 570 321 l 1
 520 321 l 2
 383 321 256 257 163 157 c 1
 90 225 l 1
 148 287 216 337 292 371 c 1x20
149 -12 m 1
 90 46 l 1
 132 88 168 145 227 145 c 0x60
 278 145 323 118 362 85 c 0
 383 67 406 48 433 48 c 0
 467 48 487 81 511 105 c 1
 570 46 l 1
 528 5 493 -52 433 -52 c 0xa0
 382 -52 337 -25 298 8 c 0
 277 26 254 45 227 45 c 0x60
 193 45 173 11 149 -12 c 1
EndSplineSet
EndChar

StartChar: uni2AB7
Encoding: 94 10935 94
Width: 660
Flags: W
HStem: -148 100<380.289 477.077> -52 100<181.999 280.232> 45 100<379.768 477.077> 141 100<181.999 279.188> 417 100<90 276.761>
LayerCount: 2
Back
Fore
SplineSet
367 467 m 1x08
 443 433 512 383 570 321 c 1
 497 253 l 1
 404 353 277 417 140 417 c 2
 90 417 l 1
 90 517 l 1
 140 517 l 2
 277 517 404 582 497 682 c 1
 570 614 l 1
 512 552 443 501 367 467 c 1x08
149 84 m 1
 90 143 l 1
 132 184 168 241 227 241 c 0x18
 278 241 323 214 362 181 c 0
 383 163 406 145 433 145 c 0
 467 145 487 178 511 202 c 1
 570 143 l 1
 528 101 493 45 433 45 c 0x28
 382 45 337 72 298 104 c 0
 277 122 254 141 227 141 c 0x18
 193 141 173 108 149 84 c 1
149 -109 m 1
 90 -50 l 1
 132 -8 168 48 227 48 c 0x48
 278 48 323 21 362 -12 c 0
 383 -29 406 -48 433 -48 c 0
 467 -48 487 -15 511 9 c 1
 570 -50 l 1
 528 -92 493 -148 433 -148 c 0x88
 382 -148 337 -121 298 -88 c 0
 277 -70 254 -52 227 -52 c 0x48
 193 -52 173 -85 149 -109 c 1
EndSplineSet
EndChar

StartChar: uni2AB8
Encoding: 95 10936 95
Width: 660
Flags: W
HStem: -148 100<380.289 477.077> -52 100<181.999 280.232> 45 100<379.768 477.077> 141 100<181.999 279.188> 417 100<383.239 570>
LayerCount: 2
Back
Fore
SplineSet
293 467 m 1x08
 217 501 148 552 90 614 c 1
 163 682 l 1
 256 582 383 517 520 517 c 2
 570 517 l 1
 570 417 l 1
 520 417 l 2
 383 417 256 353 163 253 c 1
 90 321 l 1
 148 383 217 433 293 467 c 1x08
149 84 m 1
 90 143 l 1
 132 184 168 241 227 241 c 0x18
 278 241 323 214 362 181 c 0
 383 163 406 145 433 145 c 0
 467 145 487 178 511 202 c 1
 570 143 l 1
 528 101 493 45 433 45 c 0x28
 382 45 337 72 298 104 c 0
 277 122 254 141 227 141 c 0x18
 193 141 173 108 149 84 c 1
149 -109 m 1
 90 -50 l 1
 132 -8 168 48 227 48 c 0x48
 278 48 323 21 362 -12 c 0
 383 -29 406 -48 433 -48 c 0
 467 -48 487 -15 511 9 c 1
 570 -50 l 1
 528 -92 493 -148 433 -148 c 0x88
 382 -148 337 -121 298 -88 c 0
 277 -70 254 -52 227 -52 c 0x48
 193 -52 173 -85 149 -109 c 1
EndSplineSet
EndChar

StartChar: uni22D6
Encoding: 96 8918 96
Width: 660
Flags: W
HStem: 196 159<453.426 527.587> 526 20G<485.38 532.136>
VStem: 411 159<237.426 312.574>
LayerCount: 2
Back
Fore
SplineSet
521 546 m 1
 570 458 l 1
 242 275 l 1
 570 92 l 1
 521 4 l 1
 90 246 l 1
 90 304 l 1
 521 546 l 1
570 275 m 0
 570 259 552 241 538 227 c 0
 524 213 506 196 491 196 c 0
 475 196 457 213 443 227 c 0
 429 241 411 259 411 275 c 0
 411 291 429 309 443 323 c 0
 457 337 475 355 491 355 c 0
 506 355 524 337 538 323 c 0
 552 309 570 291 570 275 c 0
EndSplineSet
EndChar

StartChar: uni22D7
Encoding: 97 8919 97
Width: 660
Flags: W
HStem: 196 159<132.426 206.587> 526 20G<127.864 174.62>
VStem: 90 159<237.426 312.574>
LayerCount: 2
Back
Fore
SplineSet
139 4 m 1
 90 92 l 1
 418 275 l 1
 90 458 l 1
 139 546 l 1
 570 304 l 1
 570 246 l 1
 139 4 l 1
249 275 m 0
 249 259 231 241 217 227 c 0
 203 213 185 196 170 196 c 0
 154 196 136 213 122 227 c 0
 108 241 90 259 90 275 c 0
 90 291 108 309 122 323 c 0
 136 337 154 355 170 355 c 0
 185 355 203 337 217 323 c 0
 231 309 249 291 249 275 c 0
EndSplineSet
EndChar

StartChar: sym025
Encoding: 98 -1 98
Width: 660
Flags: W
HStem: -20 100<90 570> 260 159<453.426 527.587>
VStem: 411 159<301.838 376.574>
LayerCount: 2
Back
Fore
SplineSet
531 558 m 1
 570 465 l 1
 269 339 l 1
 570 213 l 1
 531 121 l 1
 90 306 l 1
 90 372 l 1
 531 558 l 1
570 339 m 0
 570 323 552 306 538 291 c 0
 524 277 506 260 491 260 c 0
 475 260 457 277 443 291 c 0
 429 306 411 323 411 339 c 0
 411 355 429 373 443 387 c 0
 457 401 475 419 491 419 c 0
 506 419 524 401 538 387 c 0
 552 373 570 355 570 339 c 0
90 -20 m 1
 90 80 l 1
 570 80 l 1
 570 -20 l 1
 90 -20 l 1
EndSplineSet
EndChar

StartChar: sym026
Encoding: 99 -1 99
Width: 660
Flags: W
HStem: -20 100<90 570> 260 159<132.426 206.587>
VStem: 90 159<301.838 376.574>
LayerCount: 2
Back
Fore
SplineSet
129 121 m 1
 90 213 l 1
 391 339 l 1
 90 465 l 1
 129 558 l 1
 570 372 l 1
 570 306 l 1
 129 121 l 1
249 339 m 0
 249 323 231 306 217 291 c 0
 203 277 185 260 170 260 c 0
 154 260 136 277 122 291 c 0
 108 306 90 323 90 339 c 0
 90 355 108 373 122 387 c 0
 136 401 154 419 170 419 c 0
 185 419 203 401 217 387 c 0
 231 373 249 355 249 339 c 0
570 80 m 1
 570 -20 l 1
 90 -20 l 1
 90 80 l 1
 570 80 l 1
EndSplineSet
EndChar

StartChar: uni2A7F
Encoding: 100 10879 100
Width: 660
Flags: W
HStem: 292 159<453.426 527.587>
VStem: 411 159<334.287 408.574>
LayerCount: 2
Back
Fore
SplineSet
531 590 m 1
 570 497 l 1
 269 371 l 1
 570 245 l 1
 531 153 l 1
 90 338 l 1
 90 404 l 1
 531 590 l 1
570 371 m 0
 570 355 552 338 538 324 c 0
 524 309 506 292 491 292 c 0
 475 292 457 309 443 324 c 0
 429 338 411 355 411 371 c 0
 411 387 429 405 443 419 c 0
 457 433 475 451 491 451 c 0
 506 451 524 433 538 419 c 0
 552 405 570 387 570 371 c 0
570 53 m 1
 531 -40 l 1
 90 146 l 1
 129 238 l 1
 570 53 l 1
EndSplineSet
EndChar

StartChar: uni2A80
Encoding: 101 10880 101
Width: 660
Flags: W
HStem: 292 159<132.426 206.587>
VStem: 90 159<334.287 408.574>
LayerCount: 2
Back
Fore
SplineSet
129 153 m 1
 90 245 l 1
 391 371 l 1
 90 497 l 1
 129 590 l 1
 570 404 l 1
 570 338 l 1
 129 153 l 1
249 371 m 0
 249 355 231 338 217 324 c 0
 203 309 185 292 170 292 c 0
 154 292 136 309 122 324 c 0
 108 338 90 355 90 371 c 0
 90 387 108 405 122 419 c 0
 136 433 154 451 170 451 c 0
 185 451 203 433 217 419 c 0
 231 405 249 387 249 371 c 0
129 -40 m 1
 90 53 l 1
 531 238 l 1
 570 146 l 1
 129 -40 l 1
EndSplineSet
EndChar

StartChar: uni2A95
Encoding: 102 10901 102
Width: 660
Flags: W
LayerCount: 2
Back
Fore
SplineSet
531 397 m 1
 570 305 l 1
 269 179 l 1
 570 53 l 1
 531 -40 l 1
 90 146 l 1
 90 212 l 1
 531 397 l 1
531 590 m 1
 570 497 l 1
 129 312 l 1
 90 404 l 1
 531 590 l 1
EndSplineSet
EndChar

StartChar: uni2A96
Encoding: 103 10902 103
Width: 660
Flags: W
LayerCount: 2
Back
Fore
SplineSet
129 -40 m 1
 90 53 l 1
 391 179 l 1
 90 305 l 1
 129 397 l 1
 570 212 l 1
 570 146 l 1
 129 -40 l 1
90 497 m 1
 129 590 l 1
 570 404 l 1
 531 312 l 1
 90 497 l 1
EndSplineSet
EndChar

StartChar: uni22DE
Encoding: 104 8926 104
Width: 660
Flags: W
HStem: 129 100<90 276.761> 321 100<90 287.649>
LayerCount: 2
Back
Fore
SplineSet
368 179 m 1
 444 145 512 94 570 32 c 1
 497 -36 l 1
 404 64 277 129 140 129 c 2
 90 129 l 1
 90 229 l 1
 140 229 l 2
 277 229 404 293 497 393 c 1
 570 325 l 1
 512 263 444 213 368 179 c 1
90 421 m 1
 190 421 l 2
 303 421 385 499 462 584 c 1
 534 517 l 1
 436 414 329 321 190 321 c 2
 90 321 l 1
 90 421 l 1
EndSplineSet
EndChar

StartChar: uni22DF
Encoding: 105 8927 105
Width: 660
Flags: W
HStem: 129 100<383.239 570> 321 100<372.351 570>
LayerCount: 2
Back
Fore
SplineSet
292 179 m 1
 216 213 148 263 90 325 c 1
 163 393 l 1
 256 293 383 229 520 229 c 2
 570 229 l 1
 570 129 l 1
 520 129 l 2
 383 129 256 64 163 -36 c 1
 90 32 l 1
 148 94 216 145 292 179 c 1
570 421 m 1
 570 321 l 1
 470 321 l 2
 331 321 224 414 126 517 c 1
 198 584 l 1
 275 499 357 421 470 421 c 2
 570 421 l 1
EndSplineSet
EndChar

StartChar: notequal
Encoding: 106 8800 106
Width: 660
Flags: W
HStem: 129 100<90 245 364 570> 321 100<90 296 415 570>
LayerCount: 2
Back
Fore
SplineSet
376 619 m 1
 462 596 l 1
 415 421 l 1
 570 421 l 1
 570 321 l 1
 388 321 l 1
 364 229 l 1
 570 229 l 1
 570 129 l 1
 337 129 l 1
 284 -69 l 1
 198 -46 l 1
 245 129 l 1
 90 129 l 1
 90 229 l 1
 272 229 l 1
 296 321 l 1
 90 321 l 1
 90 421 l 1
 323 421 l 1
 376 619 l 1
EndSplineSet
EndChar

StartChar: uni2262
Encoding: 107 8802 107
Width: 660
Flags: W
HStem: 33 100<90 219 339 570> 225 100<90 270 390 570> 417 100<90 321 441 570>
CounterMasks: 1 e0
LayerCount: 2
Back
Fore
SplineSet
388 667 m 1
 475 644 l 1
 441 517 l 1
 570 517 l 1
 570 417 l 1
 414 417 l 1
 390 325 l 1
 570 325 l 1
 570 225 l 1
 363 225 l 1
 339 133 l 1
 570 133 l 1
 570 33 l 1
 312 33 l 1
 272 -117 l 1
 185 -94 l 1
 219 33 l 1
 90 33 l 1
 90 133 l 1
 246 133 l 1
 270 225 l 1
 90 225 l 1
 90 325 l 1
 297 325 l 1
 321 417 l 1
 90 417 l 1
 90 517 l 1
 348 517 l 1
 388 667 l 1
EndSplineSet
EndChar

StartChar: uni2241
Encoding: 108 8769 108
Width: 660
Flags: W
HStem: 177 100<383.748 477.077> 273 100<181.999 276.252>
LayerCount: 2
Back
Fore
SplineSet
363 571 m 1x40
 450 547 l 1
 383 297 l 1
 398 286 415 277 433 277 c 0
 467 277 487 310 511 334 c 1
 570 275 l 1
 528 233 493 177 433 177 c 0x80
 406 177 380 185 356 197 c 1
 297 -21 l 1
 210 3 l 1
 277 253 l 1
 262 264 245 273 227 273 c 0
 193 273 173 240 149 216 c 1
 90 275 l 1
 132 317 168 373 227 373 c 0
 254 373 280 365 304 353 c 1
 363 571 l 1x40
EndSplineSet
EndChar

StartChar: uni223D0338
Encoding: 109 -1 109
Width: 660
Flags: W
HStem: 177 100<181.999 257.607> 273 100<402.393 477.077>
LayerCount: 2
Back
Fore
SplineSet
363 571 m 1x80
 450 547 l 1
 402 370 l 1
 412 372 422 373 433 373 c 0
 493 373 528 317 570 275 c 1
 511 216 l 1
 487 240 467 273 433 273 c 0x40
 408 273 387 258 368 242 c 1
 297 -21 l 1
 210 3 l 1
 258 180 l 1
 248 178 238 177 227 177 c 0
 168 177 132 233 90 275 c 1
 149 334 l 1
 173 310 193 277 227 277 c 0
 252 277 273 292 292 308 c 1
 363 571 l 1x80
EndSplineSet
EndChar

StartChar: uni2249
Encoding: 110 8777 110
Width: 660
Flags: W
HStem: 81 100<380.53 477.077> 177 100<181.999 255.414> 273 100<404.586 477.077> 369 100<181.999 279.47>
LayerCount: 2
Back
Fore
SplineSet
299 332 m 1x40
 278 350 255 369 227 369 c 0
 193 369 173 336 149 312 c 1
 90 371 l 1
 132 413 168 469 227 469 c 0x50
 263 469 297 455 327 436 c 1
 376 619 l 1
 462 596 l 1
 404 380 l 1
 413 376 423 373 433 373 c 0
 467 373 487 406 511 430 c 1
 570 371 l 1
 528 330 493 273 433 273 c 0
 414 273 395 277 378 283 c 1
 361 218 l 1
 382 200 405 181 433 181 c 0
 467 181 487 214 511 238 c 1
 570 179 l 1
 528 137 493 81 433 81 c 0xa0
 397 81 363 95 333 114 c 1
 284 -69 l 1
 198 -46 l 1
 256 170 l 1
 247 174 237 177 227 177 c 0
 193 177 173 144 149 120 c 1
 90 179 l 1
 132 220 168 277 227 277 c 0
 246 277 265 273 282 267 c 1
 299 332 l 1x40
EndSplineSet
EndChar

StartChar: uni224B0338
Encoding: 111 58044 111
Width: 660
Flags: W
HStem: -16 100<380.212 477.077> 81 100<182.032 231.753> 177 100<382.654 477.077> 273 100<181.999 277.346> 369 100<428.247 476.12> 466 100<181.999 279.788>
LayerCount: 2
Back
Fore
SplineSet
320 412 m 1x50
 294 431 263 466 227 466 c 0
 193 466 173 433 149 409 c 1
 90 467 l 1
 132 509 168 566 227 566 c 0x54
 272 566 312 545 348 517 c 1
 388 667 l 1
 475 644 l 1
 428 469 l 1
 430 469 431 469 433 469 c 0
 467 469 487 502 511 526 c 1
 570 467 l 1
 528 426 493 369 433 369 c 0
 423 369 412 370 402 372 c 1
 382 297 l 1
 397 286 414 277 433 277 c 0
 467 277 487 310 511 334 c 1
 570 275 l 1
 528 233 493 177 433 177 c 0
 406 177 380 185 356 197 c 1
 340 138 l 1
 366 119 397 84 433 84 c 0
 467 84 487 117 511 141 c 1
 570 83 l 1
 528 41 493 -16 433 -16 c 0xa8
 388 -16 348 5 312 33 c 1
 272 -117 l 1
 185 -94 l 1
 232 81 l 1
 230 81 229 81 227 81 c 0
 193 81 173 48 149 24 c 1
 90 83 l 1
 132 124 168 181 227 181 c 0
 237 181 248 180 258 178 c 1
 278 253 l 1
 263 264 246 273 227 273 c 0
 193 273 173 240 149 216 c 1
 90 275 l 1
 132 317 168 373 227 373 c 0
 254 373 280 365 304 353 c 1
 320 412 l 1x50
EndSplineSet
EndChar

StartChar: uni2244
Encoding: 112 8772 112
Width: 660
Flags: W
HStem: 129 100<90 245 364 570> 273 100<404.586 477.077> 369 100<181.999 279.47>
LayerCount: 2
Back
Fore
SplineSet
299 332 m 1xc0
 278 350 255 369 227 369 c 0
 193 369 173 336 149 312 c 1
 90 371 l 1
 132 413 168 469 227 469 c 0xa0
 263 469 297 455 327 436 c 1
 376 619 l 1
 462 596 l 1
 404 380 l 1
 413 376 423 373 433 373 c 0
 467 373 487 406 511 430 c 1
 570 371 l 1
 528 330 493 273 433 273 c 0
 414 273 395 277 378 283 c 1
 364 229 l 1
 570 229 l 1
 570 129 l 1
 337 129 l 1
 284 -69 l 1
 198 -46 l 1
 245 129 l 1
 90 129 l 1
 90 229 l 1
 272 229 l 1
 299 332 l 1xc0
EndSplineSet
EndChar

StartChar: uni22CD0338
Encoding: 113 -1 113
Width: 660
Flags: W
HStem: 129 100<90 245 364 570> 273 100<181.999 278.82> 369 100<428.545 476.12>
LayerCount: 2
Back
Fore
SplineSet
376 619 m 1xc0
 462 596 l 1
 428 469 l 1
 430 469 431 469 433 469 c 0
 493 469 528 413 570 371 c 1
 511 312 l 1
 487 336 467 369 433 369 c 0xa0
 421 369 410 366 399 360 c 1
 364 229 l 1
 570 229 l 1
 570 129 l 1
 337 129 l 1
 284 -69 l 1
 198 -46 l 1
 245 129 l 1
 90 129 l 1
 90 229 l 1
 272 229 l 1
 287 285 l 1
 268 277 248 273 227 273 c 0
 168 273 132 330 90 371 c 1
 149 430 l 1
 173 406 193 373 227 373 c 0
 254 373 277 392 298 410 c 0
 307 417 316 424 326 431 c 1
 376 619 l 1xc0
EndSplineSet
EndChar

StartChar: uni22420338
Encoding: 114 59470 114
Width: 660
Flags: W
HStem: 81 100<380.53 477.077> 177 100<181.999 255.414> 321 100<90 296 415 570>
LayerCount: 2
Back
Fore
SplineSet
361 218 m 1x60
 382 200 405 181 433 181 c 0
 467 181 487 214 511 238 c 1
 570 179 l 1
 528 137 493 81 433 81 c 0xa0
 397 81 363 95 333 114 c 1
 284 -69 l 1
 198 -46 l 1
 256 170 l 1
 247 174 237 177 227 177 c 0
 193 177 173 144 149 120 c 1
 90 179 l 1
 132 220 168 277 227 277 c 0
 246 277 265 273 282 267 c 1
 296 321 l 1
 90 321 l 1
 90 421 l 1
 323 421 l 1
 376 619 l 1
 462 596 l 1
 415 421 l 1
 570 421 l 1
 570 321 l 1
 388 321 l 1
 361 218 l 1x60
EndSplineSet
EndChar

StartChar: uni2247
Encoding: 115 8775 115
Width: 660
Flags: W
HStem: 33 100<90 219 339 570> 225 100<90 270 390 570> 369 100<428.247 476.12> 466 100<181.999 279.788>
LayerCount: 2
Back
Fore
SplineSet
320 412 m 1xe0
 294 431 263 466 227 466 c 0
 193 466 173 433 149 409 c 1
 90 467 l 1
 132 509 168 566 227 566 c 0xd0
 272 566 312 545 348 517 c 1
 388 667 l 1
 475 644 l 1
 428 469 l 1
 430 469 431 469 433 469 c 0
 467 469 487 502 511 526 c 1
 570 467 l 1
 528 426 493 369 433 369 c 0
 423 369 412 370 402 372 c 1
 390 325 l 1
 570 325 l 1
 570 225 l 1
 363 225 l 1
 339 133 l 1
 570 133 l 1
 570 33 l 1
 312 33 l 1
 272 -117 l 1
 185 -94 l 1
 219 33 l 1
 90 33 l 1
 90 133 l 1
 246 133 l 1
 270 225 l 1
 90 225 l 1
 90 325 l 1
 297 325 l 1
 320 412 l 1xe0
EndSplineSet
EndChar

StartChar: uni224C0338
Encoding: 116 -1 116
Width: 660
Flags: W
HStem: 33 100<90 219 339 570> 225 100<90 270 390 570> 369 100<181.999 278.82>
LayerCount: 2
Back
Fore
SplineSet
388 667 m 1
 475 644 l 1
 454 564 l 1
 502 553 533 504 570 467 c 1
 511 409 l 1
 487 433 467 466 433 466 c 0
 431 466 429 466 427 466 c 1
 390 325 l 1
 570 325 l 1
 570 225 l 1
 363 225 l 1
 339 133 l 1
 570 133 l 1
 570 33 l 1
 312 33 l 1
 272 -117 l 1
 185 -94 l 1
 219 33 l 1
 90 33 l 1
 90 133 l 1
 246 133 l 1
 270 225 l 1
 90 225 l 1
 90 325 l 1
 297 325 l 1
 316 396 l 1
 289 380 259 369 227 369 c 0
 168 369 132 426 90 467 c 1
 149 526 l 1
 173 502 193 469 227 469 c 0
 254 469 277 488 298 506 c 0
 316 521 336 535 356 546 c 1
 388 667 l 1
EndSplineSet
EndChar

StartChar: uni224A0338
Encoding: 117 -1 117
Width: 660
Flags: W
HStem: 33 100<90 219 339 570> 177 100<382.654 477.077> 273 100<181.999 277.346> 369 100<428.247 476.12> 466 100<181.999 279.788>
LayerCount: 2
Back
Fore
SplineSet
320 412 m 1xa0
 294 431 263 466 227 466 c 0
 193 466 173 433 149 409 c 1
 90 467 l 1
 132 509 168 566 227 566 c 0xa8
 272 566 312 545 348 517 c 1
 388 667 l 1
 475 644 l 1
 428 469 l 1
 430 469 431 469 433 469 c 0
 467 469 487 502 511 526 c 1
 570 467 l 1
 528 426 493 369 433 369 c 0
 423 369 412 370 402 372 c 1
 382 297 l 1
 397 286 414 277 433 277 c 0
 467 277 487 310 511 334 c 1
 570 275 l 1
 528 233 493 177 433 177 c 0xd0
 406 177 380 185 356 197 c 1
 339 133 l 1
 570 133 l 1
 570 33 l 1
 312 33 l 1
 272 -117 l 1
 185 -94 l 1
 219 33 l 1
 90 33 l 1
 90 133 l 1
 246 133 l 1
 278 253 l 1
 263 264 246 273 227 273 c 0
 193 273 173 240 149 216 c 1
 90 275 l 1
 132 317 168 373 227 373 c 0
 254 373 280 365 304 353 c 1
 320 412 l 1xa0
EndSplineSet
EndChar

StartChar: uni224F0338
Encoding: 118 59469 118
Width: 660
Flags: W
HStem: 129 100<90 245 364 570> 321 100<90 202.045 457.059 570>
LayerCount: 2
Back
Fore
SplineSet
376 619 m 1
 462 596 l 1
 430 477 l 1
 446 462 459 443 467 421 c 1
 570 421 l 1
 570 321 l 1
 388 321 l 1
 364 229 l 1
 570 229 l 1
 570 129 l 1
 337 129 l 1
 284 -69 l 1
 198 -46 l 1
 245 129 l 1
 90 129 l 1
 90 229 l 1
 272 229 l 1
 322 416 l 1
 301 412 284 394 284 371 c 2
 284 321 l 1
 90 321 l 1
 90 421 l 1
 193 421 l 1
 213 477 267 517 330 517 c 0
 336 517 342 517 348 516 c 1
 376 619 l 1
EndSplineSet
EndChar

StartChar: uni2AAE0338
Encoding: 119 -1 119
Width: 660
Flags: W
HStem: 33 100<90 219 339 570> 225 100<90 270 390 570> 417 100<90 202.045 457.686 570> 514 100<292.14 345.775>
LayerCount: 2
Back
Fore
SplineSet
388 667 m 1xd0
 475 644 l 1
 450 551 l 1
 457 541 463 529 467 517 c 1
 570 517 l 1
 570 417 l 1
 414 417 l 1xe0
 390 325 l 1
 570 325 l 1
 570 225 l 1
 363 225 l 1
 339 133 l 1
 570 133 l 1
 570 33 l 1
 312 33 l 1
 272 -117 l 1
 185 -94 l 1
 219 33 l 1
 90 33 l 1
 90 133 l 1
 246 133 l 1
 270 225 l 1
 90 225 l 1
 90 325 l 1
 297 325 l 1
 346 511 l 1
 341 513 336 514 330 514 c 0xd0
 305 514 284 493 284 467 c 2
 284 417 l 1
 90 417 l 1
 90 517 l 1
 193 517 l 1xe0
 213 574 267 614 330 614 c 0
 345 614 359 612 372 608 c 1
 388 667 l 1xd0
EndSplineSet
EndChar

StartChar: uni224E0338
Encoding: 120 58902 120
Width: 660
Flags: W
HStem: 129 100<90 202.941 457.955 570> 321 100<90 202.045 457.059 570>
VStem: 376 194<139.982 229>
LayerCount: 2
Back
Fore
SplineSet
388 667 m 1
 475 644 l 1
 430 477 l 1
 446 462 459 442 467 421 c 1
 570 421 l 1
 570 321 l 1
 389 321 l 1
 339 134 l 1
 360 138 376 156 376 179 c 2
 376 229 l 1
 570 229 l 1
 570 129 l 1
 467 129 l 1
 447 73 393 33 330 33 c 0
 324 33 318 33 312 34 c 1
 272 -117 l 1
 185 -94 l 1
 230 73 l 1
 214 88 201 108 193 129 c 1
 90 129 l 1
 90 229 l 1
 271 229 l 1
 321 416 l 1
 300 412 284 394 284 371 c 2
 284 321 l 1
 90 321 l 1
 90 421 l 1
 193 421 l 1
 213 477 267 517 330 517 c 0
 336 517 342 517 348 516 c 1
 388 667 l 1
EndSplineSet
EndChar

StartChar: uni22500338
Encoding: 121 58250 121
Width: 660
Flags: W
HStem: 129 100<90 244 364 570> 321 100<90 296 416 570>
LayerCount: 2
Back
Fore
SplineSet
388 667 m 1
 475 644 l 1
 416 421 l 1
 570 421 l 1
 570 321 l 1
 389 321 l 1
 364 229 l 1
 570 229 l 1
 570 129 l 1
 338 129 l 1
 272 -117 l 1
 185 -94 l 1
 244 129 l 1
 90 129 l 1
 90 229 l 1
 271 229 l 1
 296 321 l 1
 90 321 l 1
 90 421 l 1
 322 421 l 1
 340 486 l 1
 337 485 333 484 330 484 c 0
 314 484 296 502 282 516 c 0
 268 530 251 548 251 564 c 0
 251 580 268 597 282 611 c 0
 296 626 314 643 330 643 c 0
 345 643 361 629 374 615 c 1
 388 667 l 1
EndSplineSet
EndChar

StartChar: uni2A660338
Encoding: 122 -1 122
Width: 660
Flags: W
HStem: 129 100<90 244 364 570> 321 100<90 296 416 570>
LayerCount: 2
Back
Fore
SplineSet
388 667 m 1
 475 644 l 1
 416 421 l 1
 570 421 l 1
 570 321 l 1
 389 321 l 1
 364 229 l 1
 570 229 l 1
 570 129 l 1
 338 129 l 1
 320 64 l 1
 323 65 327 66 330 66 c 0
 346 66 364 48 378 34 c 0
 392 20 410 2 410 -14 c 0
 410 -30 392 -47 378 -61 c 0
 364 -76 346 -93 330 -93 c 0
 315 -93 299 -79 286 -65 c 1
 272 -117 l 1
 185 -94 l 1
 244 129 l 1
 90 129 l 1
 90 229 l 1
 271 229 l 1
 296 321 l 1
 90 321 l 1
 90 421 l 1
 322 421 l 1
 388 667 l 1
EndSplineSet
EndChar

StartChar: uni22510338
Encoding: 123 -1 123
Width: 660
Flags: W
HStem: 129 100<90 244 364 570> 321 100<90 296 416 570>
LayerCount: 2
Back
Fore
SplineSet
388 667 m 1
 475 644 l 1
 416 421 l 1
 570 421 l 1
 570 321 l 1
 389 321 l 1
 364 229 l 1
 570 229 l 1
 570 129 l 1
 338 129 l 1
 320 64 l 1
 323 65 327 66 330 66 c 0
 346 66 364 48 378 34 c 0
 392 20 410 2 410 -14 c 0
 410 -30 392 -47 378 -61 c 0
 364 -76 346 -93 330 -93 c 0
 315 -93 299 -79 286 -65 c 1
 272 -117 l 1
 185 -94 l 1
 244 129 l 1
 90 129 l 1
 90 229 l 1
 271 229 l 1
 296 321 l 1
 90 321 l 1
 90 421 l 1
 322 421 l 1
 340 486 l 1
 337 485 333 484 330 484 c 0
 314 484 296 502 282 516 c 0
 268 530 251 548 251 564 c 0
 251 580 268 597 282 611 c 0
 296 626 314 643 330 643 c 0
 345 643 361 629 374 615 c 1
 388 667 l 1
EndSplineSet
EndChar

StartChar: uni22520338
Encoding: 124 -1 124
Width: 660
Flags: W
HStem: -93 159<453.426 527.587> 129 100<90 244 364 570> 321 100<90 296 416 570> 484 159<132.426 206.587>
VStem: 90 159<526.426 600.713> 411 159<-50.7134 23.5743>
LayerCount: 2
Back
Fore
SplineSet
249 564 m 0
 249 548 231 530 217 516 c 0
 203 502 185 484 170 484 c 0
 154 484 136 502 122 516 c 0
 108 530 90 548 90 564 c 0
 90 580 108 597 122 611 c 0
 136 626 154 643 170 643 c 0
 185 643 203 626 217 611 c 0
 231 597 249 580 249 564 c 0
570 -14 m 0
 570 -30 552 -47 538 -61 c 0
 524 -76 506 -93 491 -93 c 0
 475 -93 457 -76 443 -61 c 0
 429 -47 411 -30 411 -14 c 0
 411 2 429 20 443 34 c 0
 457 48 475 66 491 66 c 0
 506 66 524 48 538 34 c 0
 552 20 570 2 570 -14 c 0
388 667 m 1
 475 644 l 1
 416 421 l 1
 570 421 l 1
 570 321 l 1
 389 321 l 1
 364 229 l 1
 570 229 l 1
 570 129 l 1
 338 129 l 1
 272 -117 l 1
 185 -94 l 1
 244 129 l 1
 90 129 l 1
 90 229 l 1
 271 229 l 1
 296 321 l 1
 90 321 l 1
 90 421 l 1
 322 421 l 1
 388 667 l 1
EndSplineSet
EndChar

StartChar: uni22530338
Encoding: 125 -1 125
Width: 660
Flags: W
HStem: 129 100<90 244 364 570> 321 100<90 296 416 570>
LayerCount: 2
Back
Fore
SplineSet
170 66 m 0
 186 66 205 46 219 32 c 1
 244 129 l 1
 90 129 l 1
 90 229 l 1
 271 229 l 1
 296 321 l 1
 90 321 l 1
 90 421 l 1
 322 421 l 1
 388 667 l 1
 475 644 l 1
 473 637 l 1
 479 641 485 643 491 643 c 0
 506 643 524 626 538 611 c 0
 552 597 570 580 570 564 c 0
 570 548 552 530 538 516 c 0
 524 502 506 484 491 484 c 0
 474 484 455 504 441 518 c 1
 416 421 l 1
 570 421 l 1
 570 321 l 1
 389 321 l 1
 364 229 l 1
 570 229 l 1
 570 129 l 1
 338 129 l 1
 272 -117 l 1
 185 -94 l 1
 187 -87 l 1
 181 -90 175 -93 170 -93 c 0
 154 -93 136 -76 122 -61 c 0
 108 -47 90 -30 90 -14 c 0
 90 2 108 20 122 34 c 0
 136 48 154 66 170 66 c 0
EndSplineSet
EndChar

StartChar: uni23230338
Encoding: 126 -1 126
Width: 660
Flags: W
LayerCount: 2
Back
Fore
SplineSet
363 571 m 1
 450 547 l 1
 379 284 l 1
 424 296 465 324 499 358 c 1
 570 288 l 1
 510 228 435 184 351 178 c 1
 297 -21 l 1
 210 3 l 1
 259 186 l 1
 195 202 138 240 90 288 c 1
 161 358 l 1
 196 323 238 295 285 283 c 1
 363 571 l 1
EndSplineSet
EndChar

StartChar: uni23220338
Encoding: 127 -1 127
Width: 660
Flags: W
LayerCount: 2
Back
Fore
SplineSet
363 571 m 1
 450 547 l 1
 401 364 l 1
 465 348 522 310 570 262 c 1
 499 192 l 1
 464 227 422 255 375 267 c 1
 297 -21 l 1
 210 3 l 1
 281 266 l 1
 236 254 195 226 161 192 c 1
 90 262 l 1
 150 322 225 366 309 372 c 1
 363 571 l 1
EndSplineSet
EndChar

StartChar: uni226D
Encoding: 128 8813 128
Width: 660
Flags: W
HStem: 145 97<368 416.886> 308 97<243.114 292>
LayerCount: 2
Back
Fore
SplineSet
388 667 m 1
 475 644 l 1
 417 426 l 1
 447 441 475 463 499 487 c 1
 570 416 l 1
 519 365 456 325 386 311 c 1
 368 242 l 1
 445 231 514 190 570 134 c 1
 499 63 l 1
 456 106 402 141 342 145 c 1
 272 -117 l 1
 185 -94 l 1
 243 124 l 1
 213 109 185 87 161 63 c 1
 90 134 l 1
 141 185 204 225 274 239 c 1
 292 308 l 1
 215 319 146 360 90 416 c 1
 161 487 l 1
 204 444 258 409 318 405 c 1
 388 667 l 1
EndSplineSet
EndChar

StartChar: uni20500338
Encoding: 129 -1 129
Width: 660
Flags: W
LayerCount: 2
Back
Fore
SplineSet
388 667 m 1
 475 644 l 1
 432 482 l 1
 483 463 530 430 570 391 c 1
 499 320 l 1
 472 347 441 370 406 385 c 1
 343 149 l 1
 403 153 456 187 499 230 c 1
 570 159 l 1
 505 95 422 49 330 49 c 0
 325 49 321 49 316 49 c 1
 272 -117 l 1
 185 -94 l 1
 228 68 l 1
 177 87 130 120 90 159 c 1
 161 230 l 1
 188 203 219 180 254 165 c 1
 317 401 l 1
 257 397 204 363 161 320 c 1
 90 391 l 1
 155 455 238 501 330 501 c 0
 335 501 339 501 344 501 c 1
 388 667 l 1
EndSplineSet
EndChar

StartChar: sym020_uni0338
Encoding: 130 -1 130
Width: 660
Flags: W
HStem: 33 100<90 219 339 570> 225 100<90 270 390 570> 531 20G<141 184 489.5 519>
LayerCount: 2
Back
Fore
SplineSet
388 667 m 1
 475 644 l 1
 437 501 l 1
 459 515 480 532 499 551 c 1
 570 480 l 1
 523 433 466 396 404 379 c 1
 390 325 l 1
 570 325 l 1
 570 225 l 1
 363 225 l 1
 339 133 l 1
 570 133 l 1
 570 33 l 1
 312 33 l 1
 272 -117 l 1
 185 -94 l 1
 219 33 l 1
 90 33 l 1
 90 133 l 1
 246 133 l 1
 270 225 l 1
 90 225 l 1
 90 325 l 1
 297 325 l 1
 309 370 l 1
 225 376 150 420 90 480 c 1
 161 551 l 1
 207 505 265 469 330 469 c 0
 332 469 333 469 335 469 c 1
 388 667 l 1
EndSplineSet
EndChar

StartChar: uni22580338
Encoding: 131 -1 131
Width: 660
Flags: W
HStem: 33 100<90 219 339 570> 225 100<90 270 390 570> 466 100<243.723 333.793>
LayerCount: 2
Back
Fore
SplineSet
388 667 m 1
 475 644 l 1
 447 541 l 1
 492 521 534 491 570 455 c 1
 499 384 l 1
 476 407 450 427 421 442 c 1
 390 325 l 1
 570 325 l 1
 570 225 l 1
 363 225 l 1
 339 133 l 1
 570 133 l 1
 570 33 l 1
 312 33 l 1
 272 -117 l 1
 185 -94 l 1
 219 33 l 1
 90 33 l 1
 90 133 l 1
 246 133 l 1
 270 225 l 1
 90 225 l 1
 90 325 l 1
 297 325 l 1
 334 466 l 1
 333 466 331 466 330 466 c 0
 265 466 207 430 161 384 c 1
 90 455 l 1
 155 520 238 566 330 566 c 0
 340 566 351 565 361 564 c 1
 388 667 l 1
EndSplineSet
EndChar

StartChar: uni22560338
Encoding: 132 -1 132
Width: 660
Flags: W
HStem: 129 100<90 222 438 570> 321 100<90 222 438 570>
VStem: 212 236<229.658 320.342>
LayerCount: 2
Back
Fore
SplineSet
376 619 m 1
 462 596 l 1
 415 421 l 1
 570 421 l 1
 570 321 l 1
 438 321 l 1
 444 307 448 291 448 275 c 0
 448 259 444 243 438 229 c 1
 570 229 l 1
 570 129 l 1
 337 129 l 1
 284 -69 l 1
 198 -46 l 1
 245 129 l 1
 90 129 l 1
 90 229 l 1
 222 229 l 1
 216 243 212 259 212 275 c 0
 212 291 216 307 222 321 c 1
 90 321 l 1
 90 421 l 1
 323 421 l 1
 376 619 l 1
EndSplineSet
EndChar

StartChar: uni22570338
Encoding: 133 -1 133
Width: 660
Flags: W
HStem: 129 100<90 219 339 570> 321 100<90 270 390 570> 655 75<294.674 356.723>
VStem: 212 75<576.292 647.326>
LayerCount: 2
Back
Fore
SplineSet
287 612 m 0
 287 590 308 569 330 569 c 0
 332 569 334 570 336 570 c 1
 357 645 l 1
 349 651 340 655 330 655 c 0
 308 655 287 634 287 612 c 0
212 612 m 0
 212 675 267 730 330 730 c 0
 346 730 362 726 377 720 c 1
 401 811 l 1
 488 788 l 1
 446 632 l 1
 447 626 448 619 448 612 c 0
 448 585 438 559 421 538 c 1
 390 421 l 1
 570 421 l 1
 570 321 l 1
 363 321 l 1
 339 229 l 1
 570 229 l 1
 570 129 l 1
 312 129 l 1
 259 -69 l 1
 172 -46 l 1
 219 129 l 1
 90 129 l 1
 90 229 l 1
 245 229 l 1
 270 321 l 1
 90 321 l 1
 90 421 l 1
 297 421 l 1
 317 495 l 1
 261 502 212 552 212 612 c 0
EndSplineSet
EndChar

StartChar: uni22590338
Encoding: 134 -1 134
Width: 660
Flags: W
HStem: 129 100<90 219 339 570> 321 100<90 270 390 570> 736 20G<289.894 370>
LayerCount: 2
Back
Fore
SplineSet
401 811 m 1
 488 788 l 1
 448 639 l 1
 536 530 l 1
 458 467 l 1
 416 519 l 1
 390 421 l 1
 570 421 l 1
 570 321 l 1
 363 321 l 1
 339 229 l 1
 570 229 l 1
 570 129 l 1
 312 129 l 1
 259 -69 l 1
 172 -46 l 1
 219 129 l 1
 90 129 l 1
 90 229 l 1
 245 229 l 1
 270 321 l 1
 90 321 l 1
 90 421 l 1
 297 421 l 1
 346 607 l 1
 330 627 l 1
 202 467 l 1
 124 530 l 1
 306 756 l 1
 354 756 l 1
 378 726 l 1
 401 811 l 1
EndSplineSet
EndChar

StartChar: uni225A0338
Encoding: 135 -1 135
Width: 660
Flags: W
HStem: 129 100<90 219 339 570> 321 100<90 270 390 570> 736 20G<177.238 218.101>
LayerCount: 2
Back
Fore
SplineSet
401 811 m 1
 488 788 l 1
 476 742 l 1
 536 693 l 1
 426 557 l 1
 390 421 l 1
 570 421 l 1
 570 321 l 1
 363 321 l 1
 339 229 l 1
 570 229 l 1
 570 129 l 1
 312 129 l 1
 259 -69 l 1
 172 -46 l 1
 219 129 l 1
 90 129 l 1
 90 229 l 1
 245 229 l 1
 270 321 l 1
 90 321 l 1
 90 421 l 1
 297 421 l 1
 309 467 l 1
 306 467 l 1
 124 693 l 1
 202 756 l 1
 330 597 l 1
 351 623 l 1
 401 811 l 1
EndSplineSet
EndChar

StartChar: uni225B0338
Encoding: 136 -1 136
Width: 660
Flags: W
HStem: 129 100<90 219 339 570> 321 100<90 270 390 570>
LayerCount: 2
Back
Fore
SplineSet
401 811 m 1
 488 788 l 1
 457 673 l 1
 516 672 l 1
 442 617 l 1
 420 535 l 1
 445 454 l 1
 406 481 l 1
 390 421 l 1
 570 421 l 1
 570 321 l 1
 363 321 l 1
 339 229 l 1
 570 229 l 1
 570 129 l 1
 312 129 l 1
 259 -69 l 1
 172 -46 l 1
 219 129 l 1
 90 129 l 1
 90 229 l 1
 245 229 l 1
 270 321 l 1
 90 321 l 1
 90 421 l 1
 297 421 l 1
 326 531 l 1
 215 454 l 1
 256 588 l 1
 144 672 l 1
 284 675 l 1
 330 807 l 1
 370 693 l 1
 401 811 l 1
EndSplineSet
EndChar

StartChar: uni225C0338
Encoding: 137 -1 137
Width: 660
Flags: W
HStem: 129 100<90 219 339 570> 321 100<90 270 390 570> 502 75<270 318>
LayerCount: 2
Back
Fore
SplineSet
330 681 m 1
 270 577 l 1
 338 577 l 1
 355 638 l 1
 330 681 l 1
401 811 m 1
 488 788 l 1
 446 630 l 1
 520 502 l 1
 412 502 l 1
 390 421 l 1
 570 421 l 1
 570 321 l 1
 363 321 l 1
 339 229 l 1
 570 229 l 1
 570 129 l 1
 312 129 l 1
 259 -69 l 1
 172 -46 l 1
 219 129 l 1
 90 129 l 1
 90 229 l 1
 245 229 l 1
 270 321 l 1
 90 321 l 1
 90 421 l 1
 297 421 l 1
 318 502 l 1
 140 502 l 1
 330 831 l 1
 382 741 l 1
 401 811 l 1
EndSplineSet
EndChar

StartChar: notelement
Encoding: 138 8713 138
Width: 660
Flags: W
HStem: -16 100<326.328 570> 225 100<195 270 390 570> 466 100<268.068 334 454 570> 695 20G<395.631 476.652>
LayerCount: 2
Back
Fore
SplineSet
297 325 m 1
 334 466 l 1
 332 466 l 2
 259 466 210 402 195 325 c 1
 297 325 l 1
270 225 m 1
 195 225 l 1
 203 186 219 150 243 124 c 1
 270 225 l 1
401 715 m 1
 488 692 l 1
 454 566 l 1
 570 566 l 1
 570 466 l 1
 428 466 l 1
 390 325 l 1
 570 325 l 1
 570 225 l 1
 363 225 l 1
 326 84 l 1
 328 84 330 84 332 84 c 2
 570 84 l 1
 570 -16 l 1
 332 -16 l 2
 321 -16 310 -16 299 -14 c 1
 259 -165 l 1
 172 -142 l 1
 215 19 l 1
 138 70 90 169 90 275 c 0
 90 427 188 566 332 566 c 2
 361 566 l 1
 401 715 l 1
EndSplineSet
EndChar

StartChar: uni220C
Encoding: 139 8716 139
Width: 660
Flags: W
HStem: -16 100<90 206 326 391.932> 225 100<90 270 390 465> 466 100<90 333.672> 695 20G<395.702 476.652>
LayerCount: 2
Back
Fore
SplineSet
363 225 m 1
 326 84 l 1
 328 84 l 2
 401 84 450 148 465 225 c 1
 363 225 l 1
390 325 m 1
 465 325 l 1
 457 364 441 400 417 426 c 1
 390 325 l 1
401 715 m 1
 488 692 l 1
 445 531 l 1
 522 480 570 381 570 275 c 0
 570 123 472 -16 328 -16 c 2
 299 -16 l 1
 259 -165 l 1
 172 -142 l 1
 206 -16 l 1
 90 -16 l 1
 90 84 l 1
 232 84 l 1
 270 225 l 1
 90 225 l 1
 90 325 l 1
 297 325 l 1
 334 466 l 1
 332 466 330 466 328 466 c 2
 90 466 l 1
 90 566 l 1
 328 566 l 2
 339 566 350 566 361 564 c 1
 401 715 l 1
EndSplineSet
EndChar

StartChar: uni226E
Encoding: 140 8814 140
Width: 660
Flags: W
HStem: 526 20G<485.583 532.136>
LayerCount: 2
Back
Fore
SplineSet
278 255 m 1
 291 302 l 1
 242 275 l 1
 278 255 l 1
388 667 m 1
 475 644 l 1
 436 498 l 1
 521 546 l 1
 570 458 l 1
 400 363 l 1
 359 210 l 1
 570 92 l 1
 521 4 l 1
 333 110 l 1
 272 -117 l 1
 185 -94 l 1
 252 155 l 1
 90 246 l 1
 90 304 l 1
 327 437 l 1
 388 667 l 1
EndSplineSet
EndChar

StartChar: uni226F
Encoding: 141 8815 141
Width: 660
Flags: W
HStem: 526 20G<127.864 174.472>
LayerCount: 2
Back
Fore
SplineSet
382 295 m 1
 369 248 l 1
 418 275 l 1
 382 295 l 1
388 667 m 1
 475 644 l 1
 408 395 l 1
 570 304 l 1
 570 246 l 1
 333 113 l 1
 272 -117 l 1
 185 -94 l 1
 224 52 l 1
 139 4 l 1
 90 92 l 1
 260 187 l 1
 301 340 l 1
 90 458 l 1
 139 546 l 1
 327 440 l 1
 388 667 l 1
EndSplineSet
EndChar

StartChar: uni2270
Encoding: 142 8816 142
Width: 660
Flags: W
HStem: -20 100<90 204 324 570>
LayerCount: 2
Back
Fore
SplineSet
297 327 m 1
 305 354 l 1
 269 339 l 1
 297 327 l 1
398 703 m 1
 485 680 l 1
 442 521 l 1
 531 558 l 1
 570 465 l 1
 409 398 l 1
 381 292 l 1
 570 213 l 1
 531 121 l 1
 355 195 l 1
 324 80 l 1
 570 80 l 1
 570 -20 l 1
 298 -20 l 1
 262 -153 l 1
 175 -130 l 1
 204 -20 l 1
 90 -20 l 1
 90 80 l 1
 231 80 l 1
 271 230 l 1
 90 306 l 1
 90 372 l 1
 337 476 l 1
 398 703 l 1
EndSplineSet
EndChar

StartChar: uni2271
Encoding: 143 8817 143
Width: 660
Flags: W
HStem: -20 100<90 204 324 570>
LayerCount: 2
Back
Fore
SplineSet
398 703 m 1
 485 680 l 1
 420 435 l 1
 570 372 l 1
 570 306 l 1
 361 219 l 1
 324 80 l 1
 570 80 l 1
 570 -20 l 1
 298 -20 l 1
 262 -153 l 1
 175 -130 l 1
 204 -20 l 1
 90 -20 l 1
 90 80 l 1
 231 80 l 1
 257 174 l 1
 129 121 l 1
 90 213 l 1
 289 296 l 1
 310 373 l 1
 90 465 l 1
 129 558 l 1
 336 471 l 1
 398 703 l 1
EndSplineSet
EndChar

StartChar: uni2A7D0338
Encoding: 144 58023 144
Width: 660
Flags: W
LayerCount: 2
Back
Fore
SplineSet
305 356 m 1
 314 390 l 1
 269 371 l 1
 305 356 l 1
398 703 m 1
 485 680 l 1
 452 557 l 1
 531 590 l 1
 570 497 l 1
 419 434 l 1
 389 321 l 1
 570 245 l 1
 531 153 l 1
 363 224 l 1
 343 148 l 1
 570 53 l 1
 531 -40 l 1
 316 50 l 1
 262 -153 l 1
 175 -130 l 1
 233 86 l 1
 90 146 l 1
 129 238 l 1
 259 183 l 1
 279 259 l 1
 90 338 l 1
 90 404 l 1
 347 512 l 1
 398 703 l 1
EndSplineSet
EndChar

StartChar: uni2A7E0338
Encoding: 145 58022 145
Width: 660
Flags: W
LayerCount: 2
Back
Fore
SplineSet
398 703 m 1
 485 680 l 1
 427 464 l 1
 570 404 l 1
 570 338 l 1
 371 255 l 1
 346 160 l 1
 531 238 l 1
 570 146 l 1
 313 38 l 1
 262 -153 l 1
 175 -130 l 1
 208 -7 l 1
 129 -40 l 1
 90 53 l 1
 241 116 l 1
 266 211 l 1
 129 153 l 1
 90 245 l 1
 299 332 l 1
 317 402 l 1
 90 497 l 1
 129 590 l 1
 344 500 l 1
 398 703 l 1
EndSplineSet
EndChar

StartChar: uni22660338
Encoding: 146 58024 146
Width: 660
Flags: W
HStem: -116 100<90 179 299 570> 77 100<90 230 350 570>
LayerCount: 2
Back
Fore
SplineSet
320 413 m 1
 333 462 l 1
 269 435 l 1
 320 413 l 1
415 767 m 1
 502 744 l 1
 471 629 l 1
 531 654 l 1
 570 562 l 1
 438 507 l 1
 404 378 l 1
 570 309 l 1
 531 217 l 1
 378 281 l 1
 350 177 l 1
 570 177 l 1
 570 77 l 1
 324 77 l 1
 299 -16 l 1
 570 -16 l 1
 570 -116 l 1
 272 -116 l 1
 245 -217 l 1
 158 -194 l 1
 179 -116 l 1
 90 -116 l 1
 90 -16 l 1
 206 -16 l 1
 230 77 l 1
 90 77 l 1
 90 177 l 1
 257 177 l 1
 294 316 l 1
 90 402 l 1
 90 469 l 1
 366 585 l 1
 415 767 l 1
EndSplineSet
EndChar

StartChar: uni22670338
Encoding: 147 58021 147
Width: 660
Flags: W
HStem: -116 100<90 179 299 570> 77 100<90 230 350 570>
LayerCount: 2
Back
Fore
SplineSet
415 767 m 1
 502 744 l 1
 443 522 l 1
 570 469 l 1
 570 402 l 1
 390 327 l 1
 350 177 l 1
 570 177 l 1
 570 77 l 1
 324 77 l 1
 299 -16 l 1
 570 -16 l 1
 570 -116 l 1
 272 -116 l 1
 245 -217 l 1
 158 -194 l 1
 179 -116 l 1
 90 -116 l 1
 90 -16 l 1
 206 -16 l 1
 230 77 l 1
 90 77 l 1
 90 177 l 1
 257 177 l 1
 285 283 l 1
 129 217 l 1
 90 309 l 1
 318 404 l 1
 333 460 l 1
 90 562 l 1
 129 654 l 1
 359 558 l 1
 415 767 l 1
EndSplineSet
EndChar

StartChar: uni2274
Encoding: 148 8820 148
Width: 660
Flags: W
HStem: -52 100<381.197 477.077>
LayerCount: 2
Back
Fore
SplineSet
305 356 m 1
 314 390 l 1
 269 371 l 1
 305 356 l 1
398 703 m 1
 485 680 l 1
 452 557 l 1
 531 590 l 1
 570 497 l 1
 419 434 l 1
 389 321 l 1
 570 245 l 1
 531 153 l 1
 363 224 l 1
 332 108 l 1
 342 101 352 93 362 85 c 0
 383 67 406 48 433 48 c 0
 467 48 487 81 511 105 c 1
 570 46 l 1
 528 5 493 -52 433 -52 c 0
 385 -52 342 -28 304 3 c 1
 262 -153 l 1
 175 -130 l 1
 222 45 l 1
 191 42 172 10 149 -12 c 1
 90 46 l 1
 132 88 168 145 227 145 c 0
 234 145 241 144 248 143 c 1
 279 259 l 1
 90 338 l 1
 90 404 l 1
 347 512 l 1
 398 703 l 1
EndSplineSet
EndChar

StartChar: uni2275
Encoding: 149 8821 149
Width: 660
Flags: W
HStem: -52 100<381.197 477.077>
LayerCount: 2
Back
Fore
SplineSet
398 703 m 1
 485 680 l 1
 427 464 l 1
 570 404 l 1
 570 338 l 1
 371 255 l 1
 332 108 l 1
 342 101 352 93 362 85 c 0
 383 67 406 48 433 48 c 0
 467 48 487 81 511 105 c 1
 570 46 l 1
 528 5 493 -52 433 -52 c 0
 385 -52 342 -28 304 3 c 1
 262 -153 l 1
 175 -130 l 1
 222 45 l 1
 191 42 172 10 149 -12 c 1
 90 46 l 1
 132 88 168 145 227 145 c 0
 234 145 241 144 248 143 c 1
 266 211 l 1
 129 153 l 1
 90 245 l 1
 299 332 l 1
 317 402 l 1
 90 497 l 1
 129 590 l 1
 344 500 l 1
 398 703 l 1
EndSplineSet
EndChar

StartChar: uni2A850338
Encoding: 150 -1 150
Width: 660
Flags: W
HStem: -148 100<380.289 477.077> 45 100<380.667 477.077> 141 100<181.999 246.563>
LayerCount: 2
Back
Fore
SplineSet
328 442 m 1x80
 343 498 l 1
 269 467 l 1
 328 442 l 1x80
353 188 m 1
 376 170 402 145 433 145 c 0
 467 145 487 178 511 202 c 1
 570 143 l 1
 528 101 493 45 433 45 c 0xc0
 393 45 357 61 325 83 c 1
 310 25 l 1
 329 15 346 2 362 -12 c 0
 383 -29 406 -48 433 -48 c 0
 467 -48 487 -15 511 9 c 1
 570 -50 l 1
 528 -92 493 -148 433 -148 c 0
 382 -148 337 -121 298 -88 c 0
 293 -84 288 -79 283 -75 c 1
 249 -201 l 1
 162 -178 l 1
 192 -65 l 1
 176 -77 164 -94 149 -109 c 1
 90 -50 l 1
 131 -9 167 45 223 48 c 1
 247 138 l 1
 241 140 234 141 227 141 c 0
 193 141 173 108 149 84 c 1
 90 143 l 1
 132 184 168 241 227 241 c 0xa0
 243 241 257 239 272 234 c 1
 302 345 l 1
 90 434 l 1
 90 501 l 1
 376 621 l 1
 411 751 l 1
 498 728 l 1
 481 665 l 1
 531 686 l 1
 570 594 l 1
 448 543 l 1
 412 407 l 1
 570 341 l 1
 531 249 l 1
 386 310 l 1
 353 188 l 1
EndSplineSet
EndChar

StartChar: uni2A860338
Encoding: 151 -1 151
Width: 660
Flags: W
HStem: -148 100<380.289 477.077> 45 100<380.667 477.077> 141 100<181.999 246.563>
LayerCount: 2
Back
Fore
SplineSet
353 188 m 1xa0
 376 170 402 145 433 145 c 0
 467 145 487 178 511 202 c 1
 570 143 l 1
 528 101 493 45 433 45 c 0xc0
 393 45 357 61 325 83 c 1
 310 25 l 1
 329 15 346 2 362 -12 c 0
 383 -29 406 -48 433 -48 c 0
 467 -48 487 -15 511 9 c 1
 570 -50 l 1
 528 -92 493 -148 433 -148 c 0
 382 -148 337 -121 298 -88 c 0
 293 -84 288 -79 283 -75 c 1
 249 -201 l 1
 162 -178 l 1
 192 -65 l 1
 176 -77 164 -94 149 -109 c 1
 90 -50 l 1
 131 -9 167 45 223 48 c 1
 247 138 l 1
 241 140 234 141 227 141 c 0
 193 141 173 108 149 84 c 1
 90 143 l 1
 132 184 168 241 227 241 c 0
 243 241 257 239 272 234 c 1
 295 319 l 1
 129 249 l 1
 90 341 l 1
 328 441 l 1
 341 488 l 1
 90 594 l 1
 129 686 l 1
 367 586 l 1
 411 751 l 1
 498 728 l 1
 451 551 l 1
 570 501 l 1
 570 434 l 1
 400 363 l 1
 353 188 l 1xa0
EndSplineSet
EndChar

StartChar: uni2278
Encoding: 152 8824 152
Width: 660
Flags: W
LayerCount: 2
Back
Fore
SplineSet
327 437 m 1
 341 492 l 1
 269 461 l 1
 327 437 l 1
333 113 m 1
 319 58 l 1
 391 89 l 1
 333 113 l 1
422 793 m 1
 509 770 l 1
 479 658 l 1
 531 680 l 1
 570 588 l 1
 446 536 l 1
 410 402 l 1
 570 335 l 1
 531 243 l 1
 384 304 l 1
 359 210 l 1
 570 122 l 1
 570 55 l 1
 286 -64 l 1
 238 -243 l 1
 151 -220 l 1
 181 -108 l 1
 129 -130 l 1
 90 -38 l 1
 214 14 l 1
 250 148 l 1
 90 215 l 1
 129 307 l 1
 276 246 l 1
 301 340 l 1
 90 428 l 1
 90 495 l 1
 374 614 l 1
 422 793 l 1
EndSplineSet
EndChar

StartChar: uni2279
Encoding: 153 8825 153
Width: 660
Flags: W
LayerCount: 2
Back
Fore
SplineSet
409 745 m 1
 496 722 l 1
 449 546 l 1
 570 495 l 1
 570 428 l 1
 398 356 l 1
 367 238 l 1
 531 307 l 1
 570 215 l 1
 334 116 l 1
 321 67 l 1
 570 -38 l 1
 531 -130 l 1
 295 -31 l 1
 251 -195 l 1
 164 -172 l 1
 211 4 l 1
 90 55 l 1
 90 122 l 1
 262 194 l 1
 293 312 l 1
 129 243 l 1
 90 335 l 1
 326 434 l 1
 339 483 l 1
 90 588 l 1
 129 680 l 1
 365 581 l 1
 409 745 l 1
EndSplineSet
EndChar

StartChar: uni22DA0338
Encoding: 154 -1 154
Width: 660
Flags: W
HStem: 225 100<90 270 390 570>
LayerCount: 2
Back
Fore
SplineSet
356 547 m 1
 378 630 l 1
 269 584 l 1
 356 547 l 1
304 3 m 1
 282 -80 l 1
 391 -34 l 1
 304 3 l 1
455 916 m 1
 542 892 l 1
 516 796 l 1
 531 802 l 1
 570 710 l 1
 484 674 l 1
 440 512 l 1
 570 458 l 1
 531 365 l 1
 414 414 l 1
 390 325 l 1
 570 325 l 1
 570 225 l 1
 363 225 l 1
 330 100 l 1
 570 -1 l 1
 570 -67 l 1
 249 -202 l 1
 205 -366 l 1
 118 -342 l 1
 144 -246 l 1
 129 -252 l 1
 90 -160 l 1
 176 -124 l 1
 220 38 l 1
 90 92 l 1
 129 185 l 1
 246 136 l 1
 270 225 l 1
 90 225 l 1
 90 325 l 1
 297 325 l 1
 330 450 l 1
 90 551 l 1
 90 617 l 1
 411 752 l 1
 455 916 l 1
EndSplineSet
EndChar

StartChar: uni22DB0338
Encoding: 155 -1 155
Width: 660
Flags: W
HStem: 225 100<90 270 390 570>
LayerCount: 2
Back
Fore
SplineSet
429 819 m 1
 516 796 l 1
 478 655 l 1
 570 617 l 1
 570 551 l 1
 435 494 l 1
 390 325 l 1
 570 325 l 1
 570 225 l 1
 363 225 l 1
 330 100 l 1
 531 185 l 1
 570 92 l 1
 297 -22 l 1
 291 -43 l 1
 570 -160 l 1
 531 -252 l 1
 265 -141 l 1
 231 -269 l 1
 144 -246 l 1
 182 -105 l 1
 90 -67 l 1
 90 -1 l 1
 225 56 l 1
 270 225 l 1
 90 225 l 1
 90 325 l 1
 297 325 l 1
 330 450 l 1
 129 365 l 1
 90 458 l 1
 363 572 l 1
 369 593 l 1
 90 710 l 1
 129 802 l 1
 395 691 l 1
 429 819 l 1
EndSplineSet
EndChar

StartChar: uni2A8B0338
Encoding: 156 -1 156
Width: 660
Flags: W
HStem: 129 100<90 244 364 570> 321 100<90 296 416 570>
LayerCount: 2
Back
Fore
SplineSet
380 634 m 1
 408 738 l 1
 269 680 l 1
 380 634 l 1
280 -84 m 1
 252 -188 l 1
 391 -130 l 1
 280 -84 l 1
481 1012 m 1
 568 989 l 1
 539 880 l 1
 570 806 l 1
 512 782 l 1
 463 599 l 1
 570 554 l 1
 531 462 l 1
 437 501 l 1
 416 421 l 1
 570 421 l 1
 570 321 l 1
 389 321 l 1
 364 229 l 1
 570 229 l 1
 570 129 l 1
 337 129 l 1
 306 14 l 1
 570 -97 l 1
 570 -163 l 1
 220 -311 l 1
 179 -462 l 1
 92 -439 l 1
 121 -330 l 1
 90 -256 l 1
 148 -232 l 1
 197 -49 l 1
 90 -4 l 1
 129 88 l 1
 223 49 l 1
 244 129 l 1
 90 129 l 1
 90 229 l 1
 271 229 l 1
 296 321 l 1
 90 321 l 1
 90 421 l 1
 323 421 l 1
 354 536 l 1
 90 647 l 1
 90 713 l 1
 440 861 l 1
 481 1012 l 1
EndSplineSet
EndChar

StartChar: uni2A8C0338
Encoding: 157 -1 157
Width: 660
Flags: W
HStem: 129 100<90 244 364 570> 321 100<90 296 416 570>
LayerCount: 2
Back
Fore
SplineSet
455 916 m 1
 542 892 l 1
 502 742 l 1
 570 713 l 1
 570 647 l 1
 465 603 l 1
 416 421 l 1
 570 421 l 1
 570 321 l 1
 389 321 l 1
 364 229 l 1
 570 229 l 1
 570 129 l 1
 338 129 l 1
 301 -9 l 1
 531 88 l 1
 570 -4 l 1
 269 -130 l 1
 570 -256 l 1
 531 -349 l 1
 242 -227 l 1
 205 -366 l 1
 118 -342 l 1
 158 -192 l 1
 90 -163 l 1
 90 -97 l 1
 195 -53 l 1
 244 129 l 1
 90 129 l 1
 90 229 l 1
 271 229 l 1
 296 321 l 1
 90 321 l 1
 90 421 l 1
 322 421 l 1
 359 559 l 1
 129 462 l 1
 90 554 l 1
 391 680 l 1
 90 806 l 1
 129 899 l 1
 418 777 l 1
 455 916 l 1
EndSplineSet
EndChar

StartChar: uni22DA0338.alt
Encoding: 158 -1 158
Width: 660
Flags: W
HStem: -226 21G<120.522 152>
LayerCount: 2
Back
Fore
SplineSet
350 524 m 1
 370 600 l 1
 269 558 l 1
 350 524 l 1
310 26 m 1
 290 -50 l 1
 391 -8 l 1
 310 26 l 1
448 890 m 1
 535 866 l 1
 508 766 l 1
 531 776 l 1
 570 684 l 1
 476 645 l 1
 434 488 l 1
 570 431 l 1
 531 339 l 1
 408 391 l 1
 385 306 l 1
 570 228 l 1
 531 136 l 1
 359 209 l 1
 336 124 l 1
 570 26 l 1
 570 -41 l 1
 257 -172 l 1
 212 -340 l 1
 125 -316 l 1
 152 -216 l 1
 129 -226 l 1
 90 -134 l 1
 184 -95 l 1
 226 62 l 1
 90 119 l 1
 129 211 l 1
 252 159 l 1
 275 244 l 1
 90 322 l 1
 129 414 l 1
 301 341 l 1
 324 426 l 1
 90 524 l 1
 90 591 l 1
 403 722 l 1
 448 890 l 1
EndSplineSet
EndChar

StartChar: uni22DB0338.alt
Encoding: 159 -1 159
Width: 660
Flags: W
HStem: -226 21G<483.477 539.478>
LayerCount: 2
Back
Fore
SplineSet
422 793 m 1
 509 770 l 1
 472 632 l 1
 570 591 l 1
 570 524 l 1
 427 464 l 1
 399 358 l 1
 531 414 l 1
 570 322 l 1
 366 236 l 1
 338 130 l 1
 531 211 l 1
 570 119 l 1
 305 7 l 1
 298 -20 l 1
 570 -134 l 1
 531 -226 l 1
 272 -117 l 1
 238 -243 l 1
 151 -220 l 1
 188 -82 l 1
 90 -41 l 1
 90 26 l 1
 233 86 l 1
 261 192 l 1
 129 136 l 1
 90 228 l 1
 294 314 l 1
 322 420 l 1
 129 339 l 1
 90 431 l 1
 355 543 l 1
 362 570 l 1
 90 684 l 1
 129 776 l 1
 388 667 l 1
 422 793 l 1
EndSplineSet
EndChar

StartChar: uni226A0338
Encoding: 160 58059 160
Width: 1145
Flags: W
HStem: -2 21G<584.882 638.011 970 1023.01> 532 20G<970.024 1023.01>
LayerCount: 2
Back
Fore
SplineSet
543 338 m 1
 563 412 l 1
 261 275 l 1
 497 168 l 1
 513 226 l 1
 475 243 l 1
 475 307 l 1
 543 338 l 1
631 667 m 1
 718 644 l 1
 669 462 l 1
 670 461 l 1
 669 460 l 1
 649 386 l 1
 1014 552 l 1
 1055 461 l 1
 646 275 l 1
 1055 89 l 1
 1014 -2 l 1
 596 188 l 1
 580 130 l 1
 670 89 l 1
 629 -2 l 1
 554 32 l 1
 514 -117 l 1
 427 -94 l 1
 471 70 l 1
 90 243 l 1
 90 307 l 1
 596 537 l 1
 631 667 l 1
EndSplineSet
EndChar

StartChar: uni226B0338
Encoding: 161 58060 161
Width: 1145
Flags: W
HStem: -2 21G<121.989 174.976> 532 20G<121.989 175 506.989 560.118>
LayerCount: 2
Back
Fore
SplineSet
602 212 m 1
 582 138 l 1
 884 275 l 1
 648 382 l 1
 632 324 l 1
 670 307 l 1
 670 243 l 1
 602 212 l 1
631 667 m 1
 718 644 l 1
 674 480 l 1
 1055 307 l 1
 1055 243 l 1
 549 13 l 1
 514 -117 l 1
 427 -94 l 1
 476 88 l 1
 475 89 l 1
 476 90 l 1
 496 164 l 1
 131 -2 l 1
 90 89 l 1
 499 275 l 1
 90 461 l 1
 131 552 l 1
 549 362 l 1
 565 420 l 1
 475 461 l 1
 516 552 l 1
 591 518 l 1
 631 667 l 1
EndSplineSet
EndChar

StartChar: uni22D80338
Encoding: 162 58061 162
Width: 1530
Flags: W
HStem: -2 21G<602 638.011 969.971 1023.01 1355 1408.01> 532 20G<585 638.011 1355 1408.01>
LayerCount: 2
Back
Fore
SplineSet
690 255 m 1
 743 319 l 1
 646 275 l 1
 690 255 l 1
1399 552 m 1
 1440 461 l 1
 1031 275 l 1
 1440 89 l 1
 1399 -2 l 1
 860 243 l 1
 860 307 l 1
 1399 552 l 1
1042 675 m 1
 1111 617 l 1
 1029 519 l 1
 1055 461 l 1
 934 406 l 1
 775 216 l 1
 1055 89 l 1
 1014 -2 l 1
 708 137 l 1
 668 90 l 1
 670 89 l 1
 629 -2 l 1
 602 10 l 1
 488 -125 l 1
 419 -67 l 1
 517 49 l 1
 90 243 l 1
 90 307 l 1
 629 552 l 1
 670 461 l 1
 261 275 l 1
 583 128 l 1
 623 176 l 1
 475 243 l 1
 475 307 l 1
 892 497 l 1
 1042 675 l 1
EndSplineSet
EndChar

StartChar: uni22D90338
Encoding: 163 58062 163
Width: 1530
Flags: W
HStem: -2 21G<121.989 175 891.989 945> 532 20G<121.989 175 506.989 560.029 891.989 928>
LayerCount: 2
Back
Fore
SplineSet
840 295 m 1
 787 231 l 1
 884 275 l 1
 840 295 l 1
131 -2 m 1
 90 89 l 1
 499 275 l 1
 90 461 l 1
 131 552 l 1
 670 307 l 1
 670 243 l 1
 131 -2 l 1
1042 675 m 1
 1111 617 l 1
 1013 501 l 1
 1440 307 l 1
 1440 243 l 1
 901 -2 l 1
 860 89 l 1
 1269 275 l 1
 947 422 l 1
 907 374 l 1
 1055 307 l 1
 1055 243 l 1
 638 53 l 1
 488 -125 l 1
 419 -67 l 1
 501 31 l 1
 475 89 l 1
 596 144 l 1
 755 334 l 1
 475 461 l 1
 516 552 l 1
 822 413 l 1
 862 460 l 1
 860 461 l 1
 901 552 l 1
 928 540 l 1
 1042 675 l 1
EndSplineSet
EndChar

StartChar: uni22EA
Encoding: 164 8938 164
Width: 660
Flags: W
HStem: 526 20G<485.583 554.793>
VStem: 470 100<148 402>
LayerCount: 2
Back
Fore
SplineSet
278 255 m 1
 291 302 l 1
 242 275 l 1
 278 255 l 1
470 148 m 1
 470 402 l 1
 400 363 l 1
 359 210 l 1
 470 148 l 1
388 667 m 1
 475 644 l 1
 436 498 l 1
 521 546 l 1
 570 517 l 1
 570 33 l 1
 521 4 l 1
 333 110 l 1
 272 -117 l 1
 185 -94 l 1
 252 155 l 1
 90 246 l 1
 90 304 l 1
 327 437 l 1
 388 667 l 1
EndSplineSet
EndChar

StartChar: uni22EB
Encoding: 165 8939 165
Width: 660
Flags: W
HStem: 526 20G<105.207 174.472>
VStem: 90 100<148 402>
LayerCount: 2
Back
Fore
SplineSet
382 295 m 1
 369 248 l 1
 418 275 l 1
 382 295 l 1
190 402 m 1
 190 148 l 1
 260 187 l 1
 301 340 l 1
 190 402 l 1
388 667 m 1
 475 644 l 1
 408 395 l 1
 570 304 l 1
 570 246 l 1
 333 113 l 1
 272 -117 l 1
 185 -94 l 1
 224 52 l 1
 139 4 l 1
 90 33 l 1
 90 517 l 1
 139 546 l 1
 327 440 l 1
 388 667 l 1
EndSplineSet
EndChar

StartChar: uni22EC
Encoding: 166 8940 166
Width: 660
Flags: W
HStem: -20 100<90 204 324 570>
VStem: 470 100<146 147 255 423>
LayerCount: 2
Back
Fore
SplineSet
297 327 m 1
 305 354 l 1
 269 339 l 1
 297 327 l 1
470 255 m 1
 470 423 l 1
 409 398 l 1
 381 292 l 1
 470 255 l 1
398 703 m 1
 485 680 l 1
 442 521 l 1
 531 558 l 1
 570 532 l 1
 570 146 l 1
 531 121 l 1
 470 146 l 1
 470 147 l 1
 355 195 l 1
 324 80 l 1
 570 80 l 1
 570 -20 l 1
 298 -20 l 1
 262 -153 l 1
 175 -130 l 1
 204 -20 l 1
 90 -20 l 1
 90 80 l 1
 231 80 l 1
 271 230 l 1
 90 306 l 1
 90 372 l 1
 337 476 l 1
 398 703 l 1
EndSplineSet
EndChar

StartChar: uni22ED
Encoding: 167 8941 167
Width: 660
Flags: W
HStem: -20 100<90 204 324 570>
VStem: 90 100<146 147 255 423>
LayerCount: 2
Back
Fore
SplineSet
190 423 m 1
 190 255 l 1
 289 296 l 1
 310 373 l 1
 190 423 l 1
398 703 m 1
 485 680 l 1
 420 435 l 1
 570 372 l 1
 570 306 l 1
 361 219 l 1
 324 80 l 1
 570 80 l 1
 570 -20 l 1
 298 -20 l 1
 262 -153 l 1
 175 -130 l 1
 204 -20 l 1
 90 -20 l 1
 90 80 l 1
 231 80 l 1
 257 174 l 1
 190 147 l 1
 190 146 l 1
 129 121 l 1
 90 146 l 1
 90 532 l 1
 129 558 l 1
 336 471 l 1
 398 703 l 1
EndSplineSet
EndChar

StartChar: uni2AA60338
Encoding: 168 -1 168
Width: 717
Flags: W
HStem: 526 20G<485.828 532.364>
VStem: 518 100<168.405 381.595>
LayerCount: 2
Back
Fore
SplineSet
303 241 m 1
 324 321 l 1
 242 275 l 1
 303 241 l 1
483 141 m 1
 507 183 518 229 518 275 c 0
 518 321 507 367 483 409 c 1
 434 382 l 1
 384 196 l 1
 483 141 l 1
417 667 m 1
 504 644 l 1
 470 517 l 1
 521 546 l 1
 546 502 l 1
 570 458 l 2
 602 401 618 338 618 275 c 0
 618 212 602 149 570 92 c 2
 546 48 l 1
 521 4 l 1
 357 96 l 1
 300 -117 l 1
 213 -94 l 1
 276 141 l 1
 90 246 l 1
 90 304 l 1
 360 456 l 1
 417 667 l 1
EndSplineSet
EndChar

StartChar: uni2AA70338
Encoding: 169 -1 169
Width: 717
Flags: W
HStem: 526 20G<187 230.87>
VStem: 99 100<169.369 380.631>
LayerCount: 2
Back
Fore
SplineSet
414 309 m 1
 393 230 l 1
 474 275 l 1
 414 309 l 1
234 409 m 1
 211 367 199 322 199 275 c 0
 199 228 211 183 234 141 c 1
 283 168 l 1
 333 354 l 1
 234 409 l 1
417 667 m 1
 504 644 l 1
 441 408 l 1
 627 304 l 1
 627 246 l 1
 357 95 l 1
 300 -117 l 1
 213 -94 l 1
 247 33 l 1
 195 4 l 1
 179 33 163 63 147 92 c 0
 115 149 99 212 99 275 c 0
 99 338 115 401 147 458 c 0
 163 487 179 517 195 546 c 1
 360 454 l 1
 417 667 l 1
EndSplineSet
EndChar

StartChar: uni2AA80338
Encoding: 170 -1 170
Width: 698
Flags: W
VStem: 485 101<286.48 455.52>
LayerCount: 2
Back
Fore
SplineSet
322 349 m 1
 336 399 l 1
 269 371 l 1
 322 349 l 1
474 285 m 1
 481 313 485 342 485 371 c 0
 485 400 481 429 474 457 c 1
 440 443 l 1
 406 314 l 1
 474 285 l 1
417 703 m 1
 504 680 l 1
 473 566 l 1
 531 590 l 1
 550 544 l 1
 551 544 l 1
 554 537 556 530 559 523 c 2
 570 497 l 1
 568 496 l 1
 580 455 586 413 586 371 c 0
 586 329 580 287 568 246 c 1
 570 245 l 1
 558 216 l 2
 556 210 553 205 551 199 c 1
 531 153 l 1
 380 216 l 1
 360 141 l 1
 570 53 l 1
 531 -40 l 1
 334 43 l 1
 281 -153 l 1
 194 -130 l 1
 250 79 l 1
 90 146 l 1
 129 238 l 1
 276 176 l 1
 296 252 l 1
 90 338 l 1
 90 404 l 1
 368 521 l 1
 417 703 l 1
EndSplineSet
EndChar

StartChar: uni2AA90338
Encoding: 171 -1 171
Width: 698
Flags: W
VStem: 114 99<286.48 455.52>
LayerCount: 2
Back
Fore
SplineSet
422 374 m 1
 420 367 l 1
 429 371 l 1
 422 374 l 1
224 457 m 1
 217 429 213 400 213 371 c 0
 213 342 217 313 224 285 c 1
 315 323 l 1
 338 409 l 1
 224 457 l 1
417 703 m 1
 504 680 l 1
 448 471 l 1
 608 404 l 1
 608 338 l 1
 388 246 l 1
 362 151 l 1
 570 238 l 1
 608 146 l 1
 330 29 l 1
 281 -153 l 1
 194 -130 l 1
 225 -16 l 1
 167 -40 l 1
 128 53 l 1
 258 107 l 1
 283 202 l 1
 167 153 l 1
 128 245 l 1
 131 246 l 1
 119 287 114 329 114 371 c 0
 114 413 119 455 131 496 c 1
 128 497 l 1
 167 590 l 1
 364 507 l 1
 417 703 l 1
EndSplineSet
EndChar

StartChar: uni228F0338
Encoding: 172 58884 172
Width: 660
Flags: W
HStem: -16 100<190 206 326 570> 466 100<190 334 454 570> 695 20G<395.631 476.652>
VStem: 90 100<84 466>
LayerCount: 2
Back
Fore
SplineSet
190 84 m 1
 232 84 l 1
 334 466 l 1
 190 466 l 1
 190 84 l 1
401 715 m 1
 488 692 l 1
 454 566 l 1
 570 566 l 1
 570 466 l 1
 428 466 l 1
 326 84 l 1
 570 84 l 1
 570 -16 l 1
 299 -16 l 1
 259 -165 l 1
 172 -142 l 1
 206 -16 l 1
 90 -16 l 1
 90 566 l 1
 361 566 l 1
 401 715 l 1
EndSplineSet
EndChar

StartChar: uni22900338
Encoding: 173 58901 173
Width: 660
Flags: W
HStem: -16 100<90 206 326 470> 466 100<90 334 454 470> 695 20G<395.631 476.652>
VStem: 470 100<84 466>
LayerCount: 2
Back
Fore
SplineSet
470 84 m 1
 470 466 l 1
 428 466 l 1
 326 84 l 1
 470 84 l 1
401 715 m 1
 488 692 l 1
 454 566 l 1
 570 566 l 1
 570 -16 l 1
 299 -16 l 1
 259 -165 l 1
 172 -142 l 1
 206 -16 l 1
 90 -16 l 1
 90 84 l 1
 232 84 l 1
 334 466 l 1
 90 466 l 1
 90 566 l 1
 361 566 l 1
 401 715 l 1
EndSplineSet
EndChar

StartChar: uni22E2
Encoding: 174 8930 174
Width: 660
Flags: W
HStem: -52 100<90 196 316 570> 141 100<190 248 367 570> 502 100<190 344 464 570>
VStem: 90 100<241 502>
LayerCount: 2
Back
Fore
SplineSet
190 241 m 1
 274 241 l 1
 344 502 l 1
 190 502 l 1
 190 241 l 1
411 751 m 1
 498 728 l 1
 464 602 l 1
 570 602 l 1
 570 502 l 1
 437 502 l 1
 367 241 l 1
 570 241 l 1
 570 141 l 1
 341 141 l 1
 316 48 l 1
 570 48 l 1
 570 -52 l 1
 289 -52 l 1
 249 -201 l 1
 162 -178 l 1
 196 -52 l 1
 90 -52 l 1
 90 48 l 1
 223 48 l 1
 248 141 l 1
 90 141 l 1
 90 602 l 1
 371 602 l 1
 411 751 l 1
EndSplineSet
EndChar

StartChar: uni22E3
Encoding: 175 8931 175
Width: 660
Flags: W
HStem: -52 100<90 196 316 570> 141 100<90 248 367 470> 502 100<90 344 464 470>
VStem: 470 100<241 502>
LayerCount: 2
Back
Fore
SplineSet
470 241 m 1
 470 502 l 1
 437 502 l 1
 367 241 l 1
 470 241 l 1
411 751 m 1
 498 728 l 1
 464 602 l 1
 570 602 l 1
 570 141 l 1
 341 141 l 1
 316 48 l 1
 570 48 l 1
 570 -52 l 1
 289 -52 l 1
 249 -201 l 1
 162 -178 l 1
 196 -52 l 1
 90 -52 l 1
 90 48 l 1
 223 48 l 1
 248 141 l 1
 90 141 l 1
 90 241 l 1
 274 241 l 1
 344 502 l 1
 90 502 l 1
 90 602 l 1
 371 602 l 1
 411 751 l 1
EndSplineSet
EndChar

StartChar: sym021_uni0338
Encoding: 176 -1 176
Width: 660
Flags: W
HStem: -148 100<90 170 290 570> 45 100<90 222 342 570> 237 100<190 273 393 570> 598 100<190 370 490 570>
VStem: 90 480<-148 -48 45 145 237 337 598 698> 90 100<337 598>
LayerCount: 2
Back
Fore
SplineSet
190 337 m 1xf4
 300 337 l 1
 370 598 l 1
 190 598 l 1
 190 337 l 1xf4
424 799 m 1
 511 776 l 1
 490 698 l 1
 570 698 l 1
 570 598 l 1
 463 598 l 1
 393 337 l 1
 570 337 l 1
 570 237 l 1
 366 237 l 1
 342 145 l 1
 570 145 l 1
 570 45 l 1
 315 45 l 1
 290 -48 l 1
 570 -48 l 1
 570 -148 l 1
 263 -148 l 1
 236 -249 l 1
 149 -226 l 1
 170 -148 l 1
 90 -148 l 1
 90 -48 l 1
 197 -48 l 1
 222 45 l 1
 90 45 l 1
 90 145 l 1
 249 145 l 1
 273 237 l 1
 90 237 l 1
 90 698 l 1xf8
 397 698 l 1
 424 799 l 1
EndSplineSet
EndChar

StartChar: sym022_uni0338
Encoding: 177 -1 177
Width: 660
Flags: W
HStem: -148 100<90 170 290 570> 45 100<90 222 342 570> 237 100<90 273 393 470> 598 100<90 370>
VStem: 90 480<-148 -48 45 145 237 337 598 698> 470 100<337 598>
LayerCount: 2
Back
Fore
SplineSet
470 337 m 1xf4
 470 598 l 1
 463 598 l 1
 393 337 l 1
 470 337 l 1xf4
424 799 m 1
 511 776 l 1
 490 698 l 1
 570 698 l 1
 570 237 l 1
 366 237 l 1
 342 145 l 1
 570 145 l 1
 570 45 l 1
 315 45 l 1
 290 -48 l 1
 570 -48 l 1
 570 -148 l 1
 263 -148 l 1
 236 -249 l 1
 149 -226 l 1
 170 -148 l 1
 90 -148 l 1
 90 -48 l 1
 197 -48 l 1
 222 45 l 1
 90 45 l 1
 90 145 l 1
 249 145 l 1
 273 237 l 1
 90 237 l 1
 90 337 l 1
 300 337 l 1
 370 598 l 1
 90 598 l 1
 90 698 l 1xf8
 397 698 l 1
 424 799 l 1
EndSplineSet
EndChar

StartChar: sym023_uni0338
Encoding: 178 -1 178
Width: 660
Flags: W
HStem: -16 100<190 206 326 570> 129 100<364 570> 321 100<416 570> 466 100<190 334 454 570> 695 20G<395.631 476.652>
VStem: 90 100<84 466>
LayerCount: 2
Back
Fore
SplineSet
244 129 m 1
 234 129 l 1
 234 421 l 1
 322 421 l 1
 334 466 l 1
 190 466 l 1
 190 84 l 1
 232 84 l 1
 244 129 l 1
401 715 m 1
 488 692 l 1
 454 566 l 1
 570 566 l 1
 570 466 l 1
 428 466 l 1
 416 421 l 1
 570 421 l 1
 570 321 l 1
 389 321 l 1
 364 229 l 1
 570 229 l 1
 570 129 l 1
 338 129 l 1
 326 84 l 1
 570 84 l 1
 570 -16 l 1
 299 -16 l 1
 259 -165 l 1
 172 -142 l 1
 206 -16 l 1
 90 -16 l 1
 90 566 l 1
 361 566 l 1
 401 715 l 1
EndSplineSet
EndChar

StartChar: sym024_uni0338
Encoding: 179 -1 179
Width: 660
Flags: W
HStem: -16 100<90 206 326 470> 129 100<90 244> 321 100<90 296> 466 100<90 334 454 470> 695 20G<395.631 476.652>
VStem: 470 100<84 466>
LayerCount: 2
Back
Fore
SplineSet
338 129 m 1
 326 84 l 1
 470 84 l 1
 470 466 l 1
 428 466 l 1
 416 421 l 1
 426 421 l 1
 426 129 l 1
 338 129 l 1
401 715 m 1
 488 692 l 1
 454 566 l 1
 570 566 l 1
 570 -16 l 1
 299 -16 l 1
 259 -165 l 1
 172 -142 l 1
 206 -16 l 1
 90 -16 l 1
 90 84 l 1
 232 84 l 1
 244 129 l 1
 90 129 l 1
 90 229 l 1
 271 229 l 1
 296 321 l 1
 90 321 l 1
 90 421 l 1
 322 421 l 1
 334 466 l 1
 90 466 l 1
 90 566 l 1
 361 566 l 1
 401 715 l 1
EndSplineSet
EndChar

StartChar: notsubset
Encoding: 180 8836 180
Width: 660
Flags: W
HStem: -16 100<326.328 570> 466 100<268.068 334 454 570> 695 20G<395.631 476.652>
VStem: 90 100<173.335 378.086>
LayerCount: 2
Back
Fore
SplineSet
243 124 m 1
 334 466 l 1
 332 466 l 2
 243 466 190 372 190 275 c 0
 190 217 209 160 243 124 c 1
401 715 m 1
 488 692 l 1
 454 566 l 1
 570 566 l 1
 570 466 l 1
 428 466 l 1
 326 84 l 1
 328 84 330 84 332 84 c 2
 570 84 l 1
 570 -16 l 1
 332 -16 l 2
 321 -16 310 -16 299 -14 c 1
 259 -165 l 1
 172 -142 l 1
 215 19 l 1
 138 70 90 169 90 275 c 0
 90 427 188 566 332 566 c 2
 361 566 l 1
 401 715 l 1
EndSplineSet
EndChar

StartChar: uni2285
Encoding: 181 8837 181
Width: 660
Flags: W
HStem: -16 100<90 206 326 391.932> 466 100<90 333.672> 695 20G<395.702 476.652>
VStem: 470 100<171.914 376.665>
LayerCount: 2
Back
Fore
SplineSet
417 426 m 1
 326 84 l 1
 328 84 l 2
 417 84 470 178 470 275 c 0
 470 333 451 390 417 426 c 1
401 715 m 1
 488 692 l 1
 445 531 l 1
 522 480 570 381 570 275 c 0
 570 123 472 -16 328 -16 c 2
 299 -16 l 1
 259 -165 l 1
 172 -142 l 1
 206 -16 l 1
 90 -16 l 1
 90 84 l 1
 232 84 l 1
 334 466 l 1
 332 466 330 466 328 466 c 2
 90 466 l 1
 90 566 l 1
 328 566 l 2
 339 566 350 566 361 564 c 1
 401 715 l 1
EndSplineSet
EndChar

StartChar: uni2288
Encoding: 182 8840 182
Width: 660
Flags: W
HStem: -52 100<90 196 316 570> 141 100<230.589 248 367 570> 502 100<232.895 344 464 570>
VStem: 90 100<286.914 454.776>
LayerCount: 2
Back
Fore
SplineSet
274 242 m 1
 344 502 l 1
 284 502 l 2
 224 502 190 437 190 371 c 0
 190 309 220 248 274 242 c 1
411 751 m 1
 498 728 l 1
 464 602 l 1
 570 602 l 1
 570 502 l 1
 437 502 l 1
 367 241 l 1
 570 241 l 1
 570 141 l 1
 341 141 l 1
 316 48 l 1
 570 48 l 1
 570 -52 l 1
 289 -52 l 1
 249 -201 l 1
 162 -178 l 1
 196 -52 l 1
 90 -52 l 1
 90 48 l 1
 223 48 l 1
 248 145 l 1
 153 165 90 263 90 371 c 0
 90 492 169 602 284 602 c 2
 371 602 l 1
 411 751 l 1
EndSplineSet
EndChar

StartChar: uni2289
Encoding: 183 8841 183
Width: 660
Flags: W
HStem: -52 100<90 196 316 570> 141 100<90 248 367 427.105> 502 100<90 344>
VStem: 470 100<287.52 455.633>
LayerCount: 2
Back
Fore
SplineSet
431 479 m 1
 367 241 l 1
 376 241 l 2
 436 241 470 305 470 371 c 0
 470 413 456 454 431 479 c 1
411 751 m 1
 498 728 l 1
 459 581 l 1
 528 543 570 460 570 371 c 0
 570 250 491 141 376 141 c 2
 341 141 l 1
 316 48 l 1
 570 48 l 1
 570 -52 l 1
 289 -52 l 1
 249 -201 l 1
 162 -178 l 1
 196 -52 l 1
 90 -52 l 1
 90 48 l 1
 223 48 l 1
 248 141 l 1
 90 141 l 1
 90 241 l 1
 274 241 l 1
 344 502 l 1
 90 502 l 1
 90 602 l 1
 371 602 l 1
 411 751 l 1
EndSplineSet
EndChar

StartChar: uni2AC50338
Encoding: 184 58030 184
Width: 660
Flags: W
HStem: -148 100<90 170 290 570> 45 100<90 222 342 570> 237 100<233.842 273 393 570> 598 100<232.895 370 490 570>
VStem: 90 100<382.29 551.181>
LayerCount: 2
Back
Fore
SplineSet
300 337 m 1
 370 598 l 1
 284 598 l 2
 224 598 190 534 190 467 c 0
 190 401 224 337 284 337 c 2
 300 337 l 1
424 799 m 1
 511 776 l 1
 490 698 l 1
 570 698 l 1
 570 598 l 1
 463 598 l 1
 393 337 l 1
 570 337 l 1
 570 237 l 1
 366 237 l 1
 342 145 l 1
 570 145 l 1
 570 45 l 1
 315 45 l 1
 290 -48 l 1
 570 -48 l 1
 570 -148 l 1
 263 -148 l 1
 236 -249 l 1
 149 -226 l 1
 170 -148 l 1
 90 -148 l 1
 90 -48 l 1
 197 -48 l 1
 222 45 l 1
 90 45 l 1
 90 145 l 1
 249 145 l 1
 273 237 l 1
 164 244 90 350 90 467 c 0
 90 589 169 698 284 698 c 2
 397 698 l 1
 424 799 l 1
EndSplineSet
EndChar

StartChar: uni2AC60338
Encoding: 185 58032 185
Width: 660
Flags: W
HStem: -148 100<90 170 290 570> 45 100<90 222 342 570> 237 100<90 273> 598 100<90 370>
VStem: 470 100<383.993 549.318>
LayerCount: 2
Back
Fore
SplineSet
450 550 m 1
 394 339 l 1
 443 350 470 408 470 467 c 0
 470 497 463 527 450 550 c 1
424 799 m 1
 511 776 l 1
 481 663 l 1
 537 621 570 547 570 467 c 0
 570 346 491 237 376 237 c 2
 366 237 l 1
 342 145 l 1
 570 145 l 1
 570 45 l 1
 315 45 l 1
 290 -48 l 1
 570 -48 l 1
 570 -148 l 1
 263 -148 l 1
 236 -249 l 1
 149 -226 l 1
 170 -148 l 1
 90 -148 l 1
 90 -48 l 1
 197 -48 l 1
 222 45 l 1
 90 45 l 1
 90 145 l 1
 249 145 l 1
 273 237 l 1
 90 237 l 1
 90 337 l 1
 300 337 l 1
 370 598 l 1
 90 598 l 1
 90 698 l 1
 376 698 l 2
 383 698 390 698 397 697 c 1
 424 799 l 1
EndSplineSet
EndChar

StartChar: uni22D00338
Encoding: 186 -1 186
Width: 660
Flags: W
HStem: -16 100<326.328 570> 129 100<364 570> 321 100<416 570> 466 100<268.068 334 454 570> 695 20G<395.631 476.652>
VStem: 90 100<173.335 378.086>
LayerCount: 2
Back
Fore
SplineSet
321 415 m 1
 334 466 l 1
 332 466 l 2
 243 466 190 372 190 275 c 0
 190 217 209 160 243 124 c 1
 260 186 l 1
 244 211 234 242 234 275 c 0
 234 338 269 396 321 415 c 1
401 715 m 1
 488 692 l 1
 454 566 l 1
 570 566 l 1
 570 466 l 1
 428 466 l 1
 416 421 l 1
 570 421 l 1
 570 321 l 1
 389 321 l 1
 364 229 l 1
 570 229 l 1
 570 129 l 1
 357 129 l 2
 350 129 344 130 338 131 c 1
 326 84 l 1
 328 84 330 84 332 84 c 2
 570 84 l 1
 570 -16 l 1
 332 -16 l 2
 321 -16 310 -16 299 -14 c 1
 259 -165 l 1
 172 -142 l 1
 215 19 l 1
 138 70 90 169 90 275 c 0
 90 427 188 566 332 566 c 2
 361 566 l 1
 401 715 l 1
EndSplineSet
EndChar

StartChar: uni22D10338
Encoding: 187 -1 187
Width: 660
Flags: W
HStem: -16 100<90 206 326 391.932> 129 100<90 244> 321 100<90 296> 466 100<90 333.672> 695 20G<395.702 476.652>
VStem: 470 100<171.914 376.665>
LayerCount: 2
Back
Fore
SplineSet
339 135 m 1
 326 84 l 1
 328 84 l 2
 417 84 470 178 470 275 c 0
 470 333 451 390 417 426 c 1
 400 364 l 1
 416 339 426 308 426 275 c 0
 426 212 391 154 339 135 c 1
401 715 m 1
 488 692 l 1
 445 531 l 1
 522 480 570 381 570 275 c 0
 570 123 472 -16 328 -16 c 2
 299 -16 l 1
 259 -165 l 1
 172 -142 l 1
 206 -16 l 1
 90 -16 l 1
 90 84 l 1
 232 84 l 1
 244 129 l 1
 90 129 l 1
 90 229 l 1
 271 229 l 1
 296 321 l 1
 90 321 l 1
 90 421 l 1
 303 421 l 2
 310 421 316 420 322 419 c 1
 334 466 l 1
 332 466 330 466 328 466 c 2
 90 466 l 1
 90 566 l 1
 328 566 l 2
 339 566 350 566 361 564 c 1
 401 715 l 1
EndSplineSet
EndChar

StartChar: uni2280
Encoding: 188 8832 188
Width: 660
Flags: W
HStem: 0 21G<473 518.471> 225 100<90 246.082> 530 20G<486.5 518.471>
LayerCount: 2
Back
Fore
SplineSet
388 667 m 1
 475 644 l 1
 432 482 l 1
 454 504 476 527 497 550 c 1
 570 482 l 1
 513 421 453 360 387 313 c 1
 370 249 l 1
 443 200 508 134 570 68 c 1
 497 0 l 1
 449 52 399 106 343 148 c 1
 272 -117 l 1
 185 -94 l 1
 263 197 l 1
 225 215 184 225 140 225 c 2
 90 225 l 1
 90 325 l 1
 140 325 l 2
 203 325 260 347 312 380 c 1
 388 667 l 1
EndSplineSet
EndChar

StartChar: uni2281
Encoding: 189 8833 189
Width: 660
Flags: W
HStem: 0 21G<141.529 173.5> 225 100<413.918 570> 530 20G<141.529 187>
LayerCount: 2
Back
Fore
SplineSet
388 667 m 1
 475 644 l 1
 397 353 l 1
 435 335 476 325 520 325 c 2
 570 325 l 1
 570 225 l 1
 520 225 l 2
 457 225 400 203 348 170 c 1
 272 -117 l 1
 185 -94 l 1
 228 68 l 1
 206 46 184 23 163 0 c 1
 90 68 l 1
 147 129 207 190 273 237 c 1
 290 301 l 1
 217 350 152 416 90 482 c 1
 163 550 l 1
 211 498 261 444 317 402 c 1
 388 667 l 1
EndSplineSet
EndChar

StartChar: uni2AAF0338
Encoding: 190 58844 190
Width: 660
Flags: W
HStem: -20 100<90 204 324 570> 289 100<90 276.775> 534 20G<487.5 518.471>
LayerCount: 2
Back
Fore
SplineSet
398 703 m 1
 485 680 l 1
 436 498 l 1
 458 515 478 534 497 554 c 1
 570 486 l 1
 520 432 462 387 398 354 c 1
 391 328 l 1
 458 294 518 249 570 193 c 1
 497 125 l 1
 458 167 413 202 364 229 c 1
 324 80 l 1
 570 80 l 1
 570 -20 l 1
 298 -20 l 1
 262 -153 l 1
 175 -130 l 1
 204 -20 l 1
 90 -20 l 1
 90 80 l 1
 231 80 l 1
 281 266 l 1
 236 281 189 289 140 289 c 2
 90 289 l 1
 90 389 l 1
 140 389 l 2
 205 389 267 403 325 429 c 1
 398 703 l 1
EndSplineSet
EndChar

StartChar: uni2AB00338
Encoding: 191 58865 191
Width: 660
Flags: W
HStem: -20 100<90 204 324 570> 289 100<412.642 570> 534 20G<141.529 186.5>
LayerCount: 2
Back
Fore
SplineSet
398 703 m 1
 485 680 l 1
 411 403 l 1
 446 394 483 389 520 389 c 2
 570 389 l 1
 570 289 l 1
 520 289 l 2
 469 289 421 280 374 264 c 1
 324 80 l 1
 570 80 l 1
 570 -20 l 1
 298 -20 l 1
 262 -153 l 1
 175 -130 l 1
 204 -20 l 1
 90 -20 l 1
 90 80 l 1
 231 80 l 1
 267 212 l 1
 229 188 194 158 163 125 c 1
 90 193 l 1
 148 255 216 305 292 339 c 1
 216 373 148 424 90 486 c 1
 163 554 l 1
 210 504 265 463 326 434 c 1
 398 703 l 1
EndSplineSet
EndChar

StartChar: uni22E0
Encoding: 192 8928 192
Width: 660
Flags: W
HStem: 129 100<90 241.864> 321 100<90 275.679>
LayerCount: 2
Back
Fore
SplineSet
398 703 m 1
 485 680 l 1
 447 539 l 1
 465 554 481 569 497 586 c 1
 570 518 l 1
 523 467 468 424 408 391 c 1
 398 356 l 1
 462 323 520 278 570 225 c 1
 497 157 l 1
 460 197 418 230 372 257 c 1
 352 185 l 1
 418 148 478 92 534 33 c 1
 462 -34 l 1
 420 13 376 57 326 88 c 1
 262 -153 l 1
 175 -130 l 1
 243 123 l 1
 226 127 208 129 190 129 c 2
 90 129 l 1
 90 229 l 1
 190 229 l 2
 217 229 243 226 268 219 c 1
 289 295 l 1
 242 312 191 321 140 321 c 2
 90 321 l 1
 90 421 l 1
 140 421 l 2
 208 421 274 437 334 466 c 1
 398 703 l 1
EndSplineSet
EndChar

StartChar: uni22E1
Encoding: 193 8929 193
Width: 660
Flags: W
HStem: 129 100<370.924 570> 321 100<420.577 570>
LayerCount: 2
Back
Fore
SplineSet
398 703 m 1
 485 680 l 1
 419 433 l 1
 452 425 486 421 520 421 c 2
 570 421 l 1
 570 321 l 1
 520 321 l 2
 473 321 427 313 383 299 c 1
 359 208 l 1
 394 221 431 229 470 229 c 2
 570 229 l 1
 570 129 l 1
 470 129 l 2
 415 129 368 110 325 82 c 1
 262 -153 l 1
 175 -130 l 1
 202 -30 l 2
 201 -31 199 -33 198 -34 c 1
 126 33 l 1
 165 74 206 113 249 146 c 1
 277 251 l 1
 235 225 197 193 163 157 c 1
 90 225 l 1
 148 287 216 337 292 371 c 1
 216 405 148 456 90 518 c 1
 163 586 l 1
 212 534 269 491 333 462 c 1
 398 703 l 1
EndSplineSet
EndChar

StartChar: uni2AB30338
Encoding: 194 -1 194
Width: 660
Flags: W
HStem: -116 100<90 179 299 570> 77 100<90 230 350 570> 385 100<90 274.029>
LayerCount: 2
Back
Fore
SplineSet
415 767 m 1
 502 744 l 1
 469 622 l 1
 478 631 488 640 497 650 c 1
 570 582 l 1
 528 537 480 497 428 466 c 1
 413 412 l 1
 471 380 524 338 570 289 c 1
 497 221 l 1
 464 256 427 287 387 312 c 1
 350 177 l 1
 570 177 l 1
 570 77 l 1
 324 77 l 1
 299 -16 l 1
 570 -16 l 1
 570 -116 l 1
 272 -116 l 1
 245 -217 l 1
 158 -194 l 1
 179 -116 l 1
 90 -116 l 1
 90 -16 l 1
 206 -16 l 1
 230 77 l 1
 90 77 l 1
 90 177 l 1
 257 177 l 1
 304 354 l 1
 252 374 197 385 140 385 c 2
 90 385 l 1
 90 485 l 1
 140 485 l 2
 216 485 288 505 354 540 c 1
 415 767 l 1
EndSplineSet
EndChar

StartChar: uni2AB40338
Encoding: 195 -1 195
Width: 660
Flags: W
HStem: -116 100<90 179 299 570> 77 100<90 230 350 570> 385 100<436.313 570>
LayerCount: 2
Back
Fore
SplineSet
415 767 m 1
 502 744 l 1
 435 493 l 1
 463 488 491 485 520 485 c 2
 570 485 l 1
 570 385 l 1
 520 385 l 2
 479 385 440 379 402 369 c 1
 350 177 l 1
 570 177 l 1
 570 77 l 1
 324 77 l 1
 299 -16 l 1
 570 -16 l 1
 570 -116 l 1
 272 -116 l 1
 245 -217 l 1
 158 -194 l 1
 179 -116 l 1
 90 -116 l 1
 90 -16 l 1
 206 -16 l 1
 230 77 l 1
 90 77 l 1
 90 177 l 1
 257 177 l 1
 297 326 l 1
 247 299 202 263 163 221 c 1
 90 289 l 1
 148 351 216 401 292 435 c 1
 216 469 148 520 90 582 c 1
 163 650 l 1
 216 594 279 548 349 519 c 1
 415 767 l 1
EndSplineSet
EndChar

StartChar: uni227E0338
Encoding: 196 59446 196
Width: 660
Flags: W
HStem: -52 100<381.197 477.077> 321 100<90 275.679>
LayerCount: 2
Back
Fore
SplineSet
398 703 m 1
 485 680 l 1
 447 539 l 1
 465 554 481 569 497 586 c 1
 570 518 l 1
 523 467 468 424 408 391 c 1
 398 356 l 1
 462 323 520 278 570 225 c 1
 497 157 l 1
 460 197 418 230 372 257 c 1
 332 108 l 1
 342 101 352 93 362 85 c 0
 383 67 406 48 433 48 c 0
 467 48 487 81 511 105 c 1
 570 46 l 1
 528 5 493 -52 433 -52 c 0
 385 -52 342 -28 304 3 c 1
 262 -153 l 1
 175 -130 l 1
 222 45 l 1
 191 42 172 10 149 -12 c 1
 90 46 l 1
 132 88 168 145 227 145 c 0
 234 145 241 144 248 143 c 1
 289 295 l 1
 242 312 191 321 140 321 c 2
 90 321 l 1
 90 421 l 1
 140 421 l 2
 208 421 274 437 334 466 c 1
 398 703 l 1
EndSplineSet
EndChar

StartChar: uni227F0338
Encoding: 197 59447 197
Width: 660
Flags: W
HStem: -52 100<381.197 477.077> 321 100<420.577 570>
LayerCount: 2
Back
Fore
SplineSet
398 703 m 1
 485 680 l 1
 419 433 l 1
 452 425 486 421 520 421 c 2
 570 421 l 1
 570 321 l 1
 520 321 l 2
 473 321 427 313 383 299 c 1
 332 108 l 1
 342 101 352 93 362 85 c 0
 383 67 406 48 433 48 c 0
 467 48 487 81 511 105 c 1
 570 46 l 1
 528 5 493 -52 433 -52 c 0
 385 -52 342 -28 304 3 c 1
 262 -153 l 1
 175 -130 l 1
 222 45 l 1
 191 42 172 10 149 -12 c 1
 90 46 l 1
 132 88 168 145 227 145 c 0
 234 145 241 144 248 143 c 1
 277 251 l 1
 235 225 197 193 163 157 c 1
 90 225 l 1
 148 287 216 337 292 371 c 1
 216 405 148 456 90 518 c 1
 163 586 l 1
 212 534 269 491 333 462 c 1
 398 703 l 1
EndSplineSet
EndChar

StartChar: uni2AB70338
Encoding: 198 -1 198
Width: 660
Flags: W
HStem: -148 100<380.289 477.077> 45 100<380.667 477.077> 141 100<181.999 246.563> 417 100<90 273.966>
LayerCount: 2
Back
Fore
SplineSet
353 188 m 1xb0
 376 170 402 145 433 145 c 0
 467 145 487 178 511 202 c 1
 570 143 l 1
 528 101 493 45 433 45 c 0xd0
 393 45 357 61 325 83 c 1
 310 25 l 1
 329 15 346 2 362 -12 c 0
 383 -29 406 -48 433 -48 c 0
 467 -48 487 -15 511 9 c 1
 570 -50 l 1
 528 -92 493 -148 433 -148 c 0
 382 -148 337 -121 298 -88 c 0
 293 -84 288 -79 283 -75 c 1
 249 -201 l 1
 162 -178 l 1
 192 -65 l 1
 176 -77 164 -94 149 -109 c 1
 90 -50 l 1
 131 -9 167 45 223 48 c 1
 247 138 l 1
 241 140 234 141 227 141 c 0
 193 141 173 108 149 84 c 1
 90 143 l 1
 132 184 168 241 227 241 c 0
 243 241 257 239 272 234 c 1
 312 383 l 1
 258 405 200 417 140 417 c 2
 90 417 l 1
 90 517 l 1
 140 517 l 2
 220 517 296 539 364 577 c 1
 411 751 l 1
 498 728 l 1
 481 666 l 1
 486 671 492 676 497 682 c 1
 570 614 l 1
 531 572 486 535 438 505 c 1
 421 440 l 1
 476 408 526 368 570 321 c 1
 497 253 l 1
 466 286 432 316 394 340 c 1
 353 188 l 1xb0
EndSplineSet
EndChar

StartChar: uni2AB80338
Encoding: 199 -1 199
Width: 660
Flags: W
HStem: -148 100<380.289 477.077> 45 100<380.667 477.077> 141 100<181.999 246.563> 417 100<444.337 570>
LayerCount: 2
Back
Fore
SplineSet
353 188 m 1xb0
 376 170 402 145 433 145 c 0
 467 145 487 178 511 202 c 1
 570 143 l 1
 528 101 493 45 433 45 c 0xd0
 393 45 357 61 325 83 c 1
 310 25 l 1
 329 15 346 2 362 -12 c 0
 383 -29 406 -48 433 -48 c 0
 467 -48 487 -15 511 9 c 1
 570 -50 l 1
 528 -92 493 -148 433 -148 c 0
 382 -148 337 -121 298 -88 c 0
 293 -84 288 -79 283 -75 c 1
 249 -201 l 1
 162 -178 l 1
 192 -65 l 1
 176 -77 164 -94 149 -109 c 1
 90 -50 l 1
 131 -9 167 45 223 48 c 1
 247 138 l 1
 241 140 234 141 227 141 c 0
 193 141 173 108 149 84 c 1
 90 143 l 1
 132 184 168 241 227 241 c 0
 243 241 257 239 272 234 c 1
 307 364 l 1
 254 336 205 298 163 253 c 1
 90 321 l 1
 148 383 217 433 293 467 c 1
 217 501 148 552 90 614 c 1
 163 682 l 1
 217 623 284 577 357 548 c 1
 411 751 l 1
 498 728 l 1
 443 524 l 1
 468 520 494 517 520 517 c 2
 570 517 l 1
 570 417 l 1
 520 417 l 2
 483 417 446 412 411 403 c 1
 353 188 l 1xb0
EndSplineSet
EndChar

StartChar: uni22D60338
Encoding: 200 -1 200
Width: 660
Flags: W
HStem: 196 159<453.426 527.587> 526 20G<485.583 532.136>
VStem: 411 159<237.426 312.574>
LayerCount: 2
Back
Fore
SplineSet
278 255 m 1
 291 302 l 1
 242 275 l 1
 278 255 l 1
570 275 m 0
 570 259 552 241 538 227 c 0
 524 213 506 196 491 196 c 0
 475 196 457 213 443 227 c 0
 429 241 411 259 411 275 c 0
 411 291 429 309 443 323 c 0
 457 337 475 355 491 355 c 0
 506 355 524 337 538 323 c 0
 552 309 570 291 570 275 c 0
388 667 m 1
 475 644 l 1
 436 498 l 1
 521 546 l 1
 570 458 l 1
 400 363 l 1
 359 210 l 1
 570 92 l 1
 521 4 l 1
 333 110 l 1
 272 -117 l 1
 185 -94 l 1
 252 155 l 1
 90 246 l 1
 90 304 l 1
 327 437 l 1
 388 667 l 1
EndSplineSet
EndChar

StartChar: uni22D70338
Encoding: 201 -1 201
Width: 660
Flags: W
HStem: 196 159<132.426 206.587> 526 20G<127.864 174.472>
VStem: 90 159<237.426 312.574>
LayerCount: 2
Back
Fore
SplineSet
382 295 m 1
 369 248 l 1
 418 275 l 1
 382 295 l 1
249 275 m 0
 249 259 231 241 217 227 c 0
 203 213 185 196 170 196 c 0
 154 196 136 213 122 227 c 0
 108 241 90 259 90 275 c 0
 90 291 108 309 122 323 c 0
 136 337 154 355 170 355 c 0
 185 355 203 337 217 323 c 0
 231 309 249 291 249 275 c 0
388 667 m 1
 475 644 l 1
 408 395 l 1
 570 304 l 1
 570 246 l 1
 333 113 l 1
 272 -117 l 1
 185 -94 l 1
 224 52 l 1
 139 4 l 1
 90 92 l 1
 260 187 l 1
 301 340 l 1
 90 458 l 1
 139 546 l 1
 327 440 l 1
 388 667 l 1
EndSplineSet
EndChar

StartChar: sym025_uni0338
Encoding: 202 -1 202
Width: 660
Flags: W
HStem: -20 100<90 204 324 570> 260 159<453.426 527.587>
VStem: 411 159<301.838 376.574>
LayerCount: 2
Back
Fore
SplineSet
297 327 m 1
 305 354 l 1
 269 339 l 1
 297 327 l 1
570 339 m 0
 570 323 552 306 538 291 c 0
 524 277 506 260 491 260 c 0
 475 260 457 277 443 291 c 0
 429 306 411 323 411 339 c 0
 411 355 429 373 443 387 c 0
 457 401 475 419 491 419 c 0
 506 419 524 401 538 387 c 0
 552 373 570 355 570 339 c 0
398 703 m 1
 485 680 l 1
 442 521 l 1
 531 558 l 1
 570 465 l 1
 409 398 l 1
 381 292 l 1
 570 213 l 1
 531 121 l 1
 355 195 l 1
 324 80 l 1
 570 80 l 1
 570 -20 l 1
 298 -20 l 1
 262 -153 l 1
 175 -130 l 1
 204 -20 l 1
 90 -20 l 1
 90 80 l 1
 231 80 l 1
 271 230 l 1
 90 306 l 1
 90 372 l 1
 337 476 l 1
 398 703 l 1
EndSplineSet
EndChar

StartChar: sym026_uni0338
Encoding: 203 -1 203
Width: 660
Flags: W
HStem: -20 100<90 204 324 570> 260 159<132.426 206.587>
VStem: 90 159<301.838 376.574>
LayerCount: 2
Back
Fore
SplineSet
249 339 m 0
 249 323 231 306 217 291 c 0
 203 277 185 260 170 260 c 0
 154 260 136 277 122 291 c 0
 108 306 90 323 90 339 c 0
 90 355 108 373 122 387 c 0
 136 401 154 419 170 419 c 0
 185 419 203 401 217 387 c 0
 231 373 249 355 249 339 c 0
398 703 m 1
 485 680 l 1
 420 435 l 1
 570 372 l 1
 570 306 l 1
 361 219 l 1
 324 80 l 1
 570 80 l 1
 570 -20 l 1
 298 -20 l 1
 262 -153 l 1
 175 -130 l 1
 204 -20 l 1
 90 -20 l 1
 90 80 l 1
 231 80 l 1
 257 174 l 1
 129 121 l 1
 90 213 l 1
 289 296 l 1
 310 373 l 1
 90 465 l 1
 129 558 l 1
 336 471 l 1
 398 703 l 1
EndSplineSet
EndChar

StartChar: uni2A7F0338
Encoding: 204 -1 204
Width: 660
Flags: W
HStem: 292 159<453.426 527.587>
VStem: 411 159<334.287 408.574>
LayerCount: 2
Back
Fore
SplineSet
305 356 m 1
 314 390 l 1
 269 371 l 1
 305 356 l 1
570 371 m 0
 570 355 552 338 538 324 c 0
 524 309 506 292 491 292 c 0
 475 292 457 309 443 324 c 0
 429 338 411 355 411 371 c 0
 411 387 429 405 443 419 c 0
 457 433 475 451 491 451 c 0
 506 451 524 433 538 419 c 0
 552 405 570 387 570 371 c 0
398 703 m 1
 485 680 l 1
 452 557 l 1
 531 590 l 1
 570 497 l 1
 419 434 l 1
 389 321 l 1
 570 245 l 1
 531 153 l 1
 363 224 l 1
 343 148 l 1
 570 53 l 1
 531 -40 l 1
 316 50 l 1
 262 -153 l 1
 175 -130 l 1
 233 86 l 1
 90 146 l 1
 129 238 l 1
 259 183 l 1
 279 259 l 1
 90 338 l 1
 90 404 l 1
 347 512 l 1
 398 703 l 1
EndSplineSet
EndChar

StartChar: uni2A800338
Encoding: 205 -1 205
Width: 660
Flags: W
HStem: 292 159<132.426 206.587>
VStem: 90 159<334.287 408.574>
LayerCount: 2
Back
Fore
SplineSet
249 371 m 0
 249 355 231 338 217 324 c 0
 203 309 185 292 170 292 c 0
 154 292 136 309 122 324 c 0
 108 338 90 355 90 371 c 0
 90 387 108 405 122 419 c 0
 136 433 154 451 170 451 c 0
 185 451 203 433 217 419 c 0
 231 405 249 387 249 371 c 0
398 703 m 1
 485 680 l 1
 427 464 l 1
 570 404 l 1
 570 338 l 1
 371 255 l 1
 346 160 l 1
 531 238 l 1
 570 146 l 1
 313 38 l 1
 262 -153 l 1
 175 -130 l 1
 208 -7 l 1
 129 -40 l 1
 90 53 l 1
 241 116 l 1
 266 211 l 1
 129 153 l 1
 90 245 l 1
 299 332 l 1
 317 402 l 1
 90 497 l 1
 129 590 l 1
 344 500 l 1
 398 703 l 1
EndSplineSet
EndChar

StartChar: uni2A950338
Encoding: 206 60772 206
Width: 660
Flags: W
LayerCount: 2
Back
Fore
SplineSet
398 703 m 1
 485 680 l 1
 452 557 l 1
 531 590 l 1
 570 497 l 1
 419 434 l 1
 394 339 l 1
 531 397 l 1
 570 305 l 1
 361 218 l 1
 343 148 l 1
 570 53 l 1
 531 -40 l 1
 316 50 l 1
 262 -153 l 1
 175 -130 l 1
 233 86 l 1
 90 146 l 1
 90 212 l 1
 289 295 l 1
 314 390 l 1
 129 312 l 1
 90 404 l 1
 347 512 l 1
 398 703 l 1
EndSplineSet
EndChar

StartChar: uni2A960338
Encoding: 207 60773 207
Width: 660
Flags: W
LayerCount: 2
Back
Fore
SplineSet
355 194 m 1
 346 160 l 1
 391 179 l 1
 355 194 l 1
398 703 m 1
 485 680 l 1
 427 464 l 1
 570 404 l 1
 531 312 l 1
 401 367 l 1
 381 291 l 1
 570 212 l 1
 570 146 l 1
 313 38 l 1
 262 -153 l 1
 175 -130 l 1
 208 -7 l 1
 129 -40 l 1
 90 53 l 1
 241 116 l 1
 271 229 l 1
 90 305 l 1
 129 397 l 1
 297 326 l 1
 317 402 l 1
 90 497 l 1
 129 590 l 1
 344 500 l 1
 398 703 l 1
EndSplineSet
EndChar

StartChar: uni22DE0338
Encoding: 208 60796 208
Width: 660
Flags: W
HStem: 129 100<90 239.423> 321 100<90 289.076>
LayerCount: 2
Back
Fore
SplineSet
398 703 m 1
 485 680 l 1
 458 580 l 2
 459 581 461 583 462 584 c 1
 534 517 l 1
 495 476 454 437 411 404 c 1
 383 299 l 1
 425 325 463 357 497 393 c 1
 570 325 l 1
 512 263 444 213 368 179 c 1
 444 145 512 94 570 32 c 1
 497 -36 l 1
 448 16 391 59 327 88 c 1
 262 -153 l 1
 175 -130 l 1
 241 117 l 1
 208 125 174 129 140 129 c 2
 90 129 l 1
 90 229 l 1
 140 229 l 2
 187 229 233 237 277 251 c 1
 301 342 l 1
 266 329 229 321 190 321 c 2
 90 321 l 1
 90 421 l 1
 190 421 l 2
 245 421 292 440 335 468 c 1
 398 703 l 1
EndSplineSet
EndChar

StartChar: uni22DF0338
Encoding: 209 60797 209
Width: 660
Flags: W
HStem: 129 100<384.321 570> 321 100<418.136 570>
LayerCount: 2
Back
Fore
SplineSet
398 703 m 1
 485 680 l 1
 417 427 l 1
 434 423 452 421 470 421 c 2
 570 421 l 1
 570 321 l 1
 470 321 l 2
 443 321 417 324 392 331 c 1
 371 255 l 1
 418 238 469 229 520 229 c 2
 570 229 l 1
 570 129 l 1
 520 129 l 2
 452 129 386 113 326 84 c 1
 262 -153 l 1
 175 -130 l 1
 213 11 l 1
 195 -4 179 -19 163 -36 c 1
 90 32 l 1
 137 83 192 126 252 159 c 1
 262 194 l 1
 198 227 140 272 90 325 c 1
 163 393 l 1
 200 353 242 320 288 293 c 1
 308 365 l 1
 242 402 182 458 126 517 c 1
 198 584 l 1
 240 537 284 493 334 462 c 1
 398 703 l 1
EndSplineSet
EndChar

StartChar: uni2246
Encoding: 210 8774 210
Width: 660
Flags: W
HStem: 33 100<90 251 371 570> 225 100<90 302 422 570> 369 100<380.812 477.077> 466 100<181.999 279.188>
LayerCount: 2
Back
Fore
SplineSet
149 409 m 1xd0
 90 467 l 1
 132 509 168 566 227 566 c 0xd0
 278 566 323 539 362 506 c 0
 383 488 406 469 433 469 c 0
 467 469 487 502 511 526 c 1
 570 467 l 1
 528 426 493 369 433 369 c 0xe0
 382 369 337 396 298 429 c 0
 277 447 254 466 227 466 c 0
 193 466 173 433 149 409 c 1xd0
343 378 m 1
 430 355 l 1
 422 325 l 1
 570 325 l 1
 570 225 l 1
 395 225 l 1
 371 133 l 1
 570 133 l 1
 570 33 l 1
 344 33 l 1
 317 -69 l 1
 230 -46 l 1
 251 33 l 1
 90 33 l 1
 90 133 l 1
 278 133 l 1
 302 225 l 1
 90 225 l 1
 90 325 l 1
 329 325 l 1
 343 378 l 1
EndSplineSet
EndChar

StartChar: sym027
Encoding: 211 -1 211
Width: 660
Flags: W
HStem: 33 100<90 244 364 570> 225 100<90 296 416 570> 369 100<181.999 279.075> 466 100<381.754 477.077>
LayerCount: 2
Back
Fore
SplineSet
570 133 m 1xd0
 570 33 l 1
 337 33 l 1
 310 -69 l 1
 223 -46 l 1
 244 33 l 1
 90 33 l 1
 90 133 l 1
 271 133 l 1
 296 225 l 1
 90 225 l 1
 90 325 l 1
 323 325 l 1
 348 417 l 1
 312 389 272 369 227 369 c 0
 168 369 132 426 90 467 c 1
 149 526 l 1
 173 502 193 469 227 469 c 0xe0
 254 469 277 488 298 506 c 0
 337 539 382 566 433 566 c 0
 493 566 528 509 570 467 c 1
 511 409 l 1
 487 433 467 466 433 466 c 0
 403 466 378 442 356 424 c 1
 437 403 l 1
 416 325 l 1
 570 325 l 1
 570 225 l 1
 389 225 l 1
 364 133 l 1
 570 133 l 1xd0
EndSplineSet
EndChar

StartChar: uni2A87
Encoding: 212 10887 212
Width: 660
Flags: W
HStem: -20 100<90 270 390 570>
LayerCount: 2
Back
Fore
SplineSet
531 558 m 1
 570 465 l 1
 269 339 l 1
 570 213 l 1
 531 121 l 1
 90 306 l 1
 90 372 l 1
 531 558 l 1
324 182 m 1
 411 158 l 1
 390 80 l 1
 570 80 l 1
 570 -20 l 1
 363 -20 l 1
 336 -121 l 1
 249 -98 l 1
 270 -20 l 1
 90 -20 l 1
 90 80 l 1
 297 80 l 1
 324 182 l 1
EndSplineSet
EndChar

StartChar: uni2A88
Encoding: 213 10888 213
Width: 660
Flags: W
HStem: -20 100<90 270 390 570>
LayerCount: 2
Back
Fore
SplineSet
129 121 m 1
 90 213 l 1
 391 339 l 1
 90 465 l 1
 129 558 l 1
 570 372 l 1
 570 306 l 1
 129 121 l 1
324 182 m 1
 411 158 l 1
 390 80 l 1
 570 80 l 1
 570 -20 l 1
 363 -20 l 1
 336 -121 l 1
 249 -98 l 1
 270 -20 l 1
 90 -20 l 1
 90 80 l 1
 297 80 l 1
 324 182 l 1
EndSplineSet
EndChar

StartChar: uni2268
Encoding: 214 8808 214
Width: 660
Flags: W
HStem: -116 100<90 244 364 570> 77 100<90 296 416 570>
LayerCount: 2
Back
Fore
SplineSet
531 654 m 1
 570 562 l 1
 269 435 l 1
 570 309 l 1
 531 217 l 1
 90 402 l 1
 90 469 l 1
 531 654 l 1
350 278 m 1
 437 255 l 1
 416 177 l 1
 570 177 l 1
 570 77 l 1
 389 77 l 1
 364 -16 l 1
 570 -16 l 1
 570 -116 l 1
 337 -116 l 1
 310 -217 l 1
 223 -194 l 1
 244 -116 l 1
 90 -116 l 1
 90 -16 l 1
 271 -16 l 1
 296 77 l 1
 90 77 l 1
 90 177 l 1
 323 177 l 1
 350 278 l 1
EndSplineSet
EndChar

StartChar: uni2269
Encoding: 215 8809 215
Width: 660
Flags: W
HStem: -116 100<90 244 364 570> 77 100<90 296 416 570>
LayerCount: 2
Back
Fore
SplineSet
129 217 m 1
 90 309 l 1
 391 435 l 1
 90 562 l 1
 129 654 l 1
 570 469 l 1
 570 402 l 1
 129 217 l 1
350 278 m 1
 437 255 l 1
 416 177 l 1
 570 177 l 1
 570 77 l 1
 389 77 l 1
 364 -16 l 1
 570 -16 l 1
 570 -116 l 1
 337 -116 l 1
 310 -217 l 1
 223 -194 l 1
 244 -116 l 1
 90 -116 l 1
 90 -16 l 1
 271 -16 l 1
 296 77 l 1
 90 77 l 1
 90 177 l 1
 323 177 l 1
 350 278 l 1
EndSplineSet
EndChar

StartChar: uni22E6
Encoding: 216 8934 216
Width: 660
Flags: W
HStem: -52 100<383.616 477.077> 45 100<182.568 277.47>
LayerCount: 2
Back
Fore
SplineSet
531 590 m 1x00
 570 497 l 1
 269 371 l 1
 570 245 l 1
 531 153 l 1
 90 338 l 1
 90 404 l 1
 531 590 l 1x00
324 198 m 1
 411 174 l 1
 383 68 l 1
 398 57 415 48 433 48 c 0
 467 48 487 81 511 105 c 1
 570 46 l 1
 528 5 493 -52 433 -52 c 0x80
 405 -52 380 -44 356 -32 c 1
 336 -105 l 1
 249 -82 l 1
 278 25 l 1
 263 36 246 45 227 45 c 0
 193 45 173 11 149 -12 c 1
 90 46 l 1
 132 88 168 145 227 145 c 0x40
 255 145 280 137 304 125 c 1
 324 198 l 1
EndSplineSet
EndChar

StartChar: uni22E7
Encoding: 217 8935 217
Width: 660
Flags: W
HStem: -52 100<383.616 477.077> 45 100<182.568 277.47>
LayerCount: 2
Back
Fore
SplineSet
129 153 m 1x00
 90 245 l 1
 391 371 l 1
 90 497 l 1
 129 590 l 1
 570 404 l 1
 570 338 l 1
 129 153 l 1x00
324 198 m 1
 411 174 l 1
 383 68 l 1
 398 57 415 48 433 48 c 0
 467 48 487 81 511 105 c 1
 570 46 l 1
 528 5 493 -52 433 -52 c 0x80
 405 -52 380 -44 356 -32 c 1
 336 -105 l 1
 249 -82 l 1
 278 25 l 1
 263 36 246 45 227 45 c 0
 193 45 173 11 149 -12 c 1
 90 46 l 1
 132 88 168 145 227 145 c 0x40
 255 145 280 137 304 125 c 1
 324 198 l 1
EndSplineSet
EndChar

StartChar: uni2A89
Encoding: 218 10889 218
Width: 660
Flags: W
HStem: -148 100<380.623 477.077> -52 100<181.999 254.664> 45 100<405.336 477.077> 141 100<181.999 277.935>
LayerCount: 2
Back
Fore
SplineSet
531 686 m 1x00
 570 594 l 1
 269 467 l 1
 570 341 l 1
 531 249 l 1
 90 434 l 1
 90 501 l 1
 531 686 l 1x00
299 103 m 1
 277 121 255 141 227 141 c 0
 193 141 173 108 149 84 c 1
 90 143 l 1
 132 184 168 241 227 241 c 0x50
 263 241 297 228 327 208 c 1
 350 294 l 1
 437 271 l 1
 405 151 l 1
 414 147 423 145 433 145 c 0
 467 145 487 178 511 202 c 1
 570 143 l 1
 528 101 493 45 433 45 c 0
 414 45 396 49 379 55 c 1
 361 -11 l 1
 382 -28 406 -48 433 -48 c 0
 467 -48 487 -15 511 9 c 1
 570 -50 l 1
 528 -92 493 -148 433 -148 c 0xa0
 397 -148 363 -135 333 -115 c 1
 310 -201 l 1
 223 -178 l 1
 255 -58 l 1
 246 -54 237 -52 227 -52 c 0
 193 -52 173 -85 149 -109 c 1
 90 -50 l 1
 132 -8 168 48 227 48 c 0x40
 246 48 264 44 281 38 c 1
 299 103 l 1
EndSplineSet
EndChar

StartChar: uni2A8A
Encoding: 219 10890 219
Width: 660
Flags: W
HStem: -148 100<380.623 477.077> -52 100<181.999 254.664> 45 100<405.336 477.077> 141 100<181.999 277.935>
LayerCount: 2
Back
Fore
SplineSet
129 249 m 1x00
 90 341 l 1
 391 467 l 1
 90 594 l 1
 129 686 l 1
 570 501 l 1
 570 434 l 1
 129 249 l 1x00
299 103 m 1
 277 121 255 141 227 141 c 0
 193 141 173 108 149 84 c 1
 90 143 l 1
 132 184 168 241 227 241 c 0x50
 263 241 297 228 327 208 c 1
 350 294 l 1
 437 271 l 1
 405 151 l 1
 414 147 423 145 433 145 c 0
 467 145 487 178 511 202 c 1
 570 143 l 1
 528 101 493 45 433 45 c 0
 414 45 396 49 379 55 c 1
 361 -11 l 1
 382 -28 406 -48 433 -48 c 0
 467 -48 487 -15 511 9 c 1
 570 -50 l 1
 528 -92 493 -148 433 -148 c 0xa0
 397 -148 363 -135 333 -115 c 1
 310 -201 l 1
 223 -178 l 1
 255 -58 l 1
 246 -54 237 -52 227 -52 c 0
 193 -52 173 -85 149 -109 c 1
 90 -50 l 1
 132 -8 168 48 227 48 c 0x40
 246 48 264 44 281 38 c 1
 299 103 l 1
EndSplineSet
EndChar

StartChar: uni22E4
Encoding: 220 8932 220
Width: 660
Flags: W
HStem: -52 100<90 244 364 570> 141 100<190 296 416 570> 502 100<190 570>
VStem: 90 100<241 502>
LayerCount: 2
Back
Fore
SplineSet
350 342 m 1
 437 319 l 1
 416 241 l 1
 570 241 l 1
 570 141 l 1
 389 141 l 1
 364 48 l 1
 570 48 l 1
 570 -52 l 1
 337 -52 l 1
 310 -153 l 1
 223 -130 l 1
 244 -52 l 1
 90 -52 l 1
 90 48 l 1
 271 48 l 1
 296 141 l 1
 90 141 l 1
 90 602 l 1
 570 602 l 1
 570 502 l 1
 190 502 l 1
 190 241 l 1
 323 241 l 1
 350 342 l 1
EndSplineSet
EndChar

StartChar: uni22E5
Encoding: 221 8933 221
Width: 660
Flags: W
HStem: -52 100<90 244 364 570> 141 100<90 296 416 470> 502 100<90 470>
VStem: 470 100<241 502>
LayerCount: 2
Back
Fore
SplineSet
350 342 m 1
 437 319 l 1
 416 241 l 1
 470 241 l 1
 470 502 l 1
 90 502 l 1
 90 602 l 1
 570 602 l 1
 570 141 l 1
 389 141 l 1
 364 48 l 1
 570 48 l 1
 570 -52 l 1
 337 -52 l 1
 310 -153 l 1
 223 -130 l 1
 244 -52 l 1
 90 -52 l 1
 90 48 l 1
 271 48 l 1
 296 141 l 1
 90 141 l 1
 90 241 l 1
 323 241 l 1
 350 342 l 1
EndSplineSet
EndChar

StartChar: sym028
Encoding: 222 -1 222
Width: 660
Flags: W
HStem: -148 100<90 244 364 570> 45 100<90 296 416 570> 237 100<190 348 384 570> 598 100<190 570>
VStem: 90 480<-148 -48 45 145 237 337 598 698> 90 100<337 598>
LayerCount: 2
Back
Fore
SplineSet
90 -148 m 1xf8
 90 -48 l 1
 271 -48 l 1
 296 45 l 1
 90 45 l 1
 90 145 l 1
 323 145 l 1
 348 237 l 1
 90 237 l 1
 90 698 l 1
 570 698 l 1
 570 598 l 1xf8
 190 598 l 1
 190 337 l 1xf4
 570 337 l 1
 570 237 l 1
 384 237 l 1
 437 223 l 1
 416 145 l 1
 570 145 l 1
 570 45 l 1
 389 45 l 1
 364 -48 l 1
 570 -48 l 1
 570 -148 l 1
 337 -148 l 1
 310 -249 l 1
 223 -226 l 1
 244 -148 l 1
 90 -148 l 1xf8
EndSplineSet
EndChar

StartChar: sym029
Encoding: 223 -1 223
Width: 660
Flags: W
HStem: -148 100<90 244 364 570> 45 100<90 296 416 570> 237 100<90 348 384 470> 598 100<90 470>
VStem: 90 480<-148 -48 45 145 237 337 598 698> 470 100<337 598>
LayerCount: 2
Back
Fore
SplineSet
570 -48 m 1xf8
 570 -148 l 1
 337 -148 l 1
 310 -249 l 1
 223 -226 l 1
 244 -148 l 1
 90 -148 l 1
 90 -48 l 1
 271 -48 l 1
 296 45 l 1
 90 45 l 1
 90 145 l 1
 323 145 l 1
 348 237 l 1
 90 237 l 1
 90 337 l 1xf8
 470 337 l 1
 470 598 l 1xf4
 90 598 l 1
 90 698 l 1
 570 698 l 1
 570 237 l 1
 384 237 l 1
 437 223 l 1
 416 145 l 1
 570 145 l 1
 570 45 l 1
 389 45 l 1
 364 -48 l 1
 570 -48 l 1xf8
EndSplineSet
EndChar

StartChar: uni228A
Encoding: 224 8842 224
Width: 660
Flags: W
HStem: -52 100<90 244 364 570> 141 100<232.895 296 416 570> 502 100<232.895 570>
VStem: 90 100<287.52 454.776>
LayerCount: 2
Back
Fore
SplineSet
350 342 m 1
 437 319 l 1
 416 241 l 1
 570 241 l 1
 570 141 l 1
 389 141 l 1
 364 48 l 1
 570 48 l 1
 570 -52 l 1
 337 -52 l 1
 310 -153 l 1
 223 -130 l 1
 244 -52 l 1
 90 -52 l 1
 90 48 l 1
 271 48 l 1
 296 141 l 1
 284 141 l 2
 169 141 90 250 90 371 c 0
 90 492 169 602 284 602 c 2
 570 602 l 1
 570 502 l 1
 284 502 l 2
 224 502 190 437 190 371 c 0
 190 305 224 241 284 241 c 2
 323 241 l 1
 350 342 l 1
EndSplineSet
EndChar

StartChar: uni228B
Encoding: 225 8843 225
Width: 660
Flags: W
HStem: -52 100<90 244 364 570> 141 100<90 296> 502 100<90 427.105>
VStem: 470 100<285.912 454.776>
LayerCount: 2
Back
Fore
SplineSet
350 342 m 1
 437 319 l 1
 420 254 l 1
 453 276 470 323 470 371 c 0
 470 437 436 502 376 502 c 2
 90 502 l 1
 90 602 l 1
 376 602 l 2
 491 602 570 492 570 371 c 0
 570 255 497 149 389 141 c 1
 364 48 l 1
 570 48 l 1
 570 -52 l 1
 337 -52 l 1
 310 -153 l 1
 223 -130 l 1
 244 -52 l 1
 90 -52 l 1
 90 48 l 1
 271 48 l 1
 296 141 l 1
 90 141 l 1
 90 241 l 1
 323 241 l 1
 350 342 l 1
EndSplineSet
EndChar

StartChar: uni2ACB
Encoding: 226 10955 226
Width: 660
Flags: W
HStem: -148 100<90 244 364 570> 45 100<90 296 416 570> 237 100<232.895 348 384 570> 598 100<232.895 570>
VStem: 90 100<383.52 551.181>
LayerCount: 2
Back
Fore
SplineSet
90 -148 m 1
 90 -48 l 1
 271 -48 l 1
 296 45 l 1
 90 45 l 1
 90 145 l 1
 323 145 l 1
 348 237 l 1
 284 237 l 2
 169 237 90 346 90 467 c 0
 90 589 169 698 284 698 c 2
 570 698 l 1
 570 598 l 1
 284 598 l 2
 224 598 190 534 190 467 c 0
 190 401 224 337 284 337 c 2
 570 337 l 1
 570 237 l 1
 384 237 l 1
 437 223 l 1
 416 145 l 1
 570 145 l 1
 570 45 l 1
 389 45 l 1
 364 -48 l 1
 570 -48 l 1
 570 -148 l 1
 337 -148 l 1
 310 -249 l 1
 223 -226 l 1
 244 -148 l 1
 90 -148 l 1
EndSplineSet
EndChar

StartChar: uni2ACC
Encoding: 227 10956 227
Width: 660
Flags: W
HStem: -148 100<90 244 364 570> 45 100<90 296 416 570> 237 100<90 348 383 427.638> 598 100<90 427.105>
VStem: 470 100<381.938 551.181>
LayerCount: 2
Back
Fore
SplineSet
570 -48 m 1
 570 -148 l 1
 337 -148 l 1
 310 -249 l 1
 223 -226 l 1
 244 -148 l 1
 90 -148 l 1
 90 -48 l 1
 271 -48 l 1
 296 45 l 1
 90 45 l 1
 90 145 l 1
 323 145 l 1
 348 237 l 1
 90 237 l 1
 90 337 l 1
 376 337 l 2
 436 337 470 401 470 467 c 0
 470 534 436 598 376 598 c 2
 90 598 l 1
 90 698 l 1
 376 698 l 2
 491 698 570 589 570 467 c 0
 570 349 494 242 383 237 c 1
 437 223 l 1
 416 145 l 1
 570 145 l 1
 570 45 l 1
 389 45 l 1
 364 -48 l 1
 570 -48 l 1
EndSplineSet
EndChar

StartChar: uni2AB1
Encoding: 228 10929 228
Width: 660
Flags: W
HStem: -20 100<90 270 390 570> 289 100<90 276.761> 534 20G<450.5 518.471>
LayerCount: 2
Back
Fore
SplineSet
368 339 m 1
 444 305 512 255 570 193 c 1
 497 125 l 1
 404 225 277 289 140 289 c 2
 90 289 l 1
 90 389 l 1
 140 389 l 2
 277 389 404 454 497 554 c 1
 570 486 l 1
 512 424 444 373 368 339 c 1
324 182 m 1
 411 158 l 1
 390 80 l 1
 570 80 l 1
 570 -20 l 1
 363 -20 l 1
 336 -121 l 1
 249 -98 l 1
 270 -20 l 1
 90 -20 l 1
 90 80 l 1
 297 80 l 1
 324 182 l 1
EndSplineSet
EndChar

StartChar: uni2AB2
Encoding: 229 10930 229
Width: 660
Flags: W
HStem: -20 100<90 270 390 570> 289 100<383.239 570> 534 20G<141.529 209.5>
LayerCount: 2
Back
Fore
SplineSet
292 339 m 1
 216 373 148 424 90 486 c 1
 163 554 l 1
 256 454 383 389 520 389 c 2
 570 389 l 1
 570 289 l 1
 520 289 l 2
 383 289 256 225 163 125 c 1
 90 193 l 1
 148 255 216 305 292 339 c 1
324 182 m 1
 411 158 l 1
 390 80 l 1
 570 80 l 1
 570 -20 l 1
 363 -20 l 1
 336 -121 l 1
 249 -98 l 1
 270 -20 l 1
 90 -20 l 1
 90 80 l 1
 297 80 l 1
 324 182 l 1
EndSplineSet
EndChar

StartChar: uni2AB5
Encoding: 230 10933 230
Width: 660
Flags: W
HStem: -116 100<90 244 364 570> 77 100<90 296 416 570> 385 100<90 276.761>
LayerCount: 2
Back
Fore
SplineSet
368 435 m 1
 444 401 512 351 570 289 c 1
 497 221 l 1
 404 321 277 385 140 385 c 2
 90 385 l 1
 90 485 l 1
 140 485 l 2
 277 485 404 550 497 650 c 1
 570 582 l 1
 512 520 444 469 368 435 c 1
350 278 m 1
 437 255 l 1
 416 177 l 1
 570 177 l 1
 570 77 l 1
 389 77 l 1
 364 -16 l 1
 570 -16 l 1
 570 -116 l 1
 337 -116 l 1
 310 -217 l 1
 223 -194 l 1
 244 -116 l 1
 90 -116 l 1
 90 -16 l 1
 271 -16 l 1
 296 77 l 1
 90 77 l 1
 90 177 l 1
 323 177 l 1
 350 278 l 1
EndSplineSet
EndChar

StartChar: uni2AB6
Encoding: 231 10934 231
Width: 660
Flags: W
HStem: -116 100<90 244 364 570> 77 100<90 296 416 570> 385 100<383.239 570>
LayerCount: 2
Back
Fore
SplineSet
292 435 m 1
 216 469 148 520 90 582 c 1
 163 650 l 1
 256 550 383 485 520 485 c 2
 570 485 l 1
 570 385 l 1
 520 385 l 2
 383 385 256 321 163 221 c 1
 90 289 l 1
 148 351 216 401 292 435 c 1
350 278 m 1
 437 255 l 1
 416 177 l 1
 570 177 l 1
 570 77 l 1
 389 77 l 1
 364 -16 l 1
 570 -16 l 1
 570 -116 l 1
 337 -116 l 1
 310 -217 l 1
 223 -194 l 1
 244 -116 l 1
 90 -116 l 1
 90 -16 l 1
 271 -16 l 1
 296 77 l 1
 90 77 l 1
 90 177 l 1
 323 177 l 1
 350 278 l 1
EndSplineSet
EndChar

StartChar: uni22E8
Encoding: 232 8936 232
Width: 660
Flags: W
HStem: -52 100<383.616 477.077> 45 100<182.568 277.47> 321 100<90 276.761>
LayerCount: 2
Back
Fore
SplineSet
368 371 m 1x20
 444 337 512 287 570 225 c 1
 497 157 l 1
 404 257 277 321 140 321 c 2
 90 321 l 1
 90 421 l 1
 140 421 l 2
 277 421 404 486 497 586 c 1
 570 518 l 1
 512 456 444 405 368 371 c 1x20
324 198 m 1
 411 174 l 1
 383 68 l 1
 398 57 415 48 433 48 c 0
 467 48 487 81 511 105 c 1
 570 46 l 1
 528 5 493 -52 433 -52 c 0xa0
 405 -52 380 -44 356 -32 c 1
 336 -105 l 1
 249 -82 l 1
 278 25 l 1
 263 36 246 45 227 45 c 0
 193 45 173 11 149 -12 c 1
 90 46 l 1
 132 88 168 145 227 145 c 0x60
 255 145 280 137 304 125 c 1
 324 198 l 1
EndSplineSet
EndChar

StartChar: uni22E9
Encoding: 233 8937 233
Width: 660
Flags: W
HStem: -52 100<383.616 477.077> 45 100<182.568 277.47> 321 100<383.239 570>
LayerCount: 2
Back
Fore
SplineSet
292 371 m 1x20
 216 405 148 456 90 518 c 1
 163 586 l 1
 256 486 383 421 520 421 c 2
 570 421 l 1
 570 321 l 1
 520 321 l 2
 383 321 256 257 163 157 c 1
 90 225 l 1
 148 287 216 337 292 371 c 1x20
324 198 m 1
 411 174 l 1
 383 68 l 1
 398 57 415 48 433 48 c 0
 467 48 487 81 511 105 c 1
 570 46 l 1
 528 5 493 -52 433 -52 c 0xa0
 405 -52 380 -44 356 -32 c 1
 336 -105 l 1
 249 -82 l 1
 278 25 l 1
 263 36 246 45 227 45 c 0
 193 45 173 11 149 -12 c 1
 90 46 l 1
 132 88 168 145 227 145 c 0x60
 255 145 280 137 304 125 c 1
 324 198 l 1
EndSplineSet
EndChar

StartChar: uni2AB9
Encoding: 234 10937 234
Width: 660
Flags: W
HStem: -148 100<380.623 477.077> -52 100<181.999 254.664> 45 100<405.336 477.077> 141 100<181.999 277.935> 417 100<90 276.761>
LayerCount: 2
Back
Fore
SplineSet
367 467 m 1x08
 443 433 512 383 570 321 c 1
 497 253 l 1
 404 353 277 417 140 417 c 2
 90 417 l 1
 90 517 l 1
 140 517 l 2
 277 517 404 582 497 682 c 1
 570 614 l 1
 512 552 443 501 367 467 c 1x08
299 103 m 1
 277 121 255 141 227 141 c 0
 193 141 173 108 149 84 c 1
 90 143 l 1
 132 184 168 241 227 241 c 0x58
 263 241 297 228 327 208 c 1
 350 294 l 1
 437 271 l 1
 405 151 l 1
 414 147 423 145 433 145 c 0
 467 145 487 178 511 202 c 1
 570 143 l 1
 528 101 493 45 433 45 c 0
 414 45 396 49 379 55 c 1
 361 -11 l 1
 382 -28 406 -48 433 -48 c 0
 467 -48 487 -15 511 9 c 1
 570 -50 l 1
 528 -92 493 -148 433 -148 c 0xa8
 397 -148 363 -135 333 -115 c 1
 310 -201 l 1
 223 -178 l 1
 255 -58 l 1
 246 -54 237 -52 227 -52 c 0
 193 -52 173 -85 149 -109 c 1
 90 -50 l 1
 132 -8 168 48 227 48 c 0x48
 246 48 264 44 281 38 c 1
 299 103 l 1
EndSplineSet
EndChar

StartChar: uni2ABA
Encoding: 235 10938 235
Width: 660
Flags: W
HStem: -148 100<380.623 477.077> -52 100<181.999 254.664> 45 100<405.336 477.077> 141 100<181.999 277.935> 417 100<383.239 570>
LayerCount: 2
Back
Fore
SplineSet
293 467 m 1x08
 217 501 148 552 90 614 c 1
 163 682 l 1
 256 582 383 517 520 517 c 2
 570 517 l 1
 570 417 l 1
 520 417 l 2
 383 417 256 353 163 253 c 1
 90 321 l 1
 148 383 217 433 293 467 c 1x08
299 103 m 1
 277 121 255 141 227 141 c 0
 193 141 173 108 149 84 c 1
 90 143 l 1
 132 184 168 241 227 241 c 0x58
 263 241 297 228 327 208 c 1
 350 294 l 1
 437 271 l 1
 405 151 l 1
 414 147 423 145 433 145 c 0
 467 145 487 178 511 202 c 1
 570 143 l 1
 528 101 493 45 433 45 c 0
 414 45 396 49 379 55 c 1
 361 -11 l 1
 382 -28 406 -48 433 -48 c 0
 467 -48 487 -15 511 9 c 1
 570 -50 l 1
 528 -92 493 -148 433 -148 c 0xa8
 397 -148 363 -135 333 -115 c 1
 310 -201 l 1
 223 -178 l 1
 255 -58 l 1
 246 -54 237 -52 227 -52 c 0
 193 -52 173 -85 149 -109 c 1
 90 -50 l 1
 132 -8 168 48 227 48 c 0x48
 246 48 264 44 281 38 c 1
 299 103 l 1
EndSplineSet
EndChar
